<svg version="1.1" id="Layer_1" xmlns:sketch="http://www.bohemiancoding.com/sketch/ns"
	 xmlns="http://www.w3.org/2000/svg" xmlns:xlink="http://www.w3.org/1999/xlink" x="0px" y="0px" width="31px" height="51px"
	 viewBox="0 0 31 51" enable-background="new 0 0 31 51" xml:space="preserve">
<filter  height="200%" width="200%" x="-50%" y="-50%" id="filter-1" filterUnits="objectBoundingBox">
	<feOffset  dx="0" in="SourceAlpha" result="shadowOffsetOuter1" dy="1"></feOffset>
	<feGaussianBlur  in="shadowOffsetOuter1" stdDeviation="0.5" result="shadowBlurOuter1"></feGaussianBlur>
	
		<feColorMatrix  type="matrix" in="shadowBlurOuter1" result="shadowMatrixOuter1" values="0 0 0 0 0   0 0 0 0 0   0 0 0 0 0  0 0 0 0.35 0">
		</feColorMatrix>
	<feMerge>
		<feMergeNode  in="shadowMatrixOuter1"></feMergeNode>
		<feMergeNode  in="SourceGraphic"></feMergeNode>
	</feMerge>
</filter>
<path id="Imported-Layers" fill="#E47F4B" d="M30.771,15.883c0-8.495-6.891-15.383-15.384-15.383C6.891,0.5,0,7.388,0,15.883
	c0,2.804,0.766,5.427,2.072,7.692H2.061l13.32,26.923l13.328-26.923h-0.016C30.008,21.31,30.771,18.687,30.771,15.883"/>
<g id="Imported-Layers_1_" filter="url(#filter-1)">
	<path fill="#FFFFFF" d="M22.99,14.633l-7.446-7.341c-0.38-0.389-1.004-0.389-1.385,0l-7.445,7.341
		c-0.381,0.389-0.239,0.707,0.315,0.707h1.552v5.638c0,0.408,0.018,0.738,0.766,0.738h3.614v-5.654h3.782v5.654h3.795
		c0.57,0,0.585-0.331,0.585-0.738V15.34h1.552C23.229,15.34,23.371,15.021,22.99,14.633"/>
</g>
</svg>
