<svg version="1.1" id="Layer_1" xmlns="http://www.w3.org/2000/svg" xmlns:xlink="http://www.w3.org/1999/xlink" x="0px" y="0px"
	 width="30px" height="30px" viewBox="0 0 30 30" enable-background="new 0 0 30 30" xml:space="preserve">
<path fill="#ffffff" d="M22.803,23.018l-4.477-5.812h-0.324l-0.325,0.315l-0.478-0.642c1.062-1.048,1.719-2.486,1.719-4.073
	C18.918,9.605,16.244,7,12.959,7C9.673,7,7,9.605,7,12.807c0,3.203,2.673,5.808,5.959,5.808c0.973,0,1.891-0.234,2.704-0.64
	l0.595,0.662L15.9,18.988v0.165c0,0,4.408,5.396,4.682,5.661c0.273,0.267,0.888,0.167,0.888,0.167s0.89-0.501,1.333-0.933
	C23.247,23.617,22.803,23.018,22.803,23.018z M9.105,12.807c0-2.07,1.729-3.755,3.854-3.755c2.125,0,3.853,1.686,3.853,3.755
	c0,2.072-1.727,3.757-3.853,3.757C10.834,16.563,9.105,14.878,9.105,12.807z"/>
</svg>
