<?xml version="1.0" encoding="utf-8"?>
<!-- Generator: Adobe Illustrator 16.0.0, SVG Export Plug-In . SVG Version: 6.00 Build 0)  -->
<!DOCTYPE svg PUBLIC "-//W3C//DTD SVG 1.1//EN" "http://www.w3.org/Graphics/SVG/1.1/DTD/svg11.dtd">
<svg version="1.1" id="Layer_1" xmlns="http://www.w3.org/2000/svg" xmlns:xlink="http://www.w3.org/1999/xlink" x="0px" y="0px"
	 width="30px" height="30px" viewBox="0 0 30 30" enable-background="new 0 0 30 30" xml:space="preserve">
<g>
	<path fill="#AAAAAA" d="M21.196,7.059h-1.474v1.256c0,0.478-0.417,0.867-0.93,0.867c-0.511,0-0.927-0.389-0.927-0.867V7.059h-5.73
		v1.256c0,0.478-0.417,0.867-0.929,0.867s-0.929-0.389-0.929-0.867V7.059H8.804C7.809,7.059,7,7.814,7,8.741v13.575
		C7,23.243,7.809,24,8.804,24h12.392C22.192,24,23,23.243,23,22.315V8.741C23,7.814,22.192,7.059,21.196,7.059z M21.826,22.315
		c0,0.324-0.283,0.588-0.63,0.588H8.804c-0.347,0-0.63-0.264-0.63-0.588v-11.07h13.652V22.315z"/>
	<path fill="#AAAAAA" d="M11.207,8.634c0.188,0,0.342-0.142,0.342-0.318V7.059v-0.74C11.549,6.142,11.396,6,11.207,6
		s-0.341,0.142-0.341,0.319v0.74v1.256C10.866,8.492,11.019,8.634,11.207,8.634z"/>
	<path fill="#AAAAAA" d="M18.793,8.634c0.188,0,0.341-0.142,0.341-0.318V6.319C19.134,6.142,18.981,6,18.793,6
		c-0.189,0-0.342,0.142-0.342,0.319v1.997C18.451,8.492,18.604,8.634,18.793,8.634z"/>
	<path fill="#AAAAAA" d="M12.855,14.195h0.954c0.075,0,0.135-0.055,0.135-0.125v-0.889c0-0.069-0.06-0.125-0.135-0.125h-0.954
		c-0.073,0-0.133,0.056-0.133,0.125v0.889C12.722,14.14,12.782,14.195,12.855,14.195z"/>
	<path fill="#AAAAAA" d="M14.584,14.195h0.955c0.074,0,0.134-0.055,0.134-0.125v-0.889c0-0.069-0.06-0.125-0.134-0.125h-0.955
		c-0.074,0-0.135,0.056-0.135,0.125v0.889C14.449,14.14,14.511,14.195,14.584,14.195z"/>
	<path fill="#AAAAAA" d="M16.313,14.195h0.954c0.073,0,0.133-0.055,0.133-0.125v-0.889c0-0.069-0.06-0.125-0.133-0.125h-0.954
		c-0.073,0-0.134,0.056-0.134,0.125v0.889C16.18,14.14,16.24,14.195,16.313,14.195z"/>
	<path fill="#AAAAAA" d="M18.04,14.195h0.954c0.076,0,0.138-0.055,0.138-0.125v-0.889c0-0.069-0.062-0.125-0.138-0.125H18.04
		c-0.073,0-0.132,0.056-0.132,0.125v0.889C17.908,14.14,17.967,14.195,18.04,14.195z"/>
	<path fill="#AAAAAA" d="M19.771,14.195h0.954c0.073,0,0.133-0.055,0.133-0.125v-0.889c0-0.069-0.06-0.125-0.133-0.125h-0.954
		c-0.076,0-0.137,0.056-0.137,0.125v0.889C19.635,14.14,19.695,14.195,19.771,14.195z"/>
	<path fill="#AAAAAA" d="M9.399,16.454h0.954c0.073,0,0.134-0.057,0.134-0.124v-0.89c0-0.069-0.061-0.125-0.134-0.125H9.399
		c-0.075,0-0.134,0.056-0.134,0.125v0.89C9.265,16.397,9.324,16.454,9.399,16.454z"/>
	<path fill="#AAAAAA" d="M11.128,16.454h0.954c0.074,0,0.134-0.057,0.134-0.124v-0.89c0-0.069-0.06-0.125-0.134-0.125h-0.954
		c-0.075,0-0.135,0.056-0.135,0.125v0.89C10.993,16.397,11.053,16.454,11.128,16.454z"/>
	<path fill="#AAAAAA" d="M12.855,16.454h0.954c0.075,0,0.135-0.057,0.135-0.124v-0.89c0-0.069-0.06-0.125-0.135-0.125h-0.954
		c-0.073,0-0.133,0.056-0.133,0.125v0.89C12.722,16.397,12.782,16.454,12.855,16.454z"/>
	<path fill="#AAAAAA" d="M14.584,16.454h0.955c0.074,0,0.134-0.057,0.134-0.124v-0.89c0-0.069-0.06-0.125-0.134-0.125h-0.955
		c-0.074,0-0.135,0.056-0.135,0.125v0.89C14.449,16.397,14.511,16.454,14.584,16.454z"/>
	<path fill="#AAAAAA" d="M16.313,16.454h0.954c0.073,0,0.133-0.057,0.133-0.124v-0.89c0-0.069-0.06-0.125-0.133-0.125h-0.954
		c-0.073,0-0.134,0.056-0.134,0.125v0.89C16.18,16.397,16.24,16.454,16.313,16.454z"/>
	<path fill="#AAAAAA" d="M18.04,16.454h0.954c0.076,0,0.138-0.057,0.138-0.124v-0.89c0-0.069-0.062-0.125-0.138-0.125H18.04
		c-0.073,0-0.132,0.056-0.132,0.125v0.89C17.908,16.397,17.967,16.454,18.04,16.454z"/>
	<path fill="#AAAAAA" d="M19.771,16.454h0.954c0.073,0,0.133-0.057,0.133-0.124v-0.89c0-0.069-0.06-0.125-0.133-0.125h-0.954
		c-0.076,0-0.137,0.056-0.137,0.125v0.89C19.635,16.397,19.695,16.454,19.771,16.454z"/>
	<path fill="#AAAAAA" d="M9.399,18.714h0.954c0.073,0,0.134-0.056,0.134-0.124v-0.891c0-0.069-0.061-0.126-0.134-0.126H9.399
		c-0.075,0-0.134,0.057-0.134,0.126v0.891C9.265,18.658,9.324,18.714,9.399,18.714z"/>
	<path fill="#AAAAAA" d="M11.128,18.714h0.954c0.074,0,0.134-0.056,0.134-0.124v-0.891c0-0.069-0.06-0.126-0.134-0.126h-0.954
		c-0.075,0-0.135,0.057-0.135,0.126v0.891C10.993,18.658,11.053,18.714,11.128,18.714z"/>
	<path fill="#AAAAAA" d="M12.855,18.714h0.954c0.075,0,0.135-0.056,0.135-0.124v-0.891c0-0.069-0.06-0.126-0.135-0.126h-0.954
		c-0.073,0-0.133,0.057-0.133,0.126v0.891C12.722,18.658,12.782,18.714,12.855,18.714z"/>
	<path fill="#AAAAAA" d="M14.584,18.714h0.955c0.074,0,0.134-0.056,0.134-0.124v-0.891c0-0.069-0.06-0.126-0.134-0.126h-0.955
		c-0.074,0-0.135,0.057-0.135,0.126v0.891C14.449,18.658,14.511,18.714,14.584,18.714z"/>
	<path fill="#AAAAAA" d="M16.313,18.714h0.954c0.073,0,0.133-0.056,0.133-0.124v-0.891c0-0.069-0.06-0.126-0.133-0.126h-0.954
		c-0.073,0-0.134,0.057-0.134,0.126v0.891C16.18,18.658,16.24,18.714,16.313,18.714z"/>
	<path fill="#AAAAAA" d="M18.04,18.714h0.954c0.076,0,0.138-0.056,0.138-0.124v-0.891c0-0.069-0.062-0.126-0.138-0.126H18.04
		c-0.073,0-0.132,0.057-0.132,0.126v0.891C17.908,18.658,17.967,18.714,18.04,18.714z"/>
	<path fill="#AAAAAA" d="M19.771,18.714h0.954c0.073,0,0.133-0.056,0.133-0.124v-0.891c0-0.069-0.06-0.126-0.133-0.126h-0.954
		c-0.076,0-0.137,0.057-0.137,0.126v0.891C19.635,18.658,19.695,18.714,19.771,18.714z"/>
	<path fill="#AAAAAA" d="M9.399,20.973h0.954c0.073,0,0.134-0.056,0.134-0.124V19.96c0-0.07-0.061-0.128-0.134-0.128H9.399
		c-0.075,0-0.134,0.058-0.134,0.128v0.889C9.265,20.917,9.324,20.973,9.399,20.973z"/>
	<path fill="#AAAAAA" d="M11.128,20.973h0.954c0.074,0,0.134-0.056,0.134-0.124V19.96c0-0.07-0.06-0.128-0.134-0.128h-0.954
		c-0.075,0-0.135,0.058-0.135,0.128v0.889C10.993,20.917,11.053,20.973,11.128,20.973z"/>
	<path fill="#AAAAAA" d="M12.855,20.973h0.954c0.075,0,0.135-0.056,0.135-0.124V19.96c0-0.07-0.06-0.128-0.135-0.128h-0.954
		c-0.073,0-0.133,0.058-0.133,0.128v0.889C12.722,20.917,12.782,20.973,12.855,20.973z"/>
	<path fill="#AAAAAA" d="M14.584,20.973h0.955c0.074,0,0.134-0.056,0.134-0.124V19.96c0-0.07-0.06-0.128-0.134-0.128h-0.955
		c-0.074,0-0.135,0.058-0.135,0.128v0.889C14.449,20.917,14.511,20.973,14.584,20.973z"/>
	<path fill="#AAAAAA" d="M16.313,20.973h0.954c0.073,0,0.133-0.056,0.133-0.124V19.96c0-0.07-0.06-0.128-0.133-0.128h-0.954
		c-0.073,0-0.134,0.058-0.134,0.128v0.889C16.18,20.917,16.24,20.973,16.313,20.973z"/>
</g>
</svg>
