<?xml version="1.0" encoding="UTF-8" standalone="no"?>
<svg width="243px" height="31px" viewBox="0 0 243 31" version="1.1" xmlns="http://www.w3.org/2000/svg" xmlns:xlink="http://www.w3.org/1999/xlink" xmlns:sketch="http://www.bohemiancoding.com/sketch/ns">
    <!-- Generator: Sketch 3.1 (8751) - http://www.bohemiancoding.com/sketch -->
    <title>Share</title>
    <desc>Created with Sketch.</desc>
    <defs></defs>
    <g id="3.-Ficha-Hotel-Rural" stroke="none" stroke-width="1" fill="none" fill-rule="evenodd" sketch:type="MSPage">
        <g id="3.1.Ficha-hotel-rural-Desktop" sketch:type="MSArtboardGroup" transform="translate(-289.000000, -3978.000000)">
            <g id="Share" sketch:type="MSLayerGroup" transform="translate(289.000000, 3978.000000)">
                <ellipse id="Oval-7" fill="#00ABF4" sketch:type="MSShapeGroup" cx="94" cy="15" rx="15" ry="15"></ellipse>
                <ellipse id="Oval-8" fill="#005AA1" sketch:type="MSShapeGroup" cx="139" cy="15" rx="15" ry="15"></ellipse>
                <ellipse id="Oval-9" fill="#FE4629" sketch:type="MSShapeGroup" cx="184" cy="15" rx="15" ry="15"></ellipse>
                <ellipse id="Oval-10" fill="#232323" sketch:type="MSShapeGroup" cx="228" cy="16" rx="15" ry="15"></ellipse>
                <path d="M99.5930455,10.98 C99.583,10.976 99.5721818,10.9624 99.5613636,10.952 C98.9254091,10.3792 98.1797273,10.1048 97.3196818,10.1384 L97.2941818,10.0784 C97.2995909,10.0736 97.305,10.0736 97.3104091,10.0736 C98.0885455,9.9016 98.5490909,9.724 98.6866364,9.5312 C98.7345455,9.376 98.6773636,9.2904 98.5073636,9.2688 C98.1155909,9.3168 97.7555,9.3976 97.4317273,9.5208 C97.8397273,9.2688 97.9989091,9.092 97.9092727,9 C97.5059091,9.0104 97.0716364,9.2104 96.6157273,9.6008 C96.7849545,9.3224 96.8490909,9.172 96.8058182,9.1448 C96.5902273,9.2904 96.3978182,9.4456 96.234,9.6112 C95.8901364,9.9808 95.6150455,10.3248 95.4017727,10.6368 L95.3925,10.664 C94.8469545,11.516 94.466,12.3744 94.2372727,13.2496 L94.1530455,13.3144 L94.1375909,13.3304 C93.8076364,12.9328 93.4166364,12.6008 92.9445,12.3312 C92.3889091,11.9832 91.7375,11.6496 90.9856364,11.328 C90.1642273,10.9208 89.332,10.5816 88.4897273,10.32 C88.4850909,11.2272 88.9456364,11.9504 89.8613182,12.4776 L89.8613182,12.4936 C89.5383182,12.4872 89.2261364,12.536 88.924,12.6272 C88.9827273,13.4704 89.6024545,14.0488 90.7785455,14.3712 L90.7723636,14.3864 C90.3110455,14.3608 89.9300909,14.516 89.6341364,14.8384 C90.0205,15.568 90.7035909,15.916 91.6942273,15.8896 C91.4995,15.9864 91.3449545,16.0928 91.2445,16.212 C91.0636818,16.3944 91.0057273,16.6104 91.0636818,16.8552 C91.2769545,17.2256 91.6579091,17.3968 92.2196818,17.3712 L92.2498182,17.408 C92.2451818,17.4136 92.2405455,17.4192 92.2351364,17.424 C91.2653636,18.3904 90.0954545,18.824 88.7215455,18.7344 L88.7014545,18.7448 C87.8653636,18.7392 86.969,18.3536 86,17.58 C86.9751818,18.9312 88.2671818,19.9088 89.8675,20.5208 C91.6996364,21.1056 93.5333182,21.148 95.3608182,20.6488 L95.3925,20.6488 C97.1674545,20.1544 98.6711818,19.1416 99.9098636,17.6064 C100.483227,16.8024 100.843318,16.036 100.9855,15.2992 C101.912773,15.332 102.580409,15.0736 102.993818,14.528 L102.983773,14.5104 C102.676227,14.6176 102.072727,14.5864 101.176364,14.4096 L101.176364,14.312 C101.176364,14.308 101.176364,14.308 101.182545,14.312 C102.162364,14.2056 102.740364,13.8992 102.925818,13.3936 C102.241955,13.652 101.568136,13.6568 100.901273,13.416 C100.779182,12.5256 100.345682,11.7144 99.5930455,10.98" id="twitter-2" fill="#FFFFFF" sketch:type="MSShapeGroup"></path>
                <path d="M144.3375,11.5046 L141.499167,11.5046 L141.499167,9.74 C141.499167,9.07785 141.961667,8.92315 142.288333,8.92315 L144.290833,8.92315 L144.290833,6.0102 L141.5325,6 C138.468333,6 137.7725,8.1726 137.7725,9.5632 L137.7725,11.5046 L136,11.5046 L136,14.50595 L137.7725,14.50595 L137.7725,22.99915 L141.499167,22.99915 L141.499167,14.50595 L144.0125,14.50595 L144.3375,11.5046" id="facebook-2" fill="#FFFFFF" sketch:type="MSShapeGroup"></path>
                <g id="google-plus-2" transform="translate(178.000000, 8.000000)" fill="#FFFFFF" sketch:type="MSShapeGroup">
                    <path d="M15.9530792,7.07013953 L13.8416891,7.07013953 L13.8416891,4.97716279 L12.7625103,4.97716279 L12.7625103,7.07013953 L10.6510264,7.07013953 L10.6510264,8.09344186 L12.7625103,8.09344186 L12.7625103,10.1864186 L13.8416891,10.1864186 L13.8416891,8.09344186 L15.9530792,8.09344186 L15.9530792,7.07013953" id="Fill-1"></path>
                    <path d="M9.27070968,0.83772093 L8.00666276,0.83772093 C8.4968915,1.23344186 9.46871554,1.99804651 9.46871554,3.58190698 C9.46871554,5.12260465 8.57304399,5.8527907 7.67741935,6.53916279 C7.40002346,6.80962791 7.08025806,7.10213953 7.08025806,7.56065116 C7.08025806,8.01818605 7.40002346,8.26818605 7.63439296,8.45637209 L8.4031437,9.03823256 C9.34123167,9.80939535 10.1939238,10.518093 10.1939238,11.9556744 C10.1939238,13.9134419 8.19195308,15.9070698 4.52419941,15.9070698 C1.43122581,15.9070698 -0.000187683284,14.4552093 -0.000187683284,12.9131628 C-0.000187683284,12.1627907 0.382686217,11.1016744 1.64241642,10.3716279 C2.96351906,9.58046512 4.75608211,9.47665116 5.71551906,9.41325581 C5.41639883,9.03823256 5.07533138,8.6427907 5.07533138,7.9975814 C5.07533138,7.64362791 5.1826393,7.43488372 5.28891496,7.1852093 C5.05346628,7.20562791 4.81980059,7.2264186 4.60621701,7.2264186 C2.34575953,7.2264186 1.06594721,5.5804186 1.06594721,3.95693023 C1.06594721,2.99883721 1.36670968,1.86688372 2.28293255,1.09674419 C3.49902639,0.11772093 5.0528563,-0.00023255814 6.20523167,-0.00023255814 L10.6515894,0.000651162791 L9.27070968,0.83772093 L9.27070968,0.83772093 Z M3.70773021,10.3309302 C3.23861584,10.4975349 1.87387683,10.9969302 1.87387683,12.476093 C1.87387683,13.9552093 3.3460176,15.018 5.62763636,15.018 C7.67451026,15.018 8.76316716,14.0580465 8.76316716,12.7685116 C8.76316716,11.7044186 8.05935484,11.1437209 6.43716129,10.0183721 C6.267261,9.99702326 6.16056305,9.99702326 5.94810557,9.99702326 C5.75573021,9.99702326 4.60344868,10.0390698 3.70773021,10.3309302 L3.70773021,10.3309302 Z M4.90538416,0.759488372 C4.35012317,0.759488372 3.75366569,0.977953488 3.41142522,1.39488372 C3.04910264,1.83255814 2.94292082,2.4464186 2.94292082,2.98855814 C2.94292082,4.38367442 3.77482698,6.696 5.6092434,6.696 C6.14207625,6.696 6.7168563,6.39409302 7.05909677,6.06055814 C7.54937243,5.5804186 7.59183578,4.96716279 7.59183578,4.59213953 C7.59183578,3.09237209 6.67490909,0.759488372 4.90538416,0.759488372 L4.90538416,0.759488372 Z" id="Fill-2"></path>
                </g>
                <g id="ico-mail-3" transform="translate(220.000000, 9.000000)" fill="#FFFFFF" sketch:type="MSShapeGroup">
                    <path d="M0,11.8089802 L0,1.19063927 C0,0.534246575 0.449963945,0 1.00280426,0 L14.9971957,0 C15.5497156,0 16,0.534246575 16,1.19063927 L16,11.8089802 C16,12.4657534 15.5497156,13 14.9971957,13 L1.00280426,13 C0.449963945,13 0,12.4657534 0,11.8089802 L0,11.8089802 Z M15.1253906,1.19063927 C15.1253906,1.10692542 15.0680234,1.03767123 14.9971957,1.03767123 L1.00280426,1.03767123 C0.931656117,1.03767123 0.874288919,1.10692542 0.874288919,1.19063927 L0.874288919,11.8089802 C0.874288919,11.8938356 0.931656117,11.9619482 1.00280426,11.9619482 L14.9971957,11.9619482 C15.0680234,11.9619482 15.1253906,11.8938356 15.1253906,11.8089802 L15.1253906,1.19063927 L15.1253906,1.19063927 Z" id="Fill-1"></path>
                    <path d="M7.91455367,7.42857143 C7.78299881,7.42857143 7.65144396,7.38277699 7.54254356,7.29118811 L0.224357593,1.12322308 C-0.0327904181,0.90601458 -0.0753172144,0.509829645 0.130162726,0.237163662 C0.336040114,-0.0346620569 0.710832346,-0.0796162329 0.967980356,0.137592262 L7.91972047,5.99675992 L15.0383882,0.153977429 C15.2983183,-0.0602901385 15.6731106,-0.00987424019 15.874616,0.265312538 C16.076519,0.540079184 16.0296203,0.935843986 15.7696901,1.14927129 L8.28020462,7.2962297 C8.17249657,7.38487765 8.0433264,7.42857143 7.91455367,7.42857143" id="Fill-2"></path>
                </g>
                <text id="Comparte" sketch:type="MSTextLayer" font-family="Open Sans" font-size="14" font-weight="normal" fill="#232323">
                    <tspan x="0" y="22">Comparte</tspan>
                </text>
            </g>
        </g>
    </g>
</svg>