<?xml version="1.0" encoding="utf-8"?>
<!DOCTYPE svg PUBLIC "-//W3C//DTD SVG 1.1//EN" "http://www.w3.org/Graphics/SVG/1.1/DTD/svg11.dtd">
<svg version="1.1" id="Layer_1" xmlns:sketch="http://www.bohemiancoding.com/sketch/ns"
	 xmlns="http://www.w3.org/2000/svg" xmlns:xlink="http://www.w3.org/1999/xlink" x="0px" y="0px" width="166px" height="230px"
	 viewBox="0 0 166 230" enable-background="new 0 0 166 230" xml:space="preserve">
<g id="logo-positivo" transform="translate(8.000000, 13.000000)" sketch:type="MSLayerGroup">
	<g id="logo-som-rurals-3" sketch:type="MSShapeGroup">
		<path id="Fill-1" fill="#E47F4B" d="M0.076,23.416c0-1.607,0.19-3.212,0.632-4.818c0.949-0.283,1.771-0.25,2.72,0
			c0.031,0.911,0.158,1.889,0.285,2.707c0.412,0.19,1.36,0.349,2.183,0.349c1.834,0,2.119-0.537,2.119-1.482
			c0-1.006-0.917-1.48-2.31-1.982c-2.561-0.915-5.06-1.826-5.06-4.849c0-3.684,3.321-4.943,6.136-4.943
			c2.15,0,4.112,0.188,5.567,0.598c0,1.67-0.285,3.308-0.632,4.502c-0.949,0.253-1.93,0.221-2.689-0.062
			c-0.096-0.755-0.253-1.605-0.538-2.33c-0.379-0.158-0.79-0.221-1.359-0.221c-2.182,0-2.182,0.757-2.182,1.291
			c0,2.486,7.59,2.077,7.59,6.926c0,3.591-2.876,5.225-6.736,5.225C3.303,24.326,1.278,23.92,0.076,23.416"/>
		<path id="Fill-2" fill="#E47F4B" d="M28.986,16.112c0,3.901-2.879,8.311-7.844,8.311c-4.999,0-7.434-3.273-7.434-7.808
			c0-3.905,2.879-8.311,7.845-8.311C26.645,8.304,28.986,11.673,28.986,16.112L28.986,16.112z M23.197,20.897
			c0.664-0.852,1.139-2.332,1.139-4c0-2.328-0.854-5.543-3.257-5.543c-0.508,0-1.329,0.128-1.582,0.474
			c-0.665,0.85-1.139,2.33-1.139,4c0,2.329,0.854,5.54,3.257,5.54C22.122,21.368,22.945,21.242,23.197,20.897L23.197,20.897z"/>
		<path id="Fill-3" fill="#E47F4B" d="M41.165,15.04c0-2.047-0.286-3.557-1.994-3.557c-0.854,0-1.644,0.251-2.373,0.629v6.865
			c0,0.848,0.033,1.604,0.096,2.36c0.568,0.126,1.169,0.345,1.55,0.567c0,0.692-0.063,1.7-0.159,2.109
			c-0.695-0.033-2.593-0.064-3.668-0.064c-2.215,0-3.607,0.064-4.808,0.064c-0.127-0.378-0.221-1.354-0.221-2.109
			c0.885-0.095,1.897-0.316,2.53-0.536c0.094-0.693,0.125-1.132,0.125-1.762v-7.715c-0.821-0.251-1.675-0.409-2.497-0.504
			c-0.223-0.598-0.286-1.29-0.127-1.919c1.803-0.629,3.764-1.008,5.82-1.135l0.506,0.253c0.127,0.316,0.316,0.82,0.474,1.352
			c1.265-0.943,2.688-1.634,4.427-1.634c1.615,0,3.163,0.626,4.081,1.982c1.359-1.133,2.91-1.982,4.839-1.982
			c2.531,0,4.872,1.51,4.872,4.909v5.764c0,0.848,0.032,1.604,0.095,2.36c0.822,0.096,1.803,0.316,2.373,0.567
			c0,0.692-0.064,1.7-0.222,2.109c-0.823-0.033-3.164-0.064-4.429-0.064c-1.803,0-2.909,0.064-3.921,0.064
			c-0.097-0.378-0.158-1.354-0.158-2.109c0.537-0.127,1.138-0.316,1.581-0.536c0.095-0.693,0.125-1.132,0.125-1.762V15.04
			c0-2.047-0.283-3.557-1.991-3.557c-0.886,0-1.708,0.281-2.467,0.692c0.063,0.314,0.095,0.662,0.095,1.039v5.764
			c0,0.848,0.032,1.604,0.095,2.36c0.538,0.126,1.171,0.345,1.55,0.567c0,0.692-0.064,1.7-0.191,2.109
			c-0.663-0.033-2.592-0.064-3.636-0.064c-1.803,0-2.91,0.064-3.922,0.064c-0.094-0.378-0.159-1.354-0.159-2.109
			c0.538-0.127,1.139-0.316,1.583-0.536c0.095-0.693,0.127-1.132,0.127-1.762V15.04"/>
		<path id="Fill-4" fill="#E47F4B" d="M64.128,8.586c0.223,0.536,0.602,1.668,0.824,2.519c1.012-1.448,2.466-2.707,4.459-2.707
			c1.234,0,2.119,0.188,2.94,0.504c0,2.265-0.126,4.282-0.632,5.98c-0.916,0.346-2.024,0.346-2.878,0
			c-0.094-0.913-0.285-2.329-0.474-3.085c-0.191-0.033-0.349-0.033-0.538-0.033c-0.791,0-1.898,0.725-2.847,2.3v4.913
			c0,0.848,0.031,1.604,0.096,2.36c1.328,0.096,2.845,0.316,3.731,0.567c0,0.692-0.094,1.7-0.252,2.109
			c-1.106-0.033-4.048-0.064-5.755-0.064c-2.216,0-3.607,0.064-4.808,0.064c-0.126-0.378-0.221-1.354-0.221-2.109
			c0.884-0.095,1.897-0.316,2.53-0.536c0.095-0.693,0.126-1.132,0.126-1.762v-7.715c-0.821-0.251-1.676-0.409-2.499-0.504
			c-0.253-0.627-0.315-1.32-0.127-1.919c1.804-0.629,3.765-1.008,5.819-1.135L64.128,8.586"/>
		<path id="Fill-5" fill="#E47F4B" d="M76.021,11.515c-0.728-0.318-1.613-0.569-2.466-0.692c0-0.915,0.095-1.67,0.222-2.111
			c1.232,0,2.593,0.064,4.902,0.064h1.582l0.379,0.377c-0.063,2.834-0.063,6.456-0.063,8.219c0,2.611,0.728,3.715,1.866,3.715
			c0.917,0,1.898-0.725,2.814-1.577v-7.994c-0.695-0.318-1.518-0.569-2.309-0.692c0-0.915,0.096-1.67,0.222-2.111
			c1.201,0,2.531,0.064,4.776,0.064h1.55l0.38,0.377c-0.063,2.362-0.063,4.848-0.063,7.871v1.954c0,0.597,0.031,1.479,0.063,2.172
			c0.727-0.063,1.36-0.19,2.023-0.349c0.38,0.286,0.634,0.756,0.634,1.356c-1.139,1.194-2.909,2.266-4.618,2.266
			c-0.918,0-1.74-0.946-2.214-2.266c-1.233,1.259-2.784,2.266-4.903,2.266c-2.879,0-4.776-1.764-4.776-5.167V11.515"/>
		<path id="Fill-6" fill="#E47F4B" d="M99.555,8.586c0.221,0.536,0.601,1.668,0.822,2.519c1.012-1.448,2.467-2.707,4.459-2.707
			c1.233,0,2.119,0.188,2.941,0.504c0,2.265-0.125,4.282-0.632,5.98c-0.917,0.346-2.024,0.346-2.878,0
			c-0.096-0.913-0.285-2.329-0.475-3.085c-0.189-0.033-0.348-0.033-0.539-0.033c-0.789,0-1.896,0.725-2.846,2.3v4.913
			c0,0.848,0.033,1.604,0.095,2.36c1.329,0.096,2.847,0.316,3.733,0.567c0,0.692-0.096,1.7-0.254,2.109
			c-1.107-0.033-4.049-0.064-5.758-0.064c-2.213,0-3.604,0.064-4.807,0.064c-0.127-0.378-0.221-1.354-0.221-2.109
			c0.885-0.095,1.896-0.316,2.529-0.536c0.095-0.693,0.127-1.132,0.127-1.762v-7.715c-0.822-0.251-1.678-0.409-2.498-0.504
			c-0.252-0.627-0.317-1.32-0.127-1.919c1.803-0.629,3.764-1.008,5.82-1.135L99.555,8.586"/>
		<path id="Fill-7" fill="#E47F4B" d="M116.889,14.191c-0.064-1.858-0.537-3.18-1.93-3.18c-0.602,0-1.297,0.03-1.898,0.124
			c-0.223,0.757-0.254,1.575-0.254,2.362c-0.947,0.443-1.834,0.599-2.781,0.378c-0.664-0.943-1.044-2.235-1.044-3.777
			c1.897-1.103,4.428-1.794,6.958-1.794c2.024,0,5.535,0.723,5.535,5.13v5.542c0,0.597,0.032,1.479,0.063,2.172
			c0.728-0.063,1.36-0.19,2.022-0.349c0.381,0.286,0.633,0.756,0.633,1.356c-1.137,1.194-2.908,2.266-4.617,2.266
			c-0.822,0-1.612-0.788-2.119-1.952c-1.422,1.101-3.162,1.952-4.68,1.952c-2.942,0-4.493-1.354-4.493-3.966
			C108.284,17.056,113.282,15.072,116.889,14.191L116.889,14.191z M116.92,20.392v-3.336c-1.582,0.187-3.1,0.504-3.385,0.723
			c-0.379,0.283-0.602,1.073-0.602,1.575c0,0.943,0.665,1.826,1.93,1.826C115.465,21.179,116.192,20.833,116.92,20.392
			L116.92,20.392z"/>
		<path id="Fill-8" fill="#E47F4B" d="M132.418,18.977c0,0.848,0.033,1.604,0.096,2.36c0.854,0.096,1.803,0.316,2.372,0.567
			c0,0.692-0.062,1.7-0.188,2.109c-0.855-0.033-3.133-0.064-4.557-0.064c-2.119,0-3.51,0.064-4.712,0.064
			c-0.127-0.378-0.222-1.354-0.222-2.109c0.886-0.095,1.898-0.316,2.531-0.536c0.094-0.693,0.127-1.132,0.127-1.762V3.455
			c-0.824-0.219-1.678-0.409-2.5-0.504c-0.189-0.629-0.254-1.259-0.127-1.921c2.278-0.786,4.586-1.102,6.928-1.165l0.38,0.379
			c-0.095,3.147-0.128,5.604-0.128,9.067V18.977"/>
		<path id="Fill-9" fill="#E47F4B" d="M136.246,23.416c0-1.607,0.189-3.212,0.632-4.818c0.948-0.283,1.771-0.25,2.72,0
			c0.033,0.911,0.16,1.889,0.286,2.707c0.411,0.19,1.359,0.349,2.183,0.349c1.833,0,2.119-0.537,2.119-1.482
			c0-1.006-0.918-1.48-2.31-1.982c-2.562-0.915-5.062-1.826-5.062-4.849c0-3.684,3.322-4.943,6.137-4.943
			c2.15,0,4.111,0.188,5.566,0.598c0,1.67-0.284,3.308-0.632,4.502c-0.95,0.253-1.929,0.221-2.688-0.062
			c-0.096-0.755-0.252-1.605-0.538-2.33c-0.38-0.158-0.792-0.221-1.359-0.221c-2.183,0-2.183,0.757-2.183,1.291
			c0,2.486,7.592,2.077,7.592,6.926c0,3.591-2.879,5.225-6.739,5.225C139.472,24.326,137.447,23.92,136.246,23.416"/>
	</g>
	<g id="subtitulo-3" transform="translate(5.000000, 31.000000)" sketch:type="MSShapeGroup">
		<path id="Fill-1_1_" fill="#676967" d="M1.003,8.271c0.38-0.075,0.738-0.197,1.049-0.341c0.126,0.097,0.208,0.231,0.243,0.4
			c-0.393,0.451-1.2,0.978-1.719,0.978c-0.461,0-0.611-0.358-0.611-0.758c0-0.122,0.023-0.354,0.057-0.62l0.924-7.114
			C0.611,0.743,0.288,0.708-0.047,0.708c-0.045-0.122-0.045-0.282,0-0.441c0.382-0.232,0.866-0.378,1.316-0.378
			c0.449,0,0.658,0.283,0.658,0.756c0,0.098-0.012,0.197-0.023,0.317L1.003,8.271"/>
		<path id="Fill-2_1_" fill="#676967" d="M7.417,4.341l-0.484,3.93C7.313,8.196,7.67,8.074,7.982,7.93
			c0.126,0.097,0.208,0.231,0.241,0.4C7.832,8.782,7.025,9.309,6.505,9.309c-0.322,0-0.427-0.466-0.474-1.098
			C5.34,8.903,4.591,9.357,3.979,9.357c-0.52,0-0.819-0.368-0.934-0.88C2.953,8.062,2.917,7.586,2.917,7.149
			c0-1.966,0.935-3.916,2.619-3.916c0.601,0,1.418,0.171,2.007,0.461C7.485,3.927,7.453,4.11,7.417,4.341L7.417,4.341z M6.044,7.601
			l0.404-3.293c-0.381-0.161-0.75-0.258-1.097-0.258c-0.265,0-0.45,0.039-0.611,0.11c-0.439,0.415-0.842,1.43-0.842,2.635
			c0,0.866,0.115,1.466,0.323,1.684C4.752,8.477,5.387,8.101,6.044,7.601L6.044,7.601z"/>
		<path id="Fill-3_1_" fill="#676967" d="M12.064,3.404l0.174-1.576c0.022-0.22,0.588-0.339,1.049-0.291l0.092,0.095
			c-0.126,0.622-0.231,1.196-0.312,1.771c0.577,0,1.085,0.022,1.57,0.083c0,0.282-0.035,0.514-0.139,0.72h-1.547
			c0,0.051-0.01,0.1-0.01,0.134l-0.486,3.93c0.532-0.124,1.026-0.319,1.466-0.563c0.126,0.1,0.208,0.231,0.242,0.402
			C13.68,8.66,12.676,9.309,12.03,9.309c-0.46,0-0.611-0.358-0.611-0.758c0-0.122,0.023-0.34,0.07-0.61
			c0.148-0.998,0.253-1.793,0.379-2.803l0.104-0.929h-1.015c0-0.33,0.023-0.803,0.23-0.803H12.064"/>
		<path id="Fill-4_1_" fill="#676967" d="M16.021,6.879c0.058,0.695,0.265,1.305,0.53,1.598c0.703-0.11,1.372-0.342,2.319-0.83
			c0.116,0.109,0.183,0.244,0.208,0.427c-1.085,0.783-2.1,1.283-2.862,1.283c-0.438,0-0.784-0.332-0.968-0.829
			c-0.15-0.427-0.22-1.002-0.22-1.551c0-2.328,1.316-3.743,2.758-3.743c0.911,0,1.361,0.756,1.361,1.815
			C19.147,5.576,17.681,6.308,16.021,6.879L16.021,6.879z M16.01,6.21c0.934-0.368,1.615-0.734,2.087-1.087
			c0-0.571-0.241-1.098-0.727-1.098c-0.161,0-0.323,0.037-0.496,0.112C16.448,4.524,16.067,5.318,16.01,6.21L16.01,6.21z"/>
		<path id="Fill-5_1_" fill="#676967" d="M23.507,3.28c0.427,0,0.887,0.098,0.969,0.391c0.07,0.233,0.092,0.451,0.092,0.695
			c0,1.367-1.153,3.137-2.641,4.672c-0.081,0.087-0.334,0.17-0.576,0.17c-0.139,0-0.243-0.022-0.243-0.083V8.284
			c0-1.635-0.081-2.82-0.589-4.003c-0.346,0.037-0.634,0.076-0.91,0.135c-0.104-0.059-0.175-0.244-0.175-0.401
			c0.335-0.429,1.039-0.746,1.42-0.746c0.289,0,0.519,0.209,0.68,0.525c0.277,0.536,0.462,1.744,0.462,2.915
			c0,0.476-0.013,0.939-0.058,1.342h0.023c1.095-1.231,1.511-2.513,1.511-4.036c0-0.209-0.012-0.429-0.058-0.636L23.507,3.28"/>
		<path id="Fill-6_1_" fill="#676967" d="M29.747,4.341l-0.484,3.93c0.381-0.075,0.739-0.197,1.05-0.341
			c0.126,0.097,0.208,0.231,0.242,0.4c-0.392,0.451-1.199,0.978-1.719,0.978c-0.323,0-0.427-0.466-0.473-1.098
			c-0.692,0.693-1.442,1.146-2.054,1.146c-0.519,0-0.819-0.368-0.934-0.88c-0.093-0.415-0.127-0.891-0.127-1.328
			c0-1.966,0.934-3.916,2.618-3.916c0.6,0,1.419,0.171,2.007,0.461C29.816,3.927,29.783,4.11,29.747,4.341L29.747,4.341z
			 M28.374,7.601l0.405-3.293c-0.381-0.161-0.751-0.258-1.097-0.258c-0.265,0-0.45,0.039-0.61,0.11
			c-0.44,0.415-0.842,1.43-0.842,2.635c0,0.866,0.115,1.466,0.322,1.684C27.083,8.477,27.717,8.101,28.374,7.601L28.374,7.601z"/>
		<path id="Fill-7_1_" fill="#676967" d="M36.806,4.537C36.529,4.28,36.115,4.11,35.711,4.11c-0.139,0-0.277,0.026-0.404,0.061
			c-0.496,0.415-0.923,1.305-0.923,2.256c0,0.88,0.219,1.684,0.542,2.05c0.611-0.071,1.176-0.254,1.984-0.61
			c0.116,0.112,0.184,0.244,0.207,0.427c-0.957,0.637-1.857,1.063-2.527,1.063c-0.438,0-0.784-0.332-0.969-0.829
			c-0.149-0.427-0.218-1.002-0.218-1.551c0-2.304,1.36-3.708,2.849-3.708c0.703,0,1.095,0.22,1.282,0.476
			C37.637,3.878,37.188,4.404,36.806,4.537"/>
		<path id="Fill-8_1_" fill="#676967" d="M42.448,4.341l-0.485,3.93c0.381-0.075,0.738-0.197,1.049-0.341
			c0.126,0.097,0.208,0.231,0.242,0.4c-0.392,0.451-1.199,0.978-1.718,0.978c-0.323,0-0.427-0.466-0.474-1.098
			c-0.691,0.693-1.441,1.146-2.053,1.146c-0.52,0-0.818-0.368-0.934-0.88c-0.093-0.415-0.127-0.891-0.127-1.328
			c0-1.966,0.934-3.916,2.619-3.916c0.6,0,1.42,0.171,2.007,0.461C42.515,3.927,42.482,4.11,42.448,4.341L42.448,4.341z
			 M41.075,7.601l0.404-3.293c-0.381-0.161-0.75-0.258-1.096-0.258c-0.265,0-0.45,0.039-0.611,0.11
			c-0.438,0.415-0.842,1.43-0.842,2.635c0,0.866,0.116,1.466,0.323,1.684C39.783,8.477,40.417,8.101,41.075,7.601L41.075,7.601z"/>
		<path id="Fill-9_1_" fill="#676967" d="M43.635,8.624c0-0.256,0.185-0.574,0.345-0.745c0.52,0.439,0.924,0.598,1.443,0.598
			c0.195,0,0.415-0.049,0.588-0.159c0.068-0.122,0.138-0.366,0.138-0.623c0-0.485-0.507-0.89-0.958-1.232
			c-0.531-0.4-1.016-0.866-1.016-1.5c0-0.854,0.924-1.696,1.824-1.696c0.703,0,1.361,0.244,1.361,0.549
			c0,0.305-0.15,0.646-0.438,0.817c-0.301-0.305-0.704-0.524-1.142-0.524c-0.139,0-0.301,0.026-0.473,0.098
			c-0.07,0.109-0.15,0.269-0.15,0.488c0,0.415,0.427,0.769,0.911,1.135c0.612,0.463,1.062,0.939,1.062,1.612
			c0,0.791-0.749,1.877-2.006,1.877c-0.624,0-0.923-0.098-1.257-0.293C43.704,8.931,43.635,8.782,43.635,8.624"/>
		<path id="Fill-10" fill="#676967" d="M52.621,4.341l-0.484,3.93c0.379-0.075,0.738-0.197,1.049-0.341
			c0.126,0.097,0.208,0.231,0.242,0.4c-0.392,0.451-1.2,0.978-1.718,0.978c-0.324,0-0.428-0.466-0.473-1.098
			c-0.693,0.693-1.442,1.146-2.053,1.146c-0.519,0-0.819-0.368-0.936-0.88c-0.091-0.415-0.125-0.891-0.125-1.328
			c0-1.966,0.934-3.916,2.618-3.916c0.601,0,1.419,0.171,2.007,0.461C52.689,3.927,52.655,4.11,52.621,4.341L52.621,4.341z
			 M51.248,7.601l0.404-3.293c-0.381-0.161-0.75-0.258-1.096-0.258c-0.265,0-0.45,0.039-0.612,0.11
			c-0.438,0.415-0.841,1.43-0.841,2.635c0,0.866,0.116,1.466,0.322,1.684C49.957,8.477,50.59,8.101,51.248,7.601L51.248,7.601z"/>
		<path id="Fill-11" fill="#676967" d="M57.177,4.208c-0.335-0.071-0.646-0.11-0.98-0.11c-0.046-0.122-0.046-0.281,0-0.437
			c0.381-0.234,0.865-0.38,1.315-0.38c0.45,0,0.658,0.281,0.658,0.756c0,0.1-0.012,0.183-0.023,0.305
			c-0.012,0.049-0.012,0.088-0.012,0.122c0.543-0.705,1.13-1.268,1.661-1.268c0.45,0,0.729,0.548,0.729,0.841
			c0,0.222-0.37,0.612-0.716,0.72c-0.127-0.193-0.3-0.376-0.52-0.571c-0.519,0.339-0.899,0.708-1.268,1.181
			c-0.15,1.159-0.3,2.403-0.427,3.537c-0.024,0.222-0.531,0.344-1.028,0.293l-0.091-0.096c0.253-1.393,0.449-2.674,0.599-3.964
			L57.177,4.208"/>
		<path id="Fill-12" fill="#676967" d="M66.267,7.93c0.126,0.097,0.207,0.231,0.242,0.4c-0.392,0.451-1.201,0.978-1.719,0.978
			c-0.301,0-0.416-0.417-0.461-0.978c-0.739,0.634-1.442,1.026-2.02,1.026c-0.703,0-1.026-0.548-1.026-1.209
			c0-0.659,0.186-1.792,0.612-3.94c-0.335-0.071-0.657-0.11-0.992-0.11c-0.047-0.122-0.047-0.281,0-0.437
			c0.379-0.234,0.876-0.38,1.325-0.38c0.451,0,0.669,0.281,0.669,0.769c0,0.122-0.011,0.244-0.022,0.317
			c-0.277,1.381-0.588,3.015-0.588,3.367c0,0.39,0.035,0.683,0.241,0.795c0.565-0.074,1.155-0.393,1.788-0.842
			c0.163-1.295,0.346-2.82,0.474-4.052c0.023-0.22,0.553-0.339,0.957-0.29l0.093,0.095c-0.208,1.417-0.416,2.977-0.623,4.833
			C65.597,8.196,65.956,8.074,66.267,7.93"/>
		<path id="Fill-13" fill="#676967" d="M68.053,4.208c-0.333-0.071-0.645-0.11-0.979-0.11c-0.046-0.122-0.046-0.281,0-0.437
			c0.381-0.234,0.866-0.38,1.316-0.38s0.658,0.281,0.658,0.756c0,0.1-0.012,0.183-0.024,0.305c-0.01,0.049-0.01,0.088-0.01,0.122
			c0.541-0.705,1.13-1.268,1.66-1.268c0.45,0,0.728,0.548,0.728,0.841c0,0.222-0.368,0.612-0.716,0.72
			c-0.127-0.193-0.299-0.376-0.519-0.571c-0.52,0.339-0.899,0.708-1.269,1.181c-0.15,1.159-0.3,2.403-0.426,3.537
			c-0.023,0.222-0.53,0.344-1.026,0.293L67.35,9.101c0.255-1.393,0.451-2.674,0.601-3.964L68.053,4.208"/>
		<path id="Fill-14" fill="#676967" d="M76.002,4.341l-0.484,3.93c0.381-0.075,0.738-0.197,1.051-0.341
			c0.126,0.097,0.206,0.231,0.241,0.4c-0.392,0.451-1.2,0.978-1.718,0.978c-0.325,0-0.429-0.466-0.473-1.098
			c-0.693,0.693-1.443,1.146-2.056,1.146c-0.518,0-0.818-0.368-0.934-0.88c-0.092-0.415-0.126-0.891-0.126-1.328
			c0-1.966,0.934-3.916,2.617-3.916c0.6,0,1.419,0.171,2.008,0.461C76.071,3.927,76.037,4.11,76.002,4.341L76.002,4.341z
			 M74.629,7.601l0.404-3.293c-0.381-0.161-0.75-0.258-1.097-0.258c-0.265,0-0.448,0.039-0.61,0.11
			c-0.439,0.415-0.842,1.43-0.842,2.635c0,0.866,0.115,1.466,0.321,1.684C73.338,8.477,73.972,8.101,74.629,7.601L74.629,7.601z"/>
		<path id="Fill-15" fill="#676967" d="M78.666,8.271c0.381-0.075,0.738-0.197,1.051-0.341c0.125,0.097,0.206,0.231,0.241,0.4
			c-0.393,0.451-1.2,0.978-1.719,0.978c-0.461,0-0.611-0.358-0.611-0.758c0-0.122,0.022-0.354,0.058-0.62l0.924-7.114
			c-0.337-0.073-0.658-0.107-0.994-0.107c-0.045-0.122-0.045-0.282,0-0.441c0.381-0.232,0.866-0.378,1.316-0.378
			c0.449,0,0.657,0.283,0.657,0.756c0,0.098-0.012,0.197-0.023,0.317L78.666,8.271"/>
		<path id="Fill-16" fill="#676967" d="M87.341,4.341l-0.485,3.93c0.381-0.075,0.739-0.197,1.051-0.341
			c0.125,0.097,0.207,0.231,0.24,0.4c-0.392,0.451-1.197,0.978-1.718,0.978c-0.321,0-0.427-0.466-0.473-1.098
			c-0.691,0.693-1.442,1.146-2.054,1.146c-0.52,0-0.818-0.368-0.934-0.88c-0.093-0.415-0.127-0.891-0.127-1.328
			c0-1.966,0.934-3.916,2.618-3.916c0.601,0,1.419,0.171,2.007,0.461C87.408,3.927,87.375,4.11,87.341,4.341L87.341,4.341z
			 M85.967,7.601l0.404-3.293c-0.381-0.161-0.75-0.258-1.096-0.258c-0.266,0-0.45,0.039-0.611,0.11
			c-0.438,0.415-0.842,1.43-0.842,2.635c0,0.866,0.115,1.466,0.322,1.684C84.676,8.477,85.311,8.101,85.967,7.601L85.967,7.601z"/>
		<path id="Fill-17" fill="#676967" d="M96.545,3.329c-0.208,0.049-0.393,0.049-0.578-0.073c0.035-0.476,0.035-0.952,0.035-1.477
			c-0.357-0.073-0.865-0.096-1.279-0.096c-0.449,0-0.958,0.12-1.374,0.352C92.6,2.88,92.115,3.99,92.115,5.405
			c0,1.537,0.554,3.023,2.168,3.023c0.635,0,1.258-0.256,1.916-0.62c0.173,0.122,0.254,0.303,0.254,0.522
			c-0.784,0.62-1.744,1.049-2.631,1.049c-1.812,0-2.756-1.61-2.756-3.501c0-2.61,1.533-5.074,3.99-5.074
			c0.899,0,1.441,0.134,2.054,0.317C97.006,1.987,96.811,2.61,96.545,3.329"/>
		<path id="Fill-18" fill="#676967" d="M102,4.341l-0.483,3.93c0.38-0.075,0.738-0.197,1.05-0.341
			c0.127,0.097,0.207,0.231,0.242,0.4c-0.393,0.451-1.2,0.978-1.719,0.978c-0.323,0-0.427-0.466-0.475-1.098
			c-0.691,0.693-1.44,1.146-2.052,1.146c-0.519,0-0.819-0.368-0.933-0.88c-0.094-0.415-0.129-0.891-0.129-1.328
			c0-1.966,0.935-3.916,2.619-3.916c0.6,0,1.418,0.171,2.006,0.461C102.07,3.927,102.037,4.11,102,4.341L102,4.341z M100.629,7.601
			l0.402-3.293c-0.381-0.161-0.749-0.258-1.096-0.258c-0.265,0-0.449,0.039-0.611,0.11c-0.438,0.415-0.841,1.43-0.841,2.635
			c0,0.866,0.114,1.466,0.322,1.684C99.338,8.477,99.971,8.101,100.629,7.601L100.629,7.601z"/>
		<path id="Fill-19" fill="#676967" d="M104.389,3.404l0.173-1.576c0.022-0.22,0.587-0.339,1.05-0.291l0.092,0.095
			c-0.127,0.622-0.23,1.196-0.311,1.771c0.576,0,1.084,0.022,1.568,0.083c0,0.282-0.035,0.514-0.139,0.72h-1.546
			c0,0.051-0.011,0.1-0.011,0.134l-0.485,3.93c0.532-0.124,1.026-0.319,1.466-0.563c0.127,0.1,0.207,0.231,0.242,0.402
			c-0.486,0.549-1.488,1.198-2.135,1.198c-0.461,0-0.611-0.358-0.611-0.758c0-0.122,0.023-0.34,0.069-0.61
			c0.149-0.998,0.255-1.793,0.381-2.803l0.103-0.929h-1.014c0-0.33,0.021-0.803,0.23-0.803H104.389"/>
		<path id="Fill-20" fill="#676967" d="M111.851,4.341l-0.483,3.93c0.379-0.075,0.738-0.197,1.049-0.341
			c0.127,0.097,0.207,0.231,0.242,0.4c-0.392,0.451-1.199,0.978-1.718,0.978c-0.324,0-0.428-0.466-0.474-1.098
			c-0.691,0.693-1.442,1.146-2.054,1.146c-0.519,0-0.819-0.368-0.935-0.88c-0.091-0.415-0.125-0.891-0.125-1.328
			c0-1.966,0.934-3.916,2.617-3.916c0.6,0,1.418,0.171,2.007,0.461C111.92,3.927,111.887,4.11,111.851,4.341L111.851,4.341z
			 M110.479,7.601l0.403-3.293c-0.381-0.161-0.75-0.258-1.096-0.258c-0.265,0-0.449,0.039-0.61,0.11
			c-0.439,0.415-0.842,1.43-0.842,2.635c0,0.866,0.115,1.466,0.321,1.684C109.188,8.477,109.82,8.101,110.479,7.601L110.479,7.601z"
			/>
		<path id="Fill-21" fill="#676967" d="M114.516,8.271c0.381-0.075,0.738-0.197,1.051-0.341c0.127,0.097,0.207,0.231,0.242,0.4
			c-0.393,0.451-1.2,0.978-1.719,0.978c-0.462,0-0.611-0.358-0.611-0.758c0-0.122,0.022-0.354,0.057-0.62l0.924-7.114
			c-0.335-0.073-0.658-0.107-0.992-0.107c-0.047-0.122-0.047-0.282,0-0.441c0.381-0.232,0.865-0.378,1.314-0.378
			s0.658,0.283,0.658,0.756c0,0.098-0.012,0.197-0.023,0.317L114.516,8.271"/>
		<path id="Fill-22" fill="#676967" d="M121.783,7.93c0.127,0.097,0.207,0.231,0.242,0.4c-0.393,0.451-1.201,0.978-1.719,0.978
			c-0.301,0-0.416-0.417-0.462-0.978c-0.737,0.634-1.441,1.026-2.019,1.026c-0.704,0-1.026-0.548-1.026-1.209
			c0-0.659,0.185-1.792,0.612-3.94c-0.336-0.071-0.658-0.11-0.993-0.11c-0.048-0.122-0.048-0.281,0-0.437
			c0.381-0.234,0.877-0.38,1.325-0.38c0.451,0,0.67,0.281,0.67,0.769c0,0.122-0.011,0.244-0.023,0.317
			c-0.275,1.381-0.587,3.015-0.587,3.367c0,0.39,0.034,0.683,0.241,0.795c0.564-0.074,1.154-0.393,1.788-0.842
			c0.162-1.295,0.346-2.82,0.474-4.052c0.021-0.22,0.553-0.339,0.956-0.29l0.093,0.095c-0.207,1.417-0.415,2.977-0.622,4.833
			C121.113,8.196,121.472,8.074,121.783,7.93"/>
		<path id="Fill-23" fill="#676967" d="M123.57,4.208c-0.334-0.071-0.646-0.11-0.98-0.11c-0.047-0.122-0.047-0.281,0-0.437
			c0.381-0.234,0.865-0.38,1.314-0.38c0.45,0,0.658,0.281,0.658,0.756c0,0.085-0.012,0.161-0.023,0.244
			c0.762-0.646,1.488-1.047,2.088-1.047c0.703,0,1.027,0.549,1.027,1.196c0,0.815-0.301,2.34-0.623,3.842
			c0.381-0.075,0.762-0.197,1.072-0.341c0.127,0.097,0.208,0.231,0.242,0.4c-0.393,0.451-1.199,0.978-1.719,0.978
			c-0.427,0-0.587-0.358-0.587-0.758c0-0.122,0.011-0.256,0.033-0.389c0.277-1.368,0.577-2.966,0.577-3.318
			c0-0.38-0.035-0.673-0.242-0.783c-0.623,0.075-1.258,0.415-1.949,0.927c-0.162,1.259-0.324,2.647-0.473,3.915
			c-0.023,0.222-0.531,0.344-1.027,0.293l-0.093-0.096c0.254-1.393,0.45-2.674,0.601-3.964L123.57,4.208"/>
		<path id="Fill-24" fill="#676967" d="M130.965,9.418c-0.877,1.047-1.43,1.977-1.857,2.962l-0.104,0.085
			c-0.403-0.034-0.829-0.339-0.829-0.607c0-0.344,0.98-1.625,1.891-2.428V8.538c0-1.671-0.115-3.011-0.646-4.258
			c-0.347,0.037-0.635,0.076-0.911,0.135c-0.104-0.059-0.174-0.244-0.174-0.401c0.335-0.429,1.038-0.746,1.419-0.746
			c0.288,0,0.52,0.209,0.681,0.525c0.289,0.573,0.485,1.866,0.485,3.112c0,0.537-0.013,1.06-0.046,1.511h0.021
			c1.131-1.342,1.546-2.745,1.546-4.402c0-0.209-0.022-0.429-0.058-0.636l0.094-0.098c0.414,0,0.887,0.098,0.968,0.391
			c0.069,0.233,0.093,0.451,0.093,0.695C133.537,5.854,132.545,7.525,130.965,9.418"/>
		<path id="Fill-25" fill="#676967" d="M138.717,4.341l-0.484,3.93c0.379-0.075,0.738-0.197,1.049-0.341
			c0.126,0.097,0.207,0.231,0.241,0.4c-0.392,0.451-1.198,0.978-1.718,0.978c-0.322,0-0.428-0.466-0.473-1.098
			c-0.693,0.693-1.441,1.146-2.055,1.146c-0.518,0-0.818-0.368-0.934-0.88c-0.092-0.415-0.127-0.891-0.127-1.328
			c0-1.966,0.934-3.916,2.619-3.916c0.6,0,1.418,0.171,2.006,0.461C138.785,3.927,138.751,4.11,138.717,4.341L138.717,4.341z
			 M137.343,7.601l0.403-3.293c-0.381-0.161-0.75-0.258-1.096-0.258c-0.264,0-0.449,0.039-0.611,0.11
			c-0.438,0.415-0.842,1.43-0.842,2.635c0,0.866,0.115,1.466,0.322,1.684C136.051,8.477,136.686,8.101,137.343,7.601L137.343,7.601z
			"/>
	</g>
</g>
<g id="logo-negativo" transform="translate(8.000000, 83.000000)" sketch:type="MSLayerGroup">
	<g id="logo-som-rurals-3_1_" sketch:type="MSShapeGroup">
		<path id="Fill-1_2_" fill="#FFFFFF" d="M0.076,23.416c0-1.607,0.19-3.212,0.632-4.818c0.949-0.283,1.771-0.25,2.72,0
			c0.031,0.911,0.158,1.889,0.285,2.707c0.412,0.19,1.36,0.349,2.183,0.349c1.834,0,2.119-0.537,2.119-1.482
			c0-1.006-0.917-1.48-2.31-1.982c-2.561-0.915-5.06-1.826-5.06-4.849c0-3.684,3.321-4.943,6.136-4.943
			c2.15,0,4.112,0.188,5.567,0.598c0,1.67-0.285,3.308-0.632,4.502c-0.949,0.253-1.93,0.221-2.689-0.062
			c-0.096-0.755-0.253-1.605-0.538-2.33c-0.379-0.158-0.79-0.221-1.359-0.221c-2.182,0-2.182,0.757-2.182,1.291
			c0,2.486,7.59,2.077,7.59,6.926c0,3.591-2.876,5.225-6.736,5.225C3.303,24.326,1.278,23.92,0.076,23.416"/>
		<path id="Fill-2_2_" fill="#FFFFFF" d="M28.986,16.112c0,3.901-2.879,8.311-7.844,8.311c-4.999,0-7.434-3.273-7.434-7.808
			c0-3.905,2.879-8.311,7.845-8.311C26.645,8.304,28.986,11.673,28.986,16.112L28.986,16.112z M23.197,20.897
			c0.664-0.852,1.139-2.332,1.139-4c0-2.328-0.854-5.543-3.257-5.543c-0.508,0-1.329,0.128-1.582,0.474
			c-0.665,0.85-1.139,2.33-1.139,4c0,2.329,0.854,5.54,3.257,5.54C22.122,21.368,22.945,21.242,23.197,20.897L23.197,20.897z"/>
		<path id="Fill-3_2_" fill="#FFFFFF" d="M41.165,15.04c0-2.047-0.286-3.557-1.994-3.557c-0.854,0-1.644,0.251-2.373,0.629v6.865
			c0,0.848,0.033,1.604,0.096,2.36c0.568,0.126,1.169,0.345,1.55,0.567c0,0.692-0.063,1.7-0.159,2.109
			c-0.695-0.033-2.593-0.064-3.668-0.064c-2.215,0-3.607,0.064-4.808,0.064c-0.127-0.378-0.221-1.354-0.221-2.109
			c0.885-0.095,1.897-0.316,2.53-0.536c0.094-0.693,0.125-1.132,0.125-1.762v-7.715c-0.821-0.251-1.675-0.409-2.497-0.504
			c-0.223-0.598-0.286-1.29-0.127-1.919c1.803-0.629,3.764-1.008,5.82-1.135l0.506,0.253c0.127,0.316,0.316,0.82,0.474,1.352
			c1.265-0.943,2.688-1.634,4.427-1.634c1.615,0,3.163,0.626,4.081,1.982c1.359-1.133,2.91-1.982,4.839-1.982
			c2.531,0,4.872,1.51,4.872,4.909v5.764c0,0.848,0.032,1.604,0.095,2.36c0.822,0.096,1.803,0.316,2.373,0.567
			c0,0.692-0.064,1.7-0.222,2.109c-0.823-0.033-3.164-0.064-4.429-0.064c-1.803,0-2.909,0.064-3.921,0.064
			c-0.097-0.378-0.158-1.354-0.158-2.109c0.537-0.127,1.138-0.316,1.581-0.536c0.095-0.693,0.125-1.132,0.125-1.762V15.04
			c0-2.047-0.283-3.557-1.991-3.557c-0.886,0-1.708,0.281-2.467,0.692c0.063,0.314,0.095,0.662,0.095,1.039v5.764
			c0,0.848,0.032,1.604,0.095,2.36c0.538,0.126,1.171,0.345,1.55,0.567c0,0.692-0.064,1.7-0.191,2.109
			c-0.663-0.033-2.592-0.064-3.636-0.064c-1.803,0-2.91,0.064-3.922,0.064c-0.094-0.378-0.159-1.354-0.159-2.109
			c0.538-0.127,1.139-0.316,1.583-0.536c0.095-0.693,0.127-1.132,0.127-1.762V15.04"/>
		<path id="Fill-4_2_" fill="#FFFFFF" d="M64.128,8.586c0.223,0.536,0.602,1.668,0.824,2.519c1.012-1.448,2.466-2.707,4.459-2.707
			c1.234,0,2.119,0.188,2.94,0.504c0,2.265-0.126,4.282-0.632,5.98c-0.916,0.346-2.024,0.346-2.878,0
			c-0.094-0.913-0.285-2.329-0.474-3.085c-0.191-0.033-0.349-0.033-0.538-0.033c-0.791,0-1.898,0.725-2.847,2.3v4.913
			c0,0.848,0.031,1.604,0.096,2.36c1.328,0.096,2.845,0.316,3.731,0.567c0,0.692-0.094,1.7-0.252,2.109
			c-1.106-0.033-4.048-0.064-5.755-0.064c-2.216,0-3.607,0.064-4.808,0.064c-0.126-0.378-0.221-1.354-0.221-2.109
			c0.884-0.095,1.897-0.316,2.53-0.536c0.095-0.693,0.126-1.132,0.126-1.762v-7.715c-0.821-0.251-1.676-0.409-2.499-0.504
			c-0.253-0.627-0.315-1.32-0.127-1.919c1.804-0.629,3.765-1.008,5.819-1.135L64.128,8.586"/>
		<path id="Fill-5_2_" fill="#FFFFFF" d="M76.021,11.515c-0.728-0.318-1.613-0.569-2.466-0.692c0-0.915,0.095-1.67,0.222-2.111
			c1.232,0,2.593,0.064,4.902,0.064h1.582l0.379,0.377c-0.063,2.834-0.063,6.456-0.063,8.219c0,2.611,0.728,3.715,1.866,3.715
			c0.917,0,1.898-0.725,2.814-1.577v-7.994c-0.695-0.318-1.518-0.569-2.309-0.692c0-0.915,0.096-1.67,0.222-2.111
			c1.201,0,2.531,0.064,4.776,0.064h1.55l0.38,0.377c-0.063,2.362-0.063,4.848-0.063,7.871v1.954c0,0.597,0.031,1.479,0.063,2.172
			c0.727-0.063,1.36-0.19,2.023-0.349c0.38,0.286,0.634,0.756,0.634,1.356c-1.139,1.194-2.909,2.266-4.618,2.266
			c-0.918,0-1.74-0.946-2.214-2.266c-1.233,1.259-2.784,2.266-4.903,2.266c-2.879,0-4.776-1.764-4.776-5.167V11.515"/>
		<path id="Fill-6_2_" fill="#FFFFFF" d="M99.555,8.586c0.221,0.536,0.601,1.668,0.822,2.519c1.012-1.448,2.467-2.707,4.459-2.707
			c1.233,0,2.119,0.188,2.941,0.504c0,2.265-0.125,4.282-0.632,5.98c-0.917,0.346-2.024,0.346-2.878,0
			c-0.096-0.913-0.285-2.329-0.475-3.085c-0.189-0.033-0.348-0.033-0.539-0.033c-0.789,0-1.896,0.725-2.846,2.3v4.913
			c0,0.848,0.033,1.604,0.095,2.36c1.329,0.096,2.847,0.316,3.733,0.567c0,0.692-0.096,1.7-0.254,2.109
			c-1.107-0.033-4.049-0.064-5.758-0.064c-2.213,0-3.604,0.064-4.807,0.064c-0.127-0.378-0.221-1.354-0.221-2.109
			c0.885-0.095,1.896-0.316,2.529-0.536c0.095-0.693,0.127-1.132,0.127-1.762v-7.715c-0.822-0.251-1.678-0.409-2.498-0.504
			c-0.252-0.627-0.317-1.32-0.127-1.919c1.803-0.629,3.764-1.008,5.82-1.135L99.555,8.586"/>
		<path id="Fill-7_2_" fill="#FFFFFF" d="M116.889,14.191c-0.064-1.858-0.537-3.18-1.93-3.18c-0.602,0-1.297,0.03-1.898,0.124
			c-0.223,0.757-0.254,1.575-0.254,2.362c-0.947,0.443-1.834,0.599-2.781,0.378c-0.664-0.943-1.044-2.235-1.044-3.777
			c1.897-1.103,4.428-1.794,6.958-1.794c2.024,0,5.535,0.723,5.535,5.13v5.542c0,0.597,0.032,1.479,0.063,2.172
			c0.728-0.063,1.36-0.19,2.022-0.349c0.381,0.286,0.633,0.756,0.633,1.356c-1.137,1.194-2.908,2.266-4.617,2.266
			c-0.822,0-1.612-0.788-2.119-1.952c-1.422,1.101-3.162,1.952-4.68,1.952c-2.942,0-4.493-1.354-4.493-3.966
			C108.284,17.056,113.282,15.072,116.889,14.191L116.889,14.191z M116.92,20.392v-3.336c-1.582,0.187-3.1,0.504-3.385,0.723
			c-0.379,0.283-0.602,1.073-0.602,1.575c0,0.943,0.665,1.826,1.93,1.826C115.465,21.179,116.192,20.833,116.92,20.392
			L116.92,20.392z"/>
		<path id="Fill-8_2_" fill="#FFFFFF" d="M132.418,18.977c0,0.848,0.033,1.604,0.096,2.36c0.854,0.096,1.803,0.316,2.372,0.567
			c0,0.692-0.062,1.7-0.188,2.109c-0.855-0.033-3.133-0.064-4.557-0.064c-2.119,0-3.51,0.064-4.712,0.064
			c-0.127-0.378-0.222-1.354-0.222-2.109c0.886-0.095,1.898-0.316,2.531-0.536c0.094-0.693,0.127-1.132,0.127-1.762V3.455
			c-0.824-0.219-1.678-0.409-2.5-0.504c-0.189-0.629-0.254-1.259-0.127-1.921c2.278-0.786,4.586-1.102,6.928-1.165l0.38,0.379
			c-0.095,3.147-0.128,5.604-0.128,9.067V18.977"/>
		<path id="Fill-9_2_" fill="#FFFFFF" d="M136.246,23.416c0-1.607,0.189-3.212,0.632-4.818c0.948-0.283,1.771-0.25,2.72,0
			c0.033,0.911,0.16,1.889,0.286,2.707c0.411,0.19,1.359,0.349,2.183,0.349c1.833,0,2.119-0.537,2.119-1.482
			c0-1.006-0.918-1.48-2.31-1.982c-2.562-0.915-5.062-1.826-5.062-4.849c0-3.684,3.322-4.943,6.137-4.943
			c2.15,0,4.111,0.188,5.566,0.598c0,1.67-0.284,3.308-0.632,4.502c-0.95,0.253-1.929,0.221-2.688-0.062
			c-0.096-0.755-0.252-1.605-0.538-2.33c-0.38-0.158-0.792-0.221-1.359-0.221c-2.183,0-2.183,0.757-2.183,1.291
			c0,2.486,7.592,2.077,7.592,6.926c0,3.591-2.879,5.225-6.739,5.225C139.472,24.326,137.447,23.92,136.246,23.416"/>
	</g>
	<g id="subtitulo-3_1_" transform="translate(5.000000, 31.000000)" sketch:type="MSShapeGroup">
		<path id="Fill-1_3_" fill="#FFFFFF" d="M1.003,8.271c0.38-0.075,0.738-0.197,1.049-0.342c0.126,0.098,0.208,0.232,0.243,0.4
			c-0.393,0.451-1.2,0.979-1.719,0.979c-0.461,0-0.611-0.357-0.611-0.758c0-0.123,0.023-0.354,0.057-0.621l0.924-7.114
			C0.611,0.743,0.288,0.708-0.047,0.708c-0.045-0.122-0.045-0.282,0-0.441c0.382-0.232,0.866-0.378,1.316-0.378
			c0.449,0,0.658,0.283,0.658,0.756c0,0.098-0.012,0.197-0.023,0.317L1.003,8.271"/>
		<path id="Fill-2_3_" fill="#FFFFFF" d="M7.417,4.342l-0.484,3.93C7.313,8.196,7.67,8.074,7.982,7.93
			c0.126,0.098,0.208,0.232,0.241,0.4C7.832,8.781,7.025,9.309,6.505,9.309c-0.322,0-0.427-0.466-0.474-1.098
			C5.34,8.903,4.591,9.357,3.979,9.357c-0.52,0-0.819-0.368-0.934-0.881C2.953,8.062,2.917,7.586,2.917,7.149
			c0-1.966,0.935-3.916,2.619-3.916c0.601,0,1.418,0.171,2.007,0.462C7.485,3.927,7.453,4.109,7.417,4.342L7.417,4.342z
			 M6.044,7.601l0.404-3.294c-0.381-0.16-0.75-0.258-1.097-0.258c-0.265,0-0.45,0.039-0.611,0.109
			c-0.439,0.415-0.842,1.43-0.842,2.635c0,0.867,0.115,1.467,0.323,1.684C4.752,8.477,5.387,8.101,6.044,7.601L6.044,7.601z"/>
		<path id="Fill-3_3_" fill="#FFFFFF" d="M12.064,3.404l0.174-1.576c0.022-0.219,0.588-0.339,1.049-0.29l0.092,0.095
			c-0.126,0.623-0.231,1.196-0.312,1.771c0.577,0,1.085,0.022,1.57,0.084c0,0.281-0.035,0.514-0.139,0.719h-1.547
			c0,0.051-0.01,0.1-0.01,0.135l-0.486,3.93c0.532-0.123,1.026-0.319,1.466-0.562c0.126,0.1,0.208,0.23,0.242,0.402
			C13.68,8.66,12.676,9.309,12.03,9.309c-0.46,0-0.611-0.357-0.611-0.758c0-0.123,0.023-0.34,0.07-0.611
			c0.148-0.998,0.253-1.793,0.379-2.803l0.104-0.93h-1.015c0-0.329,0.023-0.803,0.23-0.803H12.064"/>
		<path id="Fill-4_3_" fill="#FFFFFF" d="M16.021,6.879c0.058,0.695,0.265,1.305,0.53,1.598c0.703-0.109,1.372-0.342,2.319-0.829
			c0.116,0.109,0.183,0.244,0.208,0.427c-1.085,0.783-2.1,1.283-2.862,1.283c-0.438,0-0.784-0.332-0.968-0.83
			c-0.15-0.427-0.22-1.002-0.22-1.551c0-2.328,1.316-3.743,2.758-3.743c0.911,0,1.361,0.757,1.361,1.815
			C19.147,5.576,17.681,6.308,16.021,6.879L16.021,6.879z M16.01,6.21c0.934-0.368,1.615-0.733,2.087-1.087
			c0-0.572-0.241-1.099-0.727-1.099c-0.161,0-0.323,0.036-0.496,0.112C16.448,4.524,16.067,5.318,16.01,6.21L16.01,6.21z"/>
		<path id="Fill-5_3_" fill="#FFFFFF" d="M23.507,3.28c0.427,0,0.887,0.098,0.969,0.391c0.07,0.233,0.092,0.451,0.092,0.694
			c0,1.367-1.153,3.138-2.641,4.673c-0.081,0.087-0.334,0.171-0.576,0.171c-0.139,0-0.243-0.022-0.243-0.084V8.283
			c0-1.635-0.081-2.819-0.589-4.003c-0.346,0.036-0.634,0.075-0.91,0.135c-0.104-0.06-0.175-0.244-0.175-0.401
			c0.335-0.428,1.039-0.746,1.42-0.746c0.289,0,0.519,0.21,0.68,0.525c0.277,0.536,0.462,1.744,0.462,2.915
			c0,0.476-0.013,0.939-0.058,1.342h0.023c1.095-1.231,1.511-2.513,1.511-4.036c0-0.209-0.012-0.428-0.058-0.636L23.507,3.28"/>
		<path id="Fill-6_3_" fill="#FFFFFF" d="M29.747,4.342l-0.484,3.93c0.381-0.075,0.739-0.197,1.05-0.342
			c0.126,0.098,0.208,0.232,0.242,0.4c-0.392,0.451-1.199,0.979-1.719,0.979c-0.323,0-0.427-0.466-0.473-1.098
			c-0.692,0.692-1.442,1.146-2.054,1.146c-0.519,0-0.819-0.368-0.934-0.881c-0.093-0.414-0.127-0.891-0.127-1.327
			c0-1.966,0.934-3.916,2.618-3.916c0.6,0,1.419,0.171,2.007,0.462C29.816,3.927,29.783,4.109,29.747,4.342L29.747,4.342z
			 M28.374,7.601l0.405-3.294c-0.381-0.16-0.751-0.258-1.097-0.258c-0.265,0-0.45,0.039-0.61,0.109
			c-0.44,0.415-0.842,1.43-0.842,2.635c0,0.867,0.115,1.467,0.322,1.684C27.083,8.477,27.717,8.101,28.374,7.601L28.374,7.601z"/>
		<path id="Fill-7_3_" fill="#FFFFFF" d="M36.806,4.537c-0.277-0.257-0.691-0.428-1.095-0.428c-0.139,0-0.277,0.027-0.404,0.062
			c-0.496,0.415-0.923,1.306-0.923,2.257c0,0.88,0.219,1.684,0.542,2.049c0.611-0.07,1.176-0.254,1.984-0.609
			c0.116,0.111,0.184,0.244,0.207,0.427c-0.957,0.637-1.857,1.063-2.527,1.063c-0.438,0-0.784-0.332-0.969-0.83
			c-0.149-0.427-0.218-1.002-0.218-1.551c0-2.304,1.36-3.709,2.849-3.709c0.703,0,1.095,0.221,1.282,0.477
			C37.637,3.878,37.188,4.404,36.806,4.537"/>
		<path id="Fill-8_3_" fill="#FFFFFF" d="M42.448,4.342l-0.485,3.93c0.381-0.075,0.738-0.197,1.049-0.342
			c0.126,0.098,0.208,0.232,0.242,0.4c-0.392,0.451-1.199,0.979-1.718,0.979c-0.323,0-0.427-0.466-0.474-1.098
			c-0.691,0.692-1.441,1.146-2.053,1.146c-0.52,0-0.818-0.368-0.934-0.881c-0.093-0.414-0.127-0.891-0.127-1.327
			c0-1.966,0.934-3.916,2.619-3.916c0.6,0,1.42,0.171,2.007,0.462C42.515,3.927,42.482,4.109,42.448,4.342L42.448,4.342z
			 M41.075,7.601l0.404-3.294c-0.381-0.16-0.75-0.258-1.096-0.258c-0.265,0-0.45,0.039-0.611,0.109
			c-0.438,0.415-0.842,1.43-0.842,2.635c0,0.867,0.116,1.467,0.323,1.684C39.783,8.477,40.417,8.101,41.075,7.601L41.075,7.601z"/>
		<path id="Fill-9_3_" fill="#FFFFFF" d="M43.635,8.623c0-0.256,0.185-0.573,0.345-0.744c0.52,0.439,0.924,0.598,1.443,0.598
			c0.195,0,0.415-0.049,0.588-0.158c0.068-0.122,0.138-0.366,0.138-0.623c0-0.484-0.507-0.89-0.958-1.231
			c-0.531-0.4-1.016-0.866-1.016-1.5c0-0.854,0.924-1.696,1.824-1.696c0.703,0,1.361,0.244,1.361,0.549
			c0,0.306-0.15,0.646-0.438,0.818c-0.301-0.306-0.704-0.525-1.142-0.525c-0.139,0-0.301,0.027-0.473,0.098
			c-0.07,0.109-0.15,0.27-0.15,0.488c0,0.414,0.427,0.769,0.911,1.135C46.68,6.293,47.13,6.77,47.13,7.441
			c0,0.791-0.749,1.877-2.006,1.877c-0.624,0-0.923-0.098-1.257-0.293C43.704,8.931,43.635,8.781,43.635,8.623"/>
		<path id="Fill-10_1_" fill="#FFFFFF" d="M52.621,4.342l-0.484,3.93c0.379-0.075,0.738-0.197,1.049-0.342
			c0.126,0.098,0.208,0.232,0.242,0.4c-0.392,0.451-1.2,0.979-1.718,0.979c-0.324,0-0.428-0.466-0.473-1.098
			c-0.693,0.692-1.442,1.146-2.053,1.146c-0.519,0-0.819-0.368-0.936-0.881c-0.091-0.414-0.125-0.891-0.125-1.327
			c0-1.966,0.934-3.916,2.618-3.916c0.601,0,1.419,0.171,2.007,0.462C52.689,3.927,52.655,4.109,52.621,4.342L52.621,4.342z
			 M51.248,7.601l0.404-3.294c-0.381-0.16-0.75-0.258-1.096-0.258c-0.265,0-0.45,0.039-0.612,0.109
			c-0.438,0.415-0.841,1.43-0.841,2.635c0,0.867,0.116,1.467,0.322,1.684C49.957,8.477,50.59,8.101,51.248,7.601L51.248,7.601z"/>
		<path id="Fill-11_1_" fill="#FFFFFF" d="M57.177,4.207c-0.335-0.07-0.646-0.109-0.98-0.109c-0.046-0.122-0.046-0.281,0-0.438
			c0.381-0.233,0.865-0.38,1.315-0.38c0.45,0,0.658,0.28,0.658,0.757c0,0.1-0.012,0.183-0.023,0.305
			c-0.012,0.049-0.012,0.088-0.012,0.121c0.543-0.705,1.13-1.268,1.661-1.268c0.45,0,0.729,0.549,0.729,0.842
			c0,0.221-0.37,0.611-0.716,0.719c-0.127-0.192-0.3-0.375-0.52-0.57c-0.519,0.339-0.899,0.707-1.268,1.181
			c-0.15,1.159-0.3,2.403-0.427,3.537c-0.024,0.222-0.531,0.345-1.028,0.294l-0.091-0.096c0.253-1.393,0.449-2.674,0.599-3.965
			L57.177,4.207"/>
		<path id="Fill-12_1_" fill="#FFFFFF" d="M66.267,7.93c0.126,0.098,0.207,0.232,0.242,0.4c-0.392,0.451-1.201,0.979-1.719,0.979
			c-0.301,0-0.416-0.417-0.461-0.979c-0.739,0.635-1.442,1.027-2.02,1.027c-0.703,0-1.026-0.549-1.026-1.209
			s0.186-1.792,0.612-3.941c-0.335-0.07-0.657-0.109-0.992-0.109c-0.047-0.122-0.047-0.281,0-0.438
			c0.379-0.233,0.876-0.38,1.325-0.38c0.451,0,0.669,0.28,0.669,0.769c0,0.122-0.011,0.244-0.022,0.316
			c-0.277,1.381-0.588,3.016-0.588,3.367c0,0.391,0.035,0.684,0.241,0.795c0.565-0.073,1.155-0.393,1.788-0.842
			c0.163-1.295,0.346-2.819,0.474-4.052c0.023-0.22,0.553-0.339,0.957-0.29l0.093,0.096c-0.208,1.416-0.416,2.977-0.623,4.832
			C65.597,8.196,65.956,8.074,66.267,7.93"/>
		<path id="Fill-13_1_" fill="#FFFFFF" d="M68.053,4.207c-0.333-0.07-0.645-0.109-0.979-0.109c-0.046-0.122-0.046-0.281,0-0.438
			c0.381-0.233,0.866-0.38,1.316-0.38s0.658,0.28,0.658,0.757c0,0.1-0.012,0.183-0.024,0.305c-0.01,0.049-0.01,0.088-0.01,0.121
			c0.541-0.705,1.13-1.268,1.66-1.268c0.45,0,0.728,0.549,0.728,0.842c0,0.221-0.368,0.611-0.716,0.719
			c-0.127-0.192-0.299-0.375-0.519-0.57c-0.52,0.339-0.899,0.707-1.269,1.181c-0.15,1.159-0.3,2.403-0.426,3.537
			c-0.023,0.222-0.53,0.345-1.026,0.294L67.35,9.102c0.255-1.393,0.451-2.674,0.601-3.965L68.053,4.207"/>
		<path id="Fill-14_1_" fill="#FFFFFF" d="M76.002,4.342l-0.484,3.93c0.381-0.075,0.738-0.197,1.051-0.342
			c0.126,0.098,0.206,0.232,0.241,0.4c-0.392,0.451-1.2,0.979-1.718,0.979c-0.325,0-0.429-0.466-0.473-1.098
			c-0.693,0.692-1.443,1.146-2.056,1.146c-0.518,0-0.818-0.368-0.934-0.881c-0.092-0.414-0.126-0.891-0.126-1.327
			c0-1.966,0.934-3.916,2.617-3.916c0.6,0,1.419,0.171,2.008,0.462C76.071,3.927,76.037,4.109,76.002,4.342L76.002,4.342z
			 M74.629,7.601l0.404-3.294c-0.381-0.16-0.75-0.258-1.097-0.258c-0.265,0-0.448,0.039-0.61,0.109
			c-0.439,0.415-0.842,1.43-0.842,2.635c0,0.867,0.115,1.467,0.321,1.684C73.338,8.477,73.972,8.101,74.629,7.601L74.629,7.601z"/>
		<path id="Fill-15_1_" fill="#FFFFFF" d="M78.666,8.271c0.381-0.075,0.738-0.197,1.051-0.342c0.125,0.098,0.206,0.232,0.241,0.4
			c-0.393,0.451-1.2,0.979-1.719,0.979c-0.461,0-0.611-0.357-0.611-0.758c0-0.123,0.022-0.354,0.058-0.621l0.924-7.114
			c-0.337-0.073-0.658-0.107-0.994-0.107c-0.045-0.122-0.045-0.282,0-0.441c0.381-0.232,0.866-0.378,1.316-0.378
			c0.449,0,0.657,0.283,0.657,0.756c0,0.098-0.012,0.197-0.023,0.317L78.666,8.271"/>
		<path id="Fill-16_1_" fill="#FFFFFF" d="M87.341,4.342l-0.485,3.93c0.381-0.075,0.739-0.197,1.051-0.342
			c0.125,0.098,0.207,0.232,0.24,0.4c-0.392,0.451-1.197,0.979-1.718,0.979c-0.321,0-0.427-0.466-0.473-1.098
			c-0.691,0.692-1.442,1.146-2.054,1.146c-0.52,0-0.818-0.368-0.934-0.881c-0.093-0.414-0.127-0.891-0.127-1.327
			c0-1.966,0.934-3.916,2.618-3.916c0.601,0,1.419,0.171,2.007,0.462C87.408,3.927,87.375,4.109,87.341,4.342L87.341,4.342z
			 M85.967,7.601l0.404-3.294c-0.381-0.16-0.75-0.258-1.096-0.258c-0.266,0-0.45,0.039-0.611,0.109
			c-0.438,0.415-0.842,1.43-0.842,2.635c0,0.867,0.115,1.467,0.322,1.684C84.676,8.477,85.311,8.101,85.967,7.601L85.967,7.601z"/>
		<path id="Fill-17_1_" fill="#FFFFFF" d="M96.545,3.329c-0.208,0.049-0.393,0.049-0.578-0.073c0.035-0.476,0.035-0.951,0.035-1.477
			c-0.357-0.072-0.865-0.096-1.279-0.096c-0.449,0-0.958,0.121-1.374,0.353C92.6,2.88,92.115,3.99,92.115,5.404
			c0,1.537,0.554,3.023,2.168,3.023c0.635,0,1.258-0.256,1.916-0.619c0.173,0.121,0.254,0.303,0.254,0.521
			c-0.784,0.621-1.744,1.05-2.631,1.05c-1.812,0-2.756-1.61-2.756-3.501c0-2.611,1.533-5.075,3.99-5.075
			c0.899,0,1.441,0.134,2.054,0.317C97.006,1.987,96.811,2.609,96.545,3.329"/>
		<path id="Fill-18_1_" fill="#FFFFFF" d="M102,4.342l-0.483,3.93c0.38-0.075,0.738-0.197,1.05-0.342
			c0.127,0.098,0.207,0.232,0.242,0.4c-0.393,0.451-1.2,0.979-1.719,0.979c-0.323,0-0.427-0.466-0.475-1.098
			c-0.691,0.692-1.44,1.146-2.052,1.146c-0.519,0-0.819-0.368-0.933-0.881c-0.094-0.414-0.129-0.891-0.129-1.327
			c0-1.966,0.935-3.916,2.619-3.916c0.6,0,1.418,0.171,2.006,0.462C102.07,3.927,102.037,4.109,102,4.342L102,4.342z M100.629,7.601
			l0.402-3.294c-0.381-0.16-0.749-0.258-1.096-0.258c-0.265,0-0.449,0.039-0.611,0.109c-0.438,0.415-0.841,1.43-0.841,2.635
			c0,0.867,0.114,1.467,0.322,1.684C99.338,8.477,99.971,8.101,100.629,7.601L100.629,7.601z"/>
		<path id="Fill-19_1_" fill="#FFFFFF" d="M104.389,3.404l0.173-1.576c0.022-0.219,0.587-0.339,1.05-0.29l0.092,0.095
			c-0.127,0.623-0.23,1.196-0.311,1.771c0.576,0,1.084,0.022,1.568,0.084c0,0.281-0.035,0.514-0.139,0.719h-1.546
			c0,0.051-0.011,0.1-0.011,0.135l-0.485,3.93c0.532-0.123,1.026-0.319,1.466-0.562c0.127,0.1,0.207,0.23,0.242,0.402
			c-0.486,0.549-1.488,1.197-2.135,1.197c-0.461,0-0.611-0.357-0.611-0.758c0-0.123,0.023-0.34,0.069-0.611
			c0.149-0.998,0.255-1.793,0.381-2.803l0.103-0.93h-1.014c0-0.329,0.021-0.803,0.23-0.803H104.389"/>
		<path id="Fill-20_1_" fill="#FFFFFF" d="M111.851,4.342l-0.483,3.93c0.379-0.075,0.738-0.197,1.049-0.342
			c0.127,0.098,0.207,0.232,0.242,0.4c-0.392,0.451-1.199,0.979-1.718,0.979c-0.324,0-0.428-0.466-0.474-1.098
			c-0.691,0.692-1.442,1.146-2.054,1.146c-0.519,0-0.819-0.368-0.935-0.881c-0.091-0.414-0.125-0.891-0.125-1.327
			c0-1.966,0.934-3.916,2.617-3.916c0.6,0,1.418,0.171,2.007,0.462C111.92,3.927,111.887,4.109,111.851,4.342L111.851,4.342z
			 M110.479,7.601l0.403-3.294c-0.381-0.16-0.75-0.258-1.096-0.258c-0.265,0-0.449,0.039-0.61,0.109
			c-0.439,0.415-0.842,1.43-0.842,2.635c0,0.867,0.115,1.467,0.321,1.684C109.188,8.477,109.82,8.101,110.479,7.601L110.479,7.601z"
			/>
		<path id="Fill-21_1_" fill="#FFFFFF" d="M114.516,8.271c0.381-0.075,0.738-0.197,1.051-0.342c0.127,0.098,0.207,0.232,0.242,0.4
			c-0.393,0.451-1.2,0.979-1.719,0.979c-0.462,0-0.611-0.357-0.611-0.758c0-0.123,0.022-0.354,0.057-0.621l0.924-7.114
			c-0.335-0.073-0.658-0.107-0.992-0.107c-0.047-0.122-0.047-0.282,0-0.441c0.381-0.232,0.865-0.378,1.314-0.378
			s0.658,0.283,0.658,0.756c0,0.098-0.012,0.197-0.023,0.317L114.516,8.271"/>
		<path id="Fill-22_1_" fill="#FFFFFF" d="M121.783,7.93c0.127,0.098,0.207,0.232,0.242,0.4c-0.393,0.451-1.201,0.979-1.719,0.979
			c-0.301,0-0.416-0.417-0.462-0.979c-0.737,0.635-1.441,1.027-2.019,1.027c-0.704,0-1.026-0.549-1.026-1.209
			s0.185-1.792,0.612-3.941c-0.336-0.07-0.658-0.109-0.993-0.109c-0.048-0.122-0.048-0.281,0-0.438
			c0.381-0.233,0.877-0.38,1.325-0.38c0.451,0,0.67,0.28,0.67,0.769c0,0.122-0.011,0.244-0.023,0.316
			c-0.275,1.381-0.587,3.016-0.587,3.367c0,0.391,0.034,0.684,0.241,0.795c0.564-0.073,1.154-0.393,1.788-0.842
			c0.162-1.295,0.346-2.819,0.474-4.052c0.021-0.22,0.553-0.339,0.956-0.29l0.093,0.096c-0.207,1.416-0.415,2.977-0.622,4.832
			C121.113,8.196,121.472,8.074,121.783,7.93"/>
		<path id="Fill-23_1_" fill="#FFFFFF" d="M123.57,4.207c-0.334-0.07-0.646-0.109-0.98-0.109c-0.047-0.122-0.047-0.281,0-0.438
			c0.381-0.233,0.865-0.38,1.314-0.38c0.45,0,0.658,0.28,0.658,0.757c0,0.085-0.012,0.16-0.023,0.243
			c0.762-0.646,1.488-1.047,2.088-1.047c0.703,0,1.027,0.55,1.027,1.196c0,0.814-0.301,2.34-0.623,3.842
			c0.381-0.075,0.762-0.197,1.072-0.342c0.127,0.098,0.208,0.232,0.242,0.4c-0.393,0.451-1.199,0.979-1.719,0.979
			c-0.427,0-0.587-0.357-0.587-0.758c0-0.123,0.011-0.257,0.033-0.389c0.277-1.369,0.577-2.967,0.577-3.318
			c0-0.381-0.035-0.673-0.242-0.783c-0.623,0.076-1.258,0.416-1.949,0.928c-0.162,1.259-0.324,2.646-0.473,3.915
			c-0.023,0.222-0.531,0.345-1.027,0.294l-0.093-0.096c0.254-1.393,0.45-2.674,0.601-3.965L123.57,4.207"/>
		<path id="Fill-24_1_" fill="#FFFFFF" d="M130.965,9.418c-0.877,1.047-1.43,1.977-1.857,2.963l-0.104,0.084
			c-0.403-0.033-0.829-0.339-0.829-0.606c0-0.344,0.98-1.625,1.891-2.428V8.538c0-1.671-0.115-3.011-0.646-4.258
			c-0.347,0.036-0.635,0.075-0.911,0.135c-0.104-0.06-0.174-0.244-0.174-0.401c0.335-0.428,1.038-0.746,1.419-0.746
			c0.288,0,0.52,0.21,0.681,0.525c0.289,0.572,0.485,1.866,0.485,3.112c0,0.536-0.013,1.06-0.046,1.511h0.021
			c1.131-1.342,1.546-2.744,1.546-4.402c0-0.209-0.022-0.428-0.058-0.636l0.094-0.098c0.414,0,0.887,0.098,0.968,0.391
			c0.069,0.233,0.093,0.451,0.093,0.694C133.537,5.854,132.545,7.525,130.965,9.418"/>
		<path id="Fill-25_1_" fill="#FFFFFF" d="M138.717,4.342l-0.484,3.93c0.379-0.075,0.738-0.197,1.049-0.342
			c0.126,0.098,0.207,0.232,0.241,0.4c-0.392,0.451-1.198,0.979-1.718,0.979c-0.322,0-0.428-0.466-0.473-1.098
			c-0.693,0.692-1.441,1.146-2.055,1.146c-0.518,0-0.818-0.368-0.934-0.881c-0.092-0.414-0.127-0.891-0.127-1.327
			c0-1.966,0.934-3.916,2.619-3.916c0.6,0,1.418,0.171,2.006,0.462C138.785,3.927,138.751,4.109,138.717,4.342L138.717,4.342z
			 M137.343,7.601l0.403-3.294c-0.381-0.16-0.75-0.258-1.096-0.258c-0.264,0-0.449,0.039-0.611,0.109
			c-0.438,0.415-0.842,1.43-0.842,2.635c0,0.867,0.115,1.467,0.322,1.684C136.051,8.477,136.686,8.101,137.343,7.601L137.343,7.601z
			"/>
	</g>
</g>
<g id="logo-som-rurals-4" transform="translate(8.000000, 154.000000)" sketch:type="MSLayerGroup">
	<path id="Fill-1_4_" sketch:type="MSShapeGroup" fill="#E47F4B" d="M0.05,15.611c0-1.072,0.125-2.143,0.416-3.213
		c0.624-0.188,1.165-0.166,1.789,0c0.021,0.607,0.104,1.26,0.187,1.805c0.271,0.127,0.895,0.232,1.436,0.232
		c1.207,0,1.394-0.357,1.394-0.988c0-0.67-0.603-0.986-1.519-1.32c-1.685-0.61-3.328-1.218-3.328-3.232
		c0-2.457,2.185-3.296,4.036-3.296c1.414,0,2.704,0.125,3.661,0.397c0,1.113-0.187,2.205-0.416,3.002
		c-0.624,0.168-1.27,0.146-1.769-0.042C5.874,8.453,5.771,7.887,5.583,7.402c-0.25-0.105-0.52-0.146-0.895-0.146
		c-1.435,0-1.435,0.504-1.435,0.861c0,1.656,4.992,1.385,4.992,4.616c0,2.395-1.892,3.483-4.431,3.483
		C2.172,16.217,0.841,15.947,0.05,15.611"/>
	<path id="Fill-2_4_" sketch:type="MSShapeGroup" fill="#E47F4B" d="M19.064,10.741c0,2.601-1.893,5.54-5.159,5.54
		c-3.288,0-4.889-2.182-4.889-5.205c0-2.604,1.894-5.54,5.159-5.54C17.524,5.536,19.064,7.782,19.064,10.741L19.064,10.741z
		 M15.257,13.932c0.437-0.568,0.749-1.555,0.749-2.666c0-1.553-0.562-3.695-2.143-3.695c-0.333,0-0.874,0.085-1.04,0.316
		c-0.437,0.566-0.749,1.553-0.749,2.666c0,1.552,0.562,3.692,2.142,3.692C14.55,14.245,15.091,14.162,15.257,13.932L15.257,13.932z"
		/>
	<path id="Fill-3_4_" sketch:type="MSShapeGroup" fill="#E47F4B" d="M27.075,10.026c0-1.364-0.188-2.371-1.312-2.371
		c-0.562,0-1.082,0.167-1.561,0.419v4.577c0,0.565,0.021,1.069,0.063,1.573c0.374,0.084,0.769,0.23,1.019,0.378
		c0,0.462-0.042,1.134-0.104,1.406c-0.457-0.021-1.706-0.043-2.413-0.043c-1.457,0-2.372,0.043-3.162,0.043
		c-0.083-0.252-0.146-0.903-0.146-1.406c0.582-0.063,1.248-0.21,1.664-0.357c0.062-0.462,0.083-0.755,0.083-1.175V7.928
		c-0.541-0.168-1.102-0.272-1.643-0.336c-0.146-0.398-0.188-0.859-0.083-1.279c1.186-0.42,2.475-0.672,3.828-0.757l0.333,0.168
		c0.083,0.211,0.208,0.547,0.312,0.901c0.832-0.629,1.769-1.089,2.912-1.089c1.062,0,2.08,0.417,2.684,1.321
		c0.895-0.756,1.914-1.321,3.183-1.321c1.665,0,3.204,1.007,3.204,3.272v3.843c0,0.565,0.021,1.069,0.063,1.573
		c0.54,0.063,1.186,0.211,1.56,0.378c0,0.462-0.042,1.134-0.146,1.406c-0.541-0.021-2.081-0.043-2.913-0.043
		c-1.186,0-1.914,0.043-2.579,0.043c-0.064-0.252-0.104-0.903-0.104-1.406c0.353-0.085,0.749-0.21,1.04-0.357
		c0.062-0.462,0.082-0.755,0.082-1.175v-3.044c0-1.364-0.186-2.371-1.31-2.371c-0.583,0-1.124,0.188-1.623,0.462
		c0.042,0.209,0.062,0.441,0.062,0.691v3.843c0,0.565,0.021,1.069,0.062,1.573c0.354,0.084,0.77,0.23,1.02,0.378
		c0,0.462-0.042,1.134-0.126,1.406c-0.436-0.021-1.705-0.043-2.391-0.043c-1.186,0-1.915,0.043-2.58,0.043
		c-0.062-0.252-0.104-0.903-0.104-1.406c0.354-0.085,0.75-0.21,1.041-0.357c0.062-0.462,0.083-0.755,0.083-1.175V10.026"/>
	<path id="Fill-4_4_" sketch:type="MSShapeGroup" fill="#E47F4B" d="M42.178,5.724c0.146,0.358,0.396,1.112,0.542,1.679
		c0.666-0.965,1.622-1.804,2.933-1.804c0.812,0,1.394,0.125,1.935,0.336c0,1.511-0.083,2.854-0.416,3.987
		c-0.603,0.23-1.332,0.23-1.893,0c-0.062-0.609-0.187-1.553-0.312-2.058c-0.125-0.021-0.229-0.021-0.354-0.021
		c-0.52,0-1.249,0.483-1.873,1.533v3.275c0,0.565,0.02,1.069,0.063,1.573c0.874,0.063,1.872,0.211,2.454,0.378
		c0,0.462-0.062,1.134-0.166,1.406c-0.728-0.021-2.663-0.043-3.786-0.043c-1.458,0-2.373,0.043-3.162,0.043
		c-0.083-0.252-0.146-0.903-0.146-1.406c0.582-0.063,1.248-0.21,1.664-0.357c0.062-0.462,0.083-0.755,0.083-1.175V7.928
		c-0.541-0.168-1.102-0.272-1.644-0.336c-0.167-0.418-0.207-0.88-0.083-1.279c1.187-0.42,2.476-0.672,3.828-0.757L42.178,5.724"/>
	<path id="Fill-5_4_" sketch:type="MSShapeGroup" fill="#E47F4B" d="M50,7.677c-0.479-0.212-1.061-0.38-1.622-0.462
		c0-0.609,0.062-1.113,0.146-1.407c0.811,0,1.706,0.043,3.224,0.043h1.041l0.25,0.251c-0.042,1.89-0.042,4.305-0.042,5.479
		c0,1.741,0.479,2.477,1.228,2.477c0.603,0,1.248-0.483,1.851-1.052V7.677c-0.458-0.212-0.999-0.38-1.519-0.462
		c0-0.609,0.062-1.113,0.146-1.407c0.79,0,1.665,0.043,3.142,0.043h1.019l0.25,0.251C59.07,7.677,59.07,9.334,59.07,11.35v1.302
		c0,0.398,0.021,0.986,0.042,1.448c0.478-0.042,0.894-0.127,1.331-0.232c0.249,0.19,0.417,0.504,0.417,0.904
		c-0.749,0.797-1.914,1.51-3.038,1.51c-0.603,0-1.145-0.63-1.456-1.51c-0.812,0.84-1.831,1.51-3.225,1.51
		c-1.894,0-3.142-1.176-3.142-3.443V7.677"/>
	<path id="Fill-6_4_" sketch:type="MSShapeGroup" fill="#E47F4B" d="M65.479,5.724c0.146,0.358,0.396,1.112,0.541,1.679
		c0.666-0.965,1.623-1.804,2.934-1.804c0.811,0,1.393,0.125,1.935,0.336c0,1.511-0.083,2.854-0.417,3.987
		c-0.603,0.23-1.331,0.23-1.893,0c-0.063-0.609-0.188-1.553-0.312-2.058c-0.124-0.021-0.229-0.021-0.354-0.021
		c-0.52,0-1.248,0.483-1.872,1.533v3.275c0,0.565,0.021,1.069,0.062,1.573c0.874,0.063,1.873,0.211,2.455,0.378
		c0,0.462-0.062,1.134-0.167,1.406c-0.728-0.021-2.663-0.043-3.787-0.043c-1.456,0-2.371,0.043-3.162,0.043
		c-0.083-0.252-0.146-0.903-0.146-1.406c0.583-0.063,1.248-0.21,1.664-0.357c0.062-0.462,0.084-0.755,0.084-1.175V7.928
		c-0.541-0.168-1.104-0.272-1.644-0.336c-0.166-0.418-0.208-0.88-0.083-1.279c1.186-0.42,2.476-0.672,3.828-0.757L65.479,5.724"/>
	<path id="Fill-7_4_" sketch:type="MSShapeGroup" fill="#E47F4B" d="M76.879,9.461c-0.041-1.238-0.353-2.12-1.269-2.12
		c-0.395,0-0.853,0.021-1.249,0.083c-0.146,0.504-0.167,1.049-0.167,1.574c-0.624,0.296-1.207,0.399-1.83,0.252
		c-0.437-0.629-0.687-1.49-0.687-2.518c1.248-0.736,2.912-1.196,4.577-1.196c1.331,0,3.64,0.481,3.64,3.42v3.695
		c0,0.398,0.021,0.986,0.042,1.448c0.479-0.042,0.895-0.127,1.33-0.232c0.25,0.19,0.417,0.504,0.417,0.904
		c-0.748,0.797-1.913,1.51-3.036,1.51c-0.542,0-1.062-0.524-1.395-1.301c-0.936,0.734-2.08,1.301-3.079,1.301
		c-1.935,0-2.955-0.902-2.955-2.644C71.22,11.371,74.508,10.048,76.879,9.461L76.879,9.461z M76.9,13.595v-2.224
		c-1.041,0.123-2.039,0.336-2.226,0.481c-0.249,0.188-0.396,0.715-0.396,1.05c0,0.629,0.437,1.217,1.269,1.217
		C75.943,14.119,76.422,13.889,76.9,13.595L76.9,13.595z"/>
	<path id="Fill-8_4_" sketch:type="MSShapeGroup" fill="#E47F4B" d="M87.094,12.651c0,0.565,0.021,1.069,0.062,1.573
		c0.562,0.063,1.186,0.211,1.561,0.378c0,0.462-0.041,1.134-0.125,1.406c-0.561-0.021-2.06-0.043-2.996-0.043
		c-1.395,0-2.309,0.043-3.1,0.043c-0.083-0.252-0.145-0.903-0.145-1.406c0.582-0.063,1.248-0.21,1.664-0.357
		c0.062-0.462,0.084-0.755,0.084-1.175V2.303c-0.542-0.146-1.104-0.272-1.645-0.336c-0.125-0.42-0.167-0.84-0.084-1.281
		c1.499-0.523,3.018-0.734,4.557-0.775l0.25,0.252c-0.062,2.099-0.084,3.736-0.084,6.045V12.651"/>
	<path id="Fill-9_4_" sketch:type="MSShapeGroup" fill="#E47F4B" d="M89.611,15.611c0-1.072,0.125-2.143,0.416-3.213
		c0.624-0.188,1.164-0.166,1.789,0c0.021,0.607,0.104,1.26,0.188,1.805c0.271,0.127,0.895,0.232,1.436,0.232
		c1.205,0,1.394-0.357,1.394-0.988c0-0.67-0.604-0.986-1.519-1.32c-1.686-0.61-3.328-1.218-3.328-3.232
		c0-2.457,2.184-3.296,4.035-3.296c1.414,0,2.705,0.125,3.661,0.397c0,1.113-0.187,2.205-0.415,3.002
		c-0.625,0.168-1.27,0.146-1.77-0.042c-0.062-0.503-0.165-1.069-0.354-1.554c-0.249-0.105-0.52-0.146-0.894-0.146
		c-1.436,0-1.436,0.504-1.436,0.861c0,1.656,4.993,1.385,4.993,4.616c0,2.395-1.895,3.483-4.433,3.483
		C91.732,16.217,90.402,15.947,89.611,15.611"/>
</g>
<g id="logo-som-rurals-5" transform="translate(8.000000, 197.000000)" sketch:type="MSLayerGroup">
	<path id="Fill-1_5_" sketch:type="MSShapeGroup" fill="#FFFFFF" d="M0.05,15.611c0-1.072,0.125-2.143,0.416-3.213
		c0.624-0.188,1.165-0.166,1.789,0c0.021,0.607,0.104,1.26,0.187,1.805c0.271,0.127,0.895,0.232,1.436,0.232
		c1.207,0,1.394-0.357,1.394-0.988c0-0.67-0.603-0.986-1.519-1.32c-1.685-0.61-3.328-1.218-3.328-3.232
		c0-2.457,2.185-3.296,4.036-3.296c1.414,0,2.704,0.125,3.661,0.397c0,1.113-0.187,2.205-0.416,3.002
		c-0.624,0.168-1.27,0.146-1.769-0.042C5.874,8.453,5.771,7.887,5.583,7.402c-0.25-0.105-0.52-0.146-0.895-0.146
		c-1.435,0-1.435,0.504-1.435,0.861c0,1.656,4.992,1.385,4.992,4.616c0,2.395-1.892,3.483-4.431,3.483
		C2.172,16.217,0.841,15.947,0.05,15.611"/>
	<path id="Fill-2_5_" sketch:type="MSShapeGroup" fill="#FFFFFF" d="M19.064,10.741c0,2.601-1.893,5.54-5.159,5.54
		c-3.288,0-4.889-2.182-4.889-5.205c0-2.604,1.894-5.54,5.159-5.54C17.524,5.536,19.064,7.782,19.064,10.741L19.064,10.741z
		 M15.257,13.932c0.437-0.568,0.749-1.555,0.749-2.666c0-1.553-0.562-3.695-2.143-3.695c-0.333,0-0.874,0.085-1.04,0.316
		c-0.437,0.566-0.749,1.553-0.749,2.666c0,1.552,0.562,3.692,2.142,3.692C14.55,14.245,15.091,14.162,15.257,13.932L15.257,13.932z"
		/>
	<path id="Fill-3_5_" sketch:type="MSShapeGroup" fill="#FFFFFF" d="M27.075,10.026c0-1.364-0.188-2.371-1.312-2.371
		c-0.562,0-1.082,0.167-1.561,0.419v4.577c0,0.565,0.021,1.069,0.063,1.573c0.374,0.084,0.769,0.23,1.019,0.378
		c0,0.462-0.042,1.134-0.104,1.406c-0.457-0.021-1.706-0.043-2.413-0.043c-1.457,0-2.372,0.043-3.162,0.043
		c-0.083-0.252-0.146-0.903-0.146-1.406c0.582-0.063,1.248-0.21,1.664-0.357c0.062-0.462,0.083-0.755,0.083-1.175V7.928
		c-0.541-0.168-1.102-0.272-1.643-0.336c-0.146-0.398-0.188-0.859-0.083-1.279c1.186-0.42,2.475-0.672,3.828-0.758l0.333,0.169
		c0.083,0.211,0.208,0.547,0.312,0.901c0.832-0.629,1.769-1.089,2.912-1.089c1.062,0,2.08,0.417,2.684,1.321
		c0.895-0.756,1.914-1.321,3.183-1.321c1.665,0,3.204,1.007,3.204,3.272v3.843c0,0.565,0.021,1.069,0.063,1.573
		c0.54,0.063,1.186,0.211,1.56,0.378c0,0.462-0.042,1.134-0.146,1.406c-0.541-0.021-2.081-0.043-2.913-0.043
		c-1.186,0-1.914,0.043-2.579,0.043c-0.064-0.252-0.104-0.903-0.104-1.406c0.353-0.085,0.749-0.21,1.04-0.357
		c0.062-0.462,0.082-0.755,0.082-1.175v-3.044c0-1.364-0.186-2.371-1.31-2.371c-0.583,0-1.124,0.188-1.623,0.462
		c0.042,0.209,0.062,0.441,0.062,0.691v3.843c0,0.565,0.021,1.069,0.062,1.573c0.354,0.084,0.77,0.23,1.02,0.378
		c0,0.462-0.042,1.134-0.126,1.406c-0.436-0.021-1.705-0.043-2.391-0.043c-1.186,0-1.915,0.043-2.58,0.043
		c-0.062-0.252-0.104-0.903-0.104-1.406c0.354-0.085,0.75-0.21,1.041-0.357c0.062-0.462,0.083-0.755,0.083-1.175V10.026"/>
	<path id="Fill-4_5_" sketch:type="MSShapeGroup" fill="#FFFFFF" d="M42.178,5.724c0.146,0.358,0.396,1.112,0.542,1.679
		c0.666-0.965,1.622-1.804,2.933-1.804c0.812,0,1.394,0.125,1.935,0.336c0,1.511-0.083,2.854-0.416,3.987
		c-0.603,0.23-1.332,0.23-1.893,0c-0.062-0.609-0.187-1.553-0.312-2.058c-0.125-0.021-0.229-0.021-0.354-0.021
		c-0.52,0-1.249,0.483-1.873,1.533v3.275c0,0.565,0.02,1.069,0.063,1.573c0.874,0.063,1.872,0.211,2.454,0.378
		c0,0.462-0.062,1.134-0.166,1.406c-0.728-0.021-2.663-0.043-3.786-0.043c-1.458,0-2.373,0.043-3.162,0.043
		c-0.083-0.252-0.146-0.903-0.146-1.406c0.582-0.063,1.248-0.21,1.664-0.357c0.062-0.462,0.083-0.755,0.083-1.175V7.928
		c-0.541-0.168-1.102-0.272-1.644-0.336c-0.167-0.418-0.207-0.88-0.083-1.279c1.187-0.42,2.476-0.672,3.828-0.758L42.178,5.724"/>
	<path id="Fill-5_5_" sketch:type="MSShapeGroup" fill="#FFFFFF" d="M50,7.677c-0.479-0.212-1.061-0.38-1.622-0.462
		c0-0.609,0.062-1.113,0.146-1.407c0.811,0,1.706,0.043,3.224,0.043h1.041l0.25,0.251c-0.042,1.89-0.042,4.305-0.042,5.479
		c0,1.741,0.479,2.477,1.228,2.477c0.603,0,1.248-0.483,1.851-1.052V7.677c-0.458-0.212-0.999-0.38-1.519-0.462
		c0-0.609,0.062-1.113,0.146-1.407c0.79,0,1.665,0.043,3.142,0.043h1.019l0.25,0.251C59.07,7.677,59.07,9.334,59.07,11.35v1.302
		c0,0.397,0.021,0.986,0.042,1.448c0.478-0.042,0.894-0.127,1.331-0.232c0.249,0.19,0.417,0.504,0.417,0.904
		c-0.749,0.797-1.914,1.51-3.038,1.51c-0.603,0-1.145-0.63-1.456-1.51c-0.812,0.84-1.831,1.51-3.225,1.51
		c-1.894,0-3.142-1.176-3.142-3.443V7.677"/>
	<path id="Fill-6_5_" sketch:type="MSShapeGroup" fill="#FFFFFF" d="M65.479,5.724c0.146,0.358,0.396,1.112,0.541,1.679
		c0.666-0.965,1.623-1.804,2.934-1.804c0.811,0,1.393,0.125,1.935,0.336c0,1.511-0.083,2.854-0.417,3.987
		c-0.603,0.23-1.331,0.23-1.893,0c-0.063-0.609-0.188-1.553-0.312-2.058c-0.124-0.021-0.229-0.021-0.354-0.021
		c-0.52,0-1.248,0.483-1.872,1.533v3.275c0,0.565,0.021,1.069,0.062,1.573c0.874,0.063,1.873,0.211,2.455,0.378
		c0,0.462-0.062,1.134-0.167,1.406c-0.728-0.021-2.663-0.043-3.787-0.043c-1.456,0-2.371,0.043-3.162,0.043
		c-0.083-0.252-0.146-0.903-0.146-1.406c0.583-0.063,1.248-0.21,1.664-0.357c0.062-0.462,0.084-0.755,0.084-1.175V7.928
		c-0.541-0.168-1.104-0.272-1.644-0.336c-0.166-0.418-0.208-0.88-0.083-1.279c1.186-0.42,2.476-0.672,3.828-0.758L65.479,5.724"/>
	<path id="Fill-7_5_" sketch:type="MSShapeGroup" fill="#FFFFFF" d="M76.879,9.461c-0.041-1.238-0.353-2.12-1.269-2.12
		c-0.395,0-0.853,0.021-1.249,0.083c-0.146,0.504-0.167,1.049-0.167,1.574c-0.624,0.296-1.207,0.399-1.83,0.252
		c-0.437-0.629-0.687-1.49-0.687-2.518c1.248-0.736,2.912-1.196,4.577-1.196c1.331,0,3.64,0.481,3.64,3.42v3.695
		c0,0.397,0.021,0.986,0.042,1.448c0.479-0.042,0.895-0.127,1.33-0.232c0.25,0.19,0.417,0.504,0.417,0.904
		c-0.748,0.797-1.913,1.51-3.036,1.51c-0.542,0-1.062-0.524-1.395-1.301c-0.936,0.734-2.08,1.301-3.079,1.301
		c-1.935,0-2.955-0.902-2.955-2.644C71.22,11.371,74.508,10.048,76.879,9.461L76.879,9.461z M76.9,13.595v-2.224
		c-1.041,0.123-2.039,0.336-2.226,0.481c-0.249,0.188-0.396,0.715-0.396,1.05c0,0.629,0.437,1.217,1.269,1.217
		C75.943,14.119,76.422,13.889,76.9,13.595L76.9,13.595z"/>
	<path id="Fill-8_5_" sketch:type="MSShapeGroup" fill="#FFFFFF" d="M87.094,12.651c0,0.565,0.021,1.069,0.062,1.573
		c0.562,0.063,1.186,0.211,1.561,0.378c0,0.462-0.041,1.134-0.125,1.406c-0.561-0.021-2.06-0.043-2.996-0.043
		c-1.395,0-2.309,0.043-3.1,0.043c-0.083-0.252-0.145-0.903-0.145-1.406c0.582-0.063,1.248-0.21,1.664-0.357
		c0.062-0.462,0.084-0.755,0.084-1.175V2.303c-0.542-0.146-1.104-0.272-1.645-0.336c-0.125-0.42-0.167-0.84-0.084-1.281
		c1.499-0.523,3.018-0.734,4.557-0.775l0.25,0.252c-0.062,2.099-0.084,3.736-0.084,6.045V12.651"/>
	<path id="Fill-9_5_" sketch:type="MSShapeGroup" fill="#FFFFFF" d="M89.611,15.611c0-1.072,0.125-2.143,0.416-3.213
		c0.624-0.188,1.164-0.166,1.789,0c0.021,0.607,0.104,1.26,0.188,1.805c0.271,0.127,0.895,0.232,1.436,0.232
		c1.205,0,1.394-0.357,1.394-0.988c0-0.67-0.604-0.986-1.519-1.32c-1.686-0.61-3.328-1.218-3.328-3.232
		c0-2.457,2.184-3.296,4.035-3.296c1.414,0,2.705,0.125,3.661,0.397c0,1.113-0.187,2.205-0.415,3.002
		c-0.625,0.168-1.27,0.146-1.77-0.042c-0.062-0.503-0.165-1.069-0.354-1.554c-0.249-0.105-0.52-0.146-0.894-0.146
		c-1.436,0-1.436,0.504-1.436,0.861c0,1.656,4.993,1.385,4.993,4.616c0,2.395-1.895,3.483-4.433,3.483
		C91.732,16.217,90.402,15.947,89.611,15.611"/>
</g>
</svg>
