<svg version="1.1" id="Layer_1" xmlns:sketch="http://www.bohemiancoding.com/sketch/ns"
	 xmlns="http://www.w3.org/2000/svg" xmlns:xlink="http://www.w3.org/1999/xlink" x="0px" y="0px" width="30px" height="150px"
	 viewBox="0 0 30 150" enable-background="new 0 0 30 150" xml:space="preserve">
<g id="_x31_-_x2B_-Oval-2" sketch:type="MSLayerGroup">
	<path fill="#E47F4B" d="M16.571,21h-1.425v-9.158c0-0.762,0.023-1.482,0.071-2.162c-0.124,0.123-0.261,0.252-0.414,0.387
		s-0.85,0.706-2.092,1.714l-0.773-1.002L15.34,8.15h1.231V21z"/>
	<path id="Oval-1" sketch:type="MSShapeGroup" fill="#E47F4B" d="M30,15c0-8.284-6.716-15-15-15S0,6.716,0,15s6.716,15,15,15
		S30,23.284,30,15z M1,15C1,7.268,7.268,1,15,1c7.732,0,14,6.268,14,14s-6.268,14-14,14C7.268,29,1,22.732,1,15z"/>
</g>
<g id="_x31_-_x2B_-Oval-6" transform="translate(0.000000, 30.000000)" sketch:type="MSLayerGroup">
	<path fill="#E47F4B" d="M20.179,21h-8.446v-1.257l3.384-3.401c1.031-1.043,1.711-1.787,2.039-2.232s0.574-0.879,0.738-1.301
		s0.246-0.876,0.246-1.362c0-0.686-0.208-1.229-0.624-1.63s-0.993-0.603-1.731-0.603c-0.533,0-1.039,0.088-1.516,0.264
		s-1.009,0.495-1.595,0.958l-0.773-0.993c1.184-0.984,2.473-1.477,3.867-1.477c1.207,0,2.153,0.31,2.839,0.927
		c0.686,0.619,1.028,1.449,1.028,2.492c0,0.814-0.229,1.62-0.686,2.417s-1.312,1.805-2.566,3.023l-2.812,2.751v0.07h6.609V21z"/>
	<path id="Oval-1_1_" sketch:type="MSShapeGroup" fill="#E47F4B" d="M25.606,25.606C28.321,22.892,30,19.142,30,15
		c0-8.284-6.716-15-15-15S0,6.716,0,15s6.716,15,15,15C19.143,30,22.893,28.321,25.606,25.606z M1,15C1,7.268,7.268,1,15,1
		c7.732,0,14,6.268,14,14c0,3.765-1.491,7.29-4.101,9.899S18.765,29,15,29C7.268,29,1,22.732,1,15z"/>
</g>
<g id="_x31_-_x2B_-Oval-7" transform="translate(0.000000, 60.000000)" sketch:type="MSLayerGroup">
	<path fill="#E47F4B" d="M18.846,11.174c0,0.82-0.23,1.491-0.689,2.013c-0.461,0.521-1.112,0.87-1.956,1.046v0.07
		c1.031,0.129,1.796,0.457,2.294,0.984s0.747,1.219,0.747,2.074c0,1.225-0.425,2.166-1.274,2.826
		c-0.85,0.658-2.057,0.988-3.623,0.988c-0.68,0-1.302-0.052-1.868-0.154c-0.565-0.102-1.115-0.282-1.648-0.54v-1.389
		c0.557,0.275,1.15,0.485,1.78,0.628c0.63,0.145,1.226,0.216,1.789,0.216c2.222,0,3.333-0.87,3.333-2.61
		c0-1.559-1.225-2.338-3.675-2.338h-1.266v-1.257h1.283c1.002,0,1.797-0.221,2.383-0.663s0.879-1.057,0.879-1.842
		c0-0.627-0.215-1.119-0.646-1.477c-0.43-0.357-1.015-0.536-1.754-0.536c-0.563,0-1.093,0.076-1.591,0.229s-1.066,0.434-1.705,0.844
		l-0.738-0.984c0.527-0.416,1.135-0.743,1.824-0.979c0.688-0.238,1.414-0.356,2.175-0.356c1.25,0,2.219,0.286,2.911,0.856
		C18.5,9.395,18.846,10.178,18.846,11.174z"/>
	<path id="Oval-1_2_" sketch:type="MSShapeGroup" fill="#E47F4B" d="M30,15c0-8.284-6.716-15-15-15S0,6.716,0,15s6.716,15,15,15
		S30,23.284,30,15z M1,15C1,7.268,7.268,1,15,1c7.732,0,14,6.268,14,14c0,7.732-6.268,14-14,14C7.268,29,1,22.732,1,15z"/>
</g>
<g id="_x31_-_x2B_-Oval-8" transform="translate(0.000000, 90.000000)" sketch:type="MSLayerGroup">
	<path fill="#E47F4B" d="M18.935,18.047h-1.907V21H15.63v-2.953H9.381v-1.274l6.1-8.692h1.547v8.64h1.907V18.047z M15.63,16.72
		v-4.271c0-0.838,0.029-1.784,0.088-2.839h-0.07c-0.281,0.562-0.545,1.028-0.791,1.397L10.84,16.72H15.63z"/>
	<path id="Oval-1_3_" sketch:type="MSShapeGroup" fill="#E47F4B" d="M30,15c0-8.284-6.716-15-15-15S0,6.716,0,15s6.716,15,15,15
		S30,23.284,30,15z M1,15C1,7.268,7.268,1,15,1c7.732,0,14,6.268,14,14s-6.268,14-14,14C7.268,29,1,22.732,1,15z"/>
</g>
<g id="_x31_-_x2B_-Oval-9" transform="translate(0.000000, 120.000000)" sketch:type="MSLayerGroup">
	<path fill="#E47F4B" d="M14.749,13.151c1.354,0,2.419,0.336,3.194,1.007c0.777,0.671,1.165,1.589,1.165,2.755
		c0,1.33-0.423,2.373-1.271,3.129c-0.846,0.756-2.014,1.134-3.502,1.134c-1.447,0-2.552-0.231-3.313-0.694v-1.406
		c0.41,0.264,0.92,0.47,1.529,0.62c0.609,0.148,1.21,0.224,1.802,0.224c1.031,0,1.832-0.243,2.404-0.729
		c0.57-0.486,0.856-1.189,0.856-2.109c0-1.793-1.099-2.689-3.296-2.689c-0.557,0-1.301,0.085-2.232,0.255l-0.756-0.483l0.483-6.012
		h6.39v1.345h-5.142l-0.325,3.858C13.41,13.219,14.081,13.151,14.749,13.151z"/>
	<path id="Oval-1_4_" sketch:type="MSShapeGroup" fill="#E47F4B" d="M30,15c0-8.284-6.716-15-15-15S0,6.716,0,15s6.716,15,15,15
		S30,23.284,30,15z M1,15C1,7.268,7.268,1,15,1c7.732,0,14,6.268,14,14s-6.268,14-14,14C7.268,29,1,22.732,1,15z"/>
</g>
</svg>
