<svg version="1.1" id="Layer_1" xmlns="http://www.w3.org/2000/svg" xmlns:xlink="http://www.w3.org/1999/xlink" x="0px" y="0px"
	 width="30px" height="30px" viewBox="0 0 30 30" enable-background="new 0 0 30 30" xml:space="preserve">
<g>
	<path fill="#AAAAAA" d="M5,20.72V9.281C5,8.577,5.564,8,6.252,8h17.497C24.436,8,25,8.577,25,9.281v11.438
		C25,21.433,24.436,22,23.749,22H6.252C5.564,22,5,21.433,5,20.72L5,20.72z M23.907,9.281c0-0.09-0.074-0.162-0.158-0.162H6.252
		c-0.088,0-0.159,0.072-0.159,0.162v11.438c0,0.094,0.071,0.161,0.159,0.161h17.497c0.084,0,0.158-0.067,0.158-0.161V9.281
		L23.907,9.281z"/>
	<path fill="#AAAAAA" d="M14.894,17.196c-0.13,0-0.265-0.051-0.373-0.14l-7.379-6.02c-0.257-0.21-0.303-0.6-0.092-0.862
		c0.207-0.269,0.586-0.312,0.843-0.098l7.009,5.718l7.172-5.706c0.268-0.21,0.642-0.161,0.842,0.108
		c0.208,0.269,0.156,0.658-0.104,0.866l-7.548,6C15.155,17.151,15.021,17.196,14.894,17.196L14.894,17.196z"/>
</g>
</svg>
