<?xml version="1.0" encoding="utf-8"?>
<!DOCTYPE svg PUBLIC "-//W3C//DTD SVG 1.1//EN" "http://www.w3.org/Graphics/SVG/1.1/DTD/svg11.dtd">
<svg version="1.1" id="Layer_1" xmlns="http://www.w3.org/2000/svg" xmlns:xlink="http://www.w3.org/1999/xlink" x="0px" y="0px"
	 width="360px" height="260px" viewBox="-22.5 22.5 360 260" enable-background="new -22.5 22.5 360 260" xml:space="preserve">
<path fill="#777777" d="M0.84,46.109l-4.346-5.663H-3.82l-0.315,0.308l-0.463-0.626c1.03-1.022,1.668-2.423,1.668-3.97
	c0-3.12-2.595-5.659-5.785-5.659c-3.19,0.001-5.785,2.54-5.785,5.66c0,3.121,2.595,5.659,5.784,5.659
	c0.945,0,1.836-0.228,2.625-0.622l0.579,0.646l-0.348,0.341v0.162c0,0,4.279,5.257,4.544,5.516c0.265,0.26,0.862,0.162,0.862,0.162
	s0.863-0.487,1.293-0.908C1.271,46.693,0.84,46.109,0.84,46.109L0.84,46.109L0.84,46.109z M-12.457,36.159
	c0-2.017,1.679-3.66,3.741-3.66c2.063,0,3.741,1.643,3.741,3.66c0,2.019-1.678,3.661-3.741,3.661
	C-10.778,39.819-12.457,38.177-12.457,36.159L-12.457,36.159L-12.457,36.159z"/>
<path fill="#E37E4C" d="M136.26,51.039c-0.148-0.083-0.333-0.085-0.481-0.004c-5.746,3.091-8.489,6.152-9.792,8.247
	c0.026-3.413,0.454-5.767,0.875-7.269c0.255,1.68,1.131,2.046,1.836,2.046c0.343,0,0.665-0.087,0.907-0.163
	c0.524-0.164,0.917-0.476,1.135-0.9c0.283-0.543,0.272-1.248-0.027-2.092c-0.11-0.312-0.254-0.562-0.414-0.765
	c0.134,0.037,0.274,0.071,0.424,0.104c0.35,0.07,0.67,0.105,0.952,0.105c0.867,0,1.9-0.339,1.9-1.957
	c0-0.443-0.176-1.889-2.436-1.889l-0.095,0.001c-0.34,0.006-0.632,0.063-0.886,0.155c0.228-0.43,0.339-0.993,0.328-1.687
	c-0.025-1.625-1.143-2.255-1.799-2.381c-0.097-0.041-0.25-0.089-0.44-0.089c-0.55,0-1.28,0.372-1.628,2.144
	c-0.044,0.219-0.07,0.422-0.088,0.615c-0.686-0.934-1.366-1.396-2.078-1.396c-0.642,0-1.108,0.374-1.444,0.697
	c-0.369,0.359-0.562,0.793-0.558,1.258c0.007,0.644,0.386,1.322,1.128,2.018c0.341,0.32,0.703,0.543,1.079,0.672
	c-0.151,0.03-0.305,0.064-0.468,0.11c-0.998,0.281-1.604,0.701-1.854,1.288c-0.329,0.773,0.114,1.544,0.304,1.874
	c0.394,0.687,1.017,1.065,1.751,1.065c0.413,0,0.865-0.127,1.342-0.363c-0.29,1.22-0.55,2.837-0.661,4.917
	c-1.798-5.186-6.351-9.25-6.598-9.467c-0.133-0.119-0.323-0.154-0.494-0.093c-0.17,0.06-0.291,0.207-0.313,0.38
	c-1.474,11.054,7.371,14.224,7.46,14.255c0.054,0.018,0.109,0.027,0.163,0.027c0.003,0,0.007-0.001,0.011-0.001
	c0.002,0,0.006,0.001,0.008,0.001c0.046,0,0.094-0.007,0.139-0.02c10.997-3.202,11.055-10.962,11.054-11.04
	C136.499,51.273,136.407,51.122,136.26,51.039L136.26,51.039L136.26,51.039z M127.825,47.614c0.473,0,0.856,0.373,0.856,0.828
	c0,0.457-0.383,0.827-0.856,0.827c-0.471,0-0.855-0.37-0.855-0.827C126.97,47.986,127.354,47.614,127.825,47.614L127.825,47.614
	L127.825,47.614z M129.874,52.576c-0.102,0.198-0.293,0.341-0.566,0.427c-0.187,0.058-0.404,0.118-0.609,0.118
	c-0.203,0-0.743,0-0.902-1.437c-0.106-0.957,0.085-1.278,0.173-1.372c0.018-0.018,0.071-0.075,0.157-0.078
	c0.06,0.011,0.125,0.011,0.185,0.003c0.016-0.003,0.079-0.012,0.172-0.012c0.438,0,1.022,0.17,1.31,0.982
	C130.003,51.796,130.031,52.271,129.874,52.576L129.874,52.576L129.874,52.576z M131.061,47.44h0.079c1.465,0,1.465,0.69,1.465,0.95
	c0,0.676-0.145,1.019-0.93,1.019c-0.215,0-0.469-0.03-0.751-0.087c-0.986-0.2-1.204-0.484-1.248-0.566
	c-0.038-0.076-0.021-0.133-0.021-0.133S129.857,47.46,131.061,47.44L131.061,47.44L131.061,47.44z M127.571,44.819
	c0.225-1.132,0.564-1.38,0.706-1.38c0.086-0.021,0.158,0.025,0.223,0.036c0.104,0.018,0.997,0.229,1.018,1.51
	c0.011,0.706-0.124,1.215-0.386,1.473c-0.148,0.147-0.344,0.218-0.597,0.218c-0.331,0-0.662-0.031-0.847-0.248
	C127.527,46.24,127.376,45.809,127.571,44.819L127.571,44.819L127.571,44.819z M123.421,45.809
	c-0.002-0.214,0.087-0.407,0.273-0.586c0.216-0.208,0.475-0.421,0.758-0.421c0.386,0,0.855,0.38,1.359,1.098
	c0.67,0.951,0.615,1.336,0.583,1.432c-0.021,0.061-0.063,0.083-0.065,0.085c-0.062,0.014-0.127,0.044-0.181,0.08
	c-0.002,0.002-0.297,0.206-0.715,0.206c-0.4,0-0.797-0.182-1.182-0.542C123.711,46.654,123.425,46.186,123.421,45.809
	L123.421,45.809L123.421,45.809z M124.391,51.905c-0.141,0-0.569,0-0.904-0.582c-0.201-0.349-0.387-0.747-0.254-1.062
	c0.126-0.296,0.55-0.553,1.226-0.743c0.368-0.102,0.686-0.154,0.949-0.154c0.583,0,0.655,0.255,0.663,0.321
	c0.001,0.057,0.013,0.113,0.036,0.167c0.02,0.044,0.456,1.093-0.634,1.705C125.059,51.788,124.695,51.905,124.391,51.905
	L124.391,51.905L124.391,51.905z M118.525,49.301c1.765,1.77,6.233,6.765,6.296,12.014C123,60.421,117.895,57.19,118.525,49.301
	L118.525,49.301L118.525,49.301z M126.037,61.312c0.625-1.561,2.717-5.223,9.405-9.012C135.112,54.212,133.537,58.83,126.037,61.312
	L126.037,61.312L126.037,61.312z"/>
<path fill="#E37E4C" d="M156.878,44.192c-0.934-0.883-2.57-1.39-4.489-1.39c-1.43,0-2.991,0.267-4.637,0.794
	c-0.041,0.013-0.081,0.027-0.113,0.039l-0.123,0.035c-4.687,1.501-6.827,4.079-7.237,5.839c-0.007,0.04-0.169,0.996,0.23,1.494
	c0.156,0.195,0.372,0.295,0.644,0.295c0.552,0,1.313-0.407,2.326-1.245c0.025-0.002,0.05-0.013,0.071-0.031
	c0.033-0.025,0.052-0.065,0.053-0.108c0.036-0.817,0.388-1.572,1.052-2.251c-0.154,0.593-0.384,1.616-0.391,2.462
	c-0.001,0.071,0.047,0.134,0.116,0.145c0.362,0.063,0.812,0.142,1.269,0.142c1.287,0,2.19-0.651,2.757-1.99
	c0.009-0.021,0.013-0.042,0.012-0.065l-0.083-2.317l1.082,1.886c0.012,0.02,0.027,0.037,0.047,0.049
	c0.621,0.405,1.235,0.611,1.826,0.611c1.09,0,1.93-0.688,2.607-1.36c0.051-0.05,0.059-0.13,0.019-0.189
	c-0.462-0.695-1.202-1.408-1.648-1.81c0.914,0.175,1.613,0.593,2.081,1.25c0.024,0.035,0.07,0.048,0.111,0.05
	c0.017,0.002,0.037-0.002,0.055-0.009c0.311,0.024,0.607,0.046,0.863,0.037c1.184,0,1.86-0.247,2.064-0.754
	C157.725,45.101,156.918,44.235,156.878,44.192"/>
<path fill="#E37E4C" d="M148.127,42.989c-0.106-0.359-0.47-0.56-0.814-0.45c-0.343,0.109-0.537,0.489-0.431,0.849L148.127,42.989"/>
<path fill="#E37E4C" d="M150.065,49.905c-0.089-0.307-0.403-0.48-0.698-0.386c-0.295,0.094-0.46,0.42-0.37,0.728l3.486,11.845
	c0.074,0.251,0.294,0.412,0.535,0.412c0.053,0,0.109-0.008,0.163-0.026c0.296-0.094,0.462-0.42,0.371-0.727L150.065,49.905"/>
<path fill="#E37E4C" d="M150.098,58.199c-0.203-0.242-0.555-0.268-0.788-0.057c-0.003,0.003-0.076,0.065-0.199,0.16l-2.341,0.729
	l-8.124-6.536c-0.017-0.045-0.036-0.086-0.054-0.13c-0.106-0.269-0.384-0.408-0.648-0.342c-0.135-0.008-0.27,0.05-0.359,0.17
	c-0.087,0.117-0.108,0.267-0.067,0.399c0.001,0.073,0.013,0.147,0.042,0.218c1.528,3.842,3.415,6.301,5.62,7.34l-4.34,1.353
	c-0.221,0.069-0.347,0.312-0.281,0.544c0.055,0.189,0.221,0.311,0.401,0.311c0.041,0,0.081-0.006,0.121-0.018l5.523-1.721
	c0.359,0.067,0.709,0.099,1.048,0.099c0.564,0,1.091-0.086,1.575-0.215l2.193,1.765c0.076,0.06,0.167,0.09,0.256,0.09
	c0.125,0,0.25-0.058,0.332-0.17c0.141-0.191,0.107-0.465-0.076-0.613l-1.748-1.406c1.103-0.477,1.804-1.099,1.858-1.148
	C150.275,58.81,150.3,58.442,150.098,58.199L150.098,58.199L150.098,58.199z M144.556,59.42c-1.948-0.478-3.671-2.228-5.141-5.203
	l6.366,5.123l-0.591,0.183C144.982,59.503,144.771,59.473,144.556,59.42L144.556,59.42L144.556,59.42z"/>
<path fill="#E37E4C" d="M139.5,66.856v13.959c0,0.931,0.697,1.685,1.559,1.685h12.882c0.862,0,1.559-0.754,1.559-1.685V66.856H139.5
	L139.5,66.856L139.5,66.856z M141.394,68.913h12.21v11.53h-12.21V68.913L141.394,68.913z"/>
<path fill="#E37E4C" d="M142.771,79.112h9.458V70.21h-9.458V79.112L142.771,79.112z M151.613,78.506h-8.227v-7.69h3.687v1.108h0.776
	v-1.108h3.764V78.506L151.613,78.506L151.613,78.506z"/>
<path fill="#E37E4C" d="M120.5,67.157V80.85c0,0.913,0.653,1.653,1.462,1.653h12.077c0.808,0,1.461-0.74,1.461-1.653V67.157H120.5
	L120.5,67.157L120.5,67.157z"/>
<path fill="#FFFFFF" d="M128,79.875c-2.703,0-4.895-2.259-4.895-5.045s2.192-5.045,4.895-5.045s4.895,2.259,4.895,5.045
	S130.703,79.875,128,79.875L128,79.875L128,79.875z"/>
<path fill="none" d="M128,79.875"/>
<path fill="#E37E4C" d="M128,70.668c-2.227,0-4.038,1.867-4.038,4.162s1.811,4.162,4.038,4.162s4.039-1.867,4.039-4.162
	S130.227,70.668,128,70.668L128,70.668L128,70.668z M128,78.397c-1.909,0-3.462-1.599-3.462-3.567c0-1.967,1.553-3.567,3.462-3.567
	c1.766,0,3.224,1.369,3.433,3.131h-1.691v0.815h1.699C131.257,76.999,129.784,78.397,128,78.397L128,78.397L128,78.397z"/>
<path fill="#E37E4C" d="M90.767,81.453c0,0.375,0.276,0.681,0.618,0.681c0.339,0,0.615-0.305,0.615-0.681v-14.39
	c0-1.255-0.464-2.396-1.211-3.223c-0.749-0.826-1.78-1.34-2.915-1.34c-1.136,0-2.169,0.514-2.916,1.34
	c-0.747,0.827-1.211,1.968-1.211,3.223c0,0.376,0.275,0.682,0.616,0.682c0.339,0,0.615-0.306,0.615-0.682
	c0-0.878,0.326-1.678,0.852-2.258c0.524-0.581,1.247-0.94,2.043-0.94c0.794,0,1.518,0.36,2.043,0.94
	c0.525,0.58,0.85,1.38,0.85,2.258L90.767,81.453L90.767,81.453L90.767,81.453z M84.363,68.153c1.987,0,3.612,1.718,3.725,3.884
	c-0.066,0.017-0.129,0.027-0.188,0.027c-0.144,0-0.312-0.064-0.48-0.129c-0.225-0.086-0.45-0.172-0.699-0.172
	c-0.248,0-0.473,0.086-0.697,0.172c-0.169,0.065-0.337,0.129-0.481,0.129c-0.146,0-0.313-0.064-0.482-0.129
	c-0.224-0.086-0.448-0.172-0.697-0.172c-0.249,0-0.473,0.086-0.698,0.172c-0.168,0.065-0.337,0.129-0.481,0.129
	c-0.145,0-0.313-0.064-0.482-0.129c-0.224-0.086-0.45-0.172-0.697-0.172c-0.25,0-0.475,0.086-0.698,0.172
	c-0.169,0.065-0.337,0.129-0.482,0.129c-0.058,0-0.12-0.01-0.187-0.027C80.751,69.872,82.376,68.153,84.363,68.153L84.363,68.153
	L84.363,68.153z M88.062,72.766c-0.031,0.257-0.084,0.508-0.155,0.75H87.9c-0.248,0-0.473-0.086-0.697-0.172
	c-0.169-0.065-0.338-0.131-0.482-0.131s-0.313,0.065-0.481,0.131c-0.224,0.086-0.448,0.172-0.697,0.172s-0.475-0.086-0.698-0.172
	c-0.169-0.065-0.337-0.131-0.481-0.131c-0.144,0-0.313,0.065-0.482,0.131c-0.224,0.086-0.45,0.172-0.697,0.172
	c-0.25,0-0.475-0.086-0.698-0.172c-0.169-0.065-0.337-0.131-0.481-0.131s-0.313,0.065-0.482,0.131
	c-0.225,0.086-0.448,0.172-0.698,0.172H80.82c-0.071-0.241-0.123-0.492-0.155-0.75c0.056,0.013,0.11,0.022,0.161,0.022
	c0.145,0,0.313-0.065,0.482-0.129c0.224-0.087,0.448-0.173,0.698-0.173c0.248,0,0.474,0.086,0.697,0.173
	c0.169,0.063,0.337,0.129,0.482,0.129c0.144,0,0.313-0.065,0.481-0.129c0.225-0.087,0.45-0.173,0.698-0.173
	c0.249,0,0.474,0.086,0.697,0.173c0.169,0.063,0.337,0.129,0.482,0.129c0.144,0,0.312-0.065,0.481-0.129
	c0.225-0.087,0.449-0.173,0.697-0.173c0.25,0,0.474,0.086,0.699,0.173c0.168,0.063,0.336,0.129,0.48,0.129
	C87.952,72.788,88.006,72.779,88.062,72.766L88.062,72.766L88.062,72.766z M81.208,74.992c0.241,0,0.449,0.217,0.467,0.488
	c0.022,0.268-0.151,0.489-0.385,0.489c-0.235,0-0.451-0.221-0.478-0.489C80.789,75.209,80.968,74.992,81.208,74.992L81.208,74.992
	L81.208,74.992z M80.711,76.19c0.216,0,0.417,0.203,0.452,0.453c0.037,0.248-0.096,0.453-0.304,0.453
	c-0.207,0-0.416-0.205-0.463-0.453C80.352,76.393,80.495,76.19,80.711,76.19L80.711,76.19L80.711,76.19z M80.371,77.298
	c0.188,0,0.381,0.186,0.432,0.416c0.056,0.229-0.042,0.416-0.219,0.416c-0.177,0-0.379-0.187-0.443-0.416
	C80.078,77.484,80.182,77.298,80.371,77.298L80.371,77.298L80.371,77.298z M80.185,78.33c0.159,0,0.344,0.17,0.413,0.378
	c0.07,0.21,0.01,0.381-0.141,0.381c-0.15,0-0.341-0.17-0.421-0.381C79.957,78.5,80.025,78.33,80.185,78.33L80.185,78.33
	L80.185,78.33z M87.512,74.992c0.24,0,0.421,0.217,0.397,0.488c-0.027,0.268-0.244,0.489-0.477,0.489
	c-0.234,0-0.408-0.221-0.386-0.489C87.063,75.209,87.271,74.992,87.512,74.992L87.512,74.992L87.512,74.992z M88.01,76.19
	c0.215,0,0.359,0.203,0.315,0.453c-0.047,0.248-0.257,0.453-0.462,0.453c-0.208,0-0.342-0.205-0.305-0.453
	C87.595,76.393,87.794,76.19,88.01,76.19L88.01,76.19L88.01,76.19z M88.351,77.298c0.188,0,0.292,0.186,0.229,0.416
	c-0.063,0.229-0.264,0.416-0.442,0.416c-0.179,0-0.275-0.187-0.221-0.416C87.97,77.484,88.163,77.298,88.351,77.298L88.351,77.298
	L88.351,77.298z M88.535,78.33c0.162,0,0.228,0.17,0.15,0.378c-0.081,0.21-0.272,0.381-0.423,0.381c-0.15,0-0.21-0.17-0.139-0.381
	C88.193,78.5,88.377,78.33,88.535,78.33L88.535,78.33L88.535,78.33z M82.83,74.808c0.241,0,0.442,0.218,0.45,0.489
	c0.006,0.269-0.179,0.487-0.416,0.487c-0.234,0-0.438-0.218-0.453-0.487C82.4,75.026,82.587,74.808,82.83,74.808L82.83,74.808
	L82.83,74.808z M82.586,75.928c0.218,0,0.403,0.203,0.418,0.453c0.014,0.25-0.143,0.453-0.353,0.453s-0.399-0.203-0.422-0.453
	C82.209,76.131,82.369,75.928,82.586,75.928L82.586,75.928L82.586,75.928z M82.4,77.051c0.191,0,0.361,0.187,0.383,0.415
	c0.023,0.23-0.104,0.417-0.286,0.417c-0.181,0-0.356-0.187-0.39-0.417C82.078,77.237,82.209,77.051,82.4,77.051L82.4,77.051
	L82.4,77.051z M82.283,78.172c0.163,0,0.316,0.169,0.348,0.379c0.031,0.208-0.065,0.38-0.218,0.38c-0.153,0-0.31-0.171-0.352-0.38
	C82.021,78.341,82.122,78.172,82.283,78.172L82.283,78.172L82.283,78.172z M84.362,74.808c0.24,0,0.434,0.218,0.432,0.489
	c-0.002,0.269-0.198,0.487-0.432,0.487c-0.238,0-0.432-0.218-0.434-0.487C83.924,75.026,84.118,74.808,84.362,74.808L84.362,74.808
	L84.362,74.808z M84.362,75.928c0.215,0,0.389,0.203,0.386,0.453c-0.005,0.25-0.179,0.453-0.386,0.453
	c-0.209,0-0.385-0.203-0.388-0.453S84.144,75.928,84.362,75.928L84.362,75.928L84.362,75.928z M84.362,77.051
	c0.19,0,0.34,0.187,0.336,0.415c-0.004,0.23-0.156,0.417-0.336,0.417c-0.182,0-0.334-0.187-0.339-0.417
	C84.019,77.237,84.169,77.051,84.362,77.051L84.362,77.051L84.362,77.051z M84.362,78.172c0.162,0,0.287,0.169,0.283,0.379
	c-0.005,0.208-0.133,0.38-0.284,0.38c-0.153,0-0.279-0.171-0.285-0.38C84.071,78.341,84.199,78.172,84.362,78.172L84.362,78.172
	L84.362,78.172z M85.892,74.808c0.241,0,0.43,0.218,0.419,0.489c-0.014,0.269-0.218,0.487-0.453,0.487
	c-0.237,0-0.423-0.218-0.415-0.487C85.45,75.026,85.65,74.808,85.892,74.808L85.892,74.808L85.892,74.808z M86.134,75.928
	c0.218,0,0.379,0.203,0.357,0.453c-0.023,0.25-0.209,0.453-0.421,0.453c-0.208,0-0.367-0.203-0.354-0.453
	C85.731,76.131,85.918,75.928,86.134,75.928L86.134,75.928L86.134,75.928z M86.322,77.051c0.191,0,0.322,0.187,0.292,0.415
	c-0.034,0.23-0.208,0.417-0.389,0.417c-0.182,0-0.311-0.187-0.288-0.417C85.96,77.237,86.131,77.051,86.322,77.051L86.322,77.051
	L86.322,77.051z M86.438,78.172c0.161,0,0.261,0.169,0.22,0.379c-0.042,0.208-0.2,0.38-0.351,0.38c-0.153,0-0.248-0.171-0.217-0.38
	C86.12,78.341,86.276,78.172,86.438,78.172L86.438,78.172L86.438,78.172z M88.573,79.294c0.132,0,0.171,0.154,0.077,0.342
	c-0.094,0.19-0.274,0.343-0.398,0.343c-0.122,0-0.148-0.153-0.065-0.343C88.27,79.448,88.441,79.294,88.573,79.294L88.573,79.294
	L88.573,79.294z M86.468,79.294c0.132,0,0.201,0.154,0.152,0.342c-0.05,0.19-0.19,0.343-0.313,0.343
	c-0.121,0-0.19-0.153-0.148-0.343C86.196,79.448,86.335,79.294,86.468,79.294L86.468,79.294L86.468,79.294z M84.362,79.294
	c0.131,0,0.234,0.154,0.23,0.342c-0.007,0.19-0.109,0.343-0.23,0.343c-0.122,0-0.228-0.153-0.232-0.343
	C84.125,79.448,84.228,79.294,84.362,79.294L84.362,79.294L84.362,79.294z M82.253,79.294c0.132,0,0.271,0.154,0.311,0.342
	c0.041,0.19-0.026,0.343-0.149,0.343c-0.121,0-0.263-0.153-0.313-0.343C82.053,79.448,82.122,79.294,82.253,79.294L82.253,79.294
	L82.253,79.294z M86.864,73.686c0.262,0,0.473,0.235,0.466,0.524c-0.006,0.292-0.228,0.525-0.489,0.525
	c-0.259,0-0.462-0.233-0.457-0.525C86.387,73.921,86.602,73.686,86.864,73.686L86.864,73.686L86.864,73.686z M80.148,79.294
	c0.133,0,0.303,0.154,0.387,0.342c0.085,0.19,0.058,0.343-0.064,0.343c-0.125,0-0.303-0.153-0.398-0.343
	C79.979,79.448,80.015,79.294,80.148,79.294L80.148,79.294L80.148,79.294z M81.861,73.686c0.262,0,0.474,0.235,0.478,0.524
	c0.003,0.292-0.199,0.525-0.459,0.525c-0.26,0-0.481-0.233-0.488-0.525C81.385,73.921,81.599,73.686,81.861,73.686L81.861,73.686
	L81.861,73.686z M83.112,73.686c0.262,0,0.472,0.235,0.475,0.524c0.001,0.292-0.208,0.525-0.468,0.525
	c-0.26,0-0.476-0.233-0.48-0.525C82.635,73.921,82.849,73.686,83.112,73.686L83.112,73.686L83.112,73.686z M84.363,73.686
	c0.262,0,0.472,0.235,0.472,0.524c0,0.292-0.213,0.525-0.473,0.525c-0.261,0-0.475-0.233-0.476-0.525
	C83.886,73.921,84.101,73.686,84.363,73.686L84.363,73.686L84.363,73.686z M85.614,73.686c0.262,0,0.472,0.235,0.468,0.524
	c-0.003,0.292-0.22,0.525-0.48,0.525c-0.26,0-0.469-0.233-0.467-0.525C85.137,73.921,85.351,73.686,85.614,73.686L85.614,73.686
	L85.614,73.686z"/>
<path fill="#E37E4C" d="M105.544,63.041c-0.228,0-0.413,0.185-0.413,0.413v3.301c-0.004-0.001-0.006-0.002-0.009-0.002
	c-0.043,0.192-0.245,0.338-0.488,0.338c-0.254,0-0.462-0.163-0.489-0.371h-0.005v-3.266c0-0.228-0.184-0.413-0.412-0.413
	c-0.226,0-0.411,0.185-0.411,0.413v3.266h-0.006c-0.025,0.208-0.233,0.371-0.49,0.371c-0.242,0-0.444-0.146-0.486-0.338
	c-0.005,0-0.007,0.001-0.01,0.002v-3.301c0-0.228-0.185-0.413-0.41-0.413c-0.228,0-0.412,0.185-0.412,0.413v4.062
	c0,0.007,0.001,0.012,0.001,0.018c0,0.008-0.001,0.013-0.001,0.021v1.217c0,0.589,0.693,1.503,1.274,1.587v11.133
	c0,0.526,0.425,0.952,0.949,0.952s0.949-0.426,0.949-0.952V70.359c0.582-0.083,1.277-0.998,1.277-1.587v-1.217
	c0-0.007-0.002-0.013-0.002-0.02c0-0.006,0.002-0.012,0.002-0.019v-4.062C105.955,63.226,105.771,63.041,105.544,63.041"/>
<path fill="#E37E4C" d="M113.495,66.714c0-1.55-1.253-4.21-2.798-4.21c-1.547,0-2.801,2.66-2.801,4.21
	c0,1.166,0.709,2.167,1.717,2.591v12.049c0,0.631,0.445,1.143,0.996,1.143c0.551,0,0.997-0.512,0.997-1.143V69.37
	C112.705,68.991,113.495,67.946,113.495,66.714"/>
<path fill="#E37E4C" d="M79.766,52.34c-1.02,0.453-1.506-0.024-1.935-0.697c-0.562-0.883-0.431-1.171,0.555-1.475
	c0.231-0.071,0.478-0.075,0.698-0.197c0.215-0.12,0.428-0.23,0.584-0.436c0.349-0.457,0.797-0.661,1.37-0.588
	c0.304,0.039,0.598,0.031,0.899,0.174c0.323,0.153,0.599,0.272,0.589,0.694c-0.003,0.142,0.128,0.207,0.18,0.315
	c0.112,0.237,0.32,0.408,0.374,0.694c0.03,0.157-0.011,0.509,0.374,0.371c0.07-0.025,0.168,0.161,0.226,0.272
	c0.114,0.221,0.294,0.414,0.379,0.633c0.129,0.335,0.478,0.32,0.658,0.549c0.044,0.056,0.127,0.033,0.194,0.002
	c0.178-0.083,0.326-0.021,0.488,0.073c0.261,0.151,0.572,0.146,0.856,0.181c0.396,0.048,0.786,0.127,1.177,0.192
	c0.068,0.011,0.138,0.042,0.204,0.035c1.529-0.175,3.074-0.079,4.6-0.301c0.206-0.03,0.417-0.014,0.624-0.031
	c0.52-0.042,0.866-0.327,1.037-0.83c0.233-0.688,0.236-1.341-0.147-2.002c-0.311-0.536-0.583-1.096-0.905-1.627
	c-0.241-0.396-0.384-0.841-0.506-1.29c-0.022-0.083-0.024-0.179-0.007-0.263c0.058-0.29,0.286-0.384,0.498-0.183
	c0.188,0.179,0.373,0.385,0.491,0.616c0.42,0.822,0.888,1.618,1.332,2.425c0.361,0.657,0.396,1.316,0.332,2.015
	c-0.047,0.515-0.112,1.025-0.326,1.507c-0.122,0.274-0.067,0.56,0.09,0.821c0.274,0.456,0.43,0.934,0.511,1.483
	c0.087,0.594,0.262,1.236,0.899,1.542c0.329,0.158,0.479,0.459,0.515,0.816c0.019,0.194,0.002,0.393-0.008,0.589
	c-0.021,0.388-0.107,0.773,0.009,1.165c0.044,0.147,0.012,0.32,0.013,0.48c0.003,0.245-0.134,0.413-0.319,0.52
	c-0.369,0.213-1.301,0.121-1.594-0.504c-0.147-0.313-0.099-0.474,0.242-0.599c0.158-0.058,0.099-0.08,0.021-0.138
	c-0.111-0.082-0.063-0.187-0.05-0.292c0.027-0.202-0.025-0.379-0.125-0.56c-0.253-0.456-0.341-0.472-0.643-0.066
	c-0.367,0.493-1.114,0.386-1.364-0.197c-0.014-0.032-0.019-0.069-0.03-0.103c-0.189-0.581-0.338-0.623-0.753-0.167
	c-0.3,0.329-0.655,0.587-0.982,0.878c-0.417,0.371-0.841,0.327-1.221-0.09c-0.132-0.145-0.256-0.166-0.451-0.165
	c-0.814,0.005-1.595,0.284-2.413,0.276c-0.409-0.004-0.824,0.085-1.24,0.105c-0.379,0.019-0.633,0.188-0.743,0.607
	c-0.067,0.257-0.11,0.522-0.195,0.776c-0.089,0.269-0.241,0.415-0.521,0.443c-0.295,0.029-0.588,0.025-0.881-0.008
	c-0.372-0.042-0.498-0.276-0.353-0.64c0.075-0.186,0.213-0.322,0.346-0.465c0.344-0.37,0.296-0.776-0.12-1.064
	c-0.086-0.06-0.169-0.125-0.261-0.174c-0.905-0.481-1.547-1.184-1.79-2.232c-0.052-0.228-0.154-0.391-0.392-0.516
	c-0.47-0.249-0.597-0.652-0.446-1.169c0.135-0.464,0.268-0.92,0.14-1.417c-0.038-0.147,0.003-0.32,0.026-0.479
	c0.027-0.188-0.009-0.352-0.116-0.503C80.207,52.129,79.983,52.243,79.766,52.34L79.766,52.34z"/>
<path fill="#E37E4C" d="M136.76,39.083c-1.144,0-1.754-0.441-2.245-0.796c-0.43-0.312-0.742-0.537-1.44-0.537
	c-0.698,0-1.01,0.225-1.441,0.537c-0.491,0.355-1.101,0.796-2.245,0.796c-1.143,0-1.753-0.441-2.243-0.796
	c-0.43-0.312-0.741-0.537-1.439-0.537c-0.698,0-1.009,0.225-1.44,0.537c-0.49,0.355-1.1,0.796-2.244,0.796
	c-1.143,0-1.753-0.441-2.243-0.796c-0.431-0.312-0.742-0.537-1.439-0.537c-0.375,0-0.678-0.299-0.678-0.667s0.303-0.667,0.678-0.667
	c1.144,0,1.753,0.442,2.243,0.796c0.431,0.312,0.741,0.537,1.439,0.537c0.699,0,1.01-0.226,1.44-0.537
	c0.49-0.354,1.101-0.796,2.244-0.796s1.753,0.442,2.244,0.797c0.43,0.312,0.742,0.537,1.439,0.537c0.699,0,1.011-0.226,1.441-0.537
	c0.491-0.354,1.101-0.796,2.245-0.796s1.754,0.442,2.244,0.796c0.431,0.312,0.743,0.537,1.441,0.537
	c0.375,0,0.678,0.298,0.678,0.667S137.135,39.083,136.76,39.083"/>
<path fill="#E37E4C" d="M136.78,42.479c-1.144,0-1.754-0.441-2.245-0.796c-0.431-0.312-0.742-0.537-1.441-0.537
	c-0.699,0-1.01,0.225-1.441,0.537c-0.491,0.355-1.101,0.796-2.245,0.796s-1.754-0.441-2.244-0.796
	c-0.431-0.312-0.742-0.537-1.439-0.537c-0.698,0-1.01,0.225-1.44,0.537c-0.491,0.355-1.101,0.796-2.244,0.796
	c-1.144,0-1.753-0.441-2.244-0.796c-0.43-0.312-0.741-0.537-1.439-0.537c-0.375,0-0.678-0.299-0.678-0.667s0.304-0.667,0.678-0.667
	c1.143,0,1.753,0.441,2.243,0.797c0.431,0.312,0.742,0.537,1.44,0.537s1.009-0.226,1.44-0.537c0.49-0.355,1.101-0.796,2.244-0.796
	s1.753,0.441,2.243,0.796c0.431,0.312,0.741,0.537,1.44,0.537c0.698,0,1.01-0.226,1.441-0.537c0.49-0.355,1.101-0.796,2.245-0.796
	c1.144,0,1.754,0.441,2.245,0.796c0.431,0.312,0.742,0.537,1.441,0.537c0.375,0,0.678,0.298,0.678,0.667
	S137.154,42.479,136.78,42.479"/>
<path fill="#E37E4C" d="M123.134,36.98c-0.375,0-0.678-0.298-0.678-0.667l0.002-8.199c0.052-0.765,0.006-2.941-0.821-3.81
	c-0.223-0.234-0.479-0.343-0.807-0.343c-0.431,0-0.771,0.134-1.039,0.408c-0.682,0.698-0.776,2.149-0.756,2.649
	c0.016,0.367-0.274,0.678-0.648,0.694c-0.371,0.019-0.69-0.268-0.707-0.636c-0.004-0.096-0.094-2.371,1.128-3.627
	c0.523-0.538,1.222-0.822,2.021-0.822c0.7,0,1.322,0.266,1.799,0.768c1.346,1.417,1.211,4.349,1.183,4.786v8.132
	C123.812,36.682,123.508,36.98,123.134,36.98"/>
<path fill="#E37E4C" d="M131.766,36.947c-0.375,0-0.678-0.298-0.678-0.667l0.002-8.199c0.052-0.765,0.006-2.941-0.821-3.81
	c-0.223-0.234-0.479-0.343-0.807-0.343c-0.431,0-0.771,0.134-1.039,0.408c-0.682,0.698-0.776,2.149-0.755,2.649
	c0.016,0.368-0.275,0.679-0.648,0.694c-0.373,0.016-0.69-0.268-0.707-0.636c-0.004-0.096-0.093-2.371,1.128-3.627
	c0.523-0.538,1.222-0.822,2.021-0.822c0.701,0,1.322,0.266,1.799,0.768c1.346,1.417,1.211,4.349,1.183,4.786v8.132
	C132.444,36.648,132.141,36.947,131.766,36.947"/>
<path fill="#E37E4C" d="M131.533,29.615h-8.289c-0.374,0-0.678-0.299-0.678-0.667c0-0.368,0.304-0.667,0.678-0.667h8.289
	c0.374,0,0.678,0.298,0.678,0.667C132.211,29.317,131.907,29.615,131.533,29.615"/>
<path fill="#E37E4C" d="M131.533,32.672h-8.289c-0.374,0-0.678-0.299-0.678-0.667c0-0.369,0.304-0.667,0.678-0.667h8.289
	c0.374,0,0.678,0.298,0.678,0.667C132.21,32.374,131.907,32.672,131.533,32.672"/>
<path fill="#E37E4C" d="M131.694,35.637h-8.289c-0.375,0-0.678-0.298-0.678-0.667c0-0.369,0.303-0.667,0.678-0.667h8.289
	c0.375,0,0.678,0.298,0.678,0.667C132.372,35.339,132.068,35.637,131.694,35.637"/>
<path fill="#E37E4C" d="M85.806,91.02c0.362,0,0.657,0.307,0.657,0.685s-0.294,0.685-0.657,0.685c-0.363,0-0.657-0.306-0.657-0.685
	S85.443,91.02,85.806,91.02"/>
<path fill="#E37E4C" d="M84.733,89.838c0.147,0,0.267,0.125,0.267,0.278c0,0.153-0.119,0.278-0.267,0.278
	c-0.147,0-0.267-0.125-0.267-0.278C84.466,89.963,84.586,89.838,84.733,89.838"/>
<path fill="#E37E4C" d="M81.19,87.248c0.147,0,0.267,0.125,0.267,0.278c0,0.153-0.119,0.278-0.267,0.278s-0.267-0.125-0.267-0.278
	C80.923,87.373,81.042,87.248,81.19,87.248"/>
<path fill="#E37E4C" d="M83.662,88.253c0.292,0,0.528,0.246,0.528,0.55c0,0.304-0.236,0.55-0.528,0.55
	c-0.291,0-0.527-0.246-0.527-0.55C83.135,88.499,83.371,88.253,83.662,88.253"/>
<path fill="#E37E4C" d="M83.487,90.312c0.225,0,0.408,0.19,0.408,0.425c0,0.235-0.183,0.425-0.408,0.425
	c-0.226,0-0.408-0.19-0.408-0.425C83.079,90.502,83.261,90.312,83.487,90.312"/>
<path fill="#E37E4C" d="M84.894,86.896c0.225,0,0.408,0.19,0.408,0.425c0,0.235-0.183,0.425-0.408,0.425s-0.407-0.19-0.407-0.425
	C84.487,87.086,84.668,86.896,84.894,86.896"/>
<path fill="#E37E4C" d="M96.398,94.717l-2.114,0.032c-0.366,0.005-0.738,0.009-1.115,0.012c-0.903,0.006-1.836,0.012-2.785,0.019
	c-0.949,0.002-1.912,0.005-2.875,0.008c-0.963-0.003-1.927-0.006-2.875-0.008c-0.948-0.007-1.881-0.014-2.784-0.02
	c-1.536-0.012-2.983-0.041-4.27-0.062c0.215,0.604,0.631,1.767,0.887,2.494c0.312,0.889,0.918,2.32,2.311,2.8l-0.299,1.15h0.719
	l0.394-0.987c1.739,0.197,2.72,0.318,5.917,0.318c3.198,0,4.18-0.122,5.917-0.318l0.394,0.987h0.718l-0.299-1.15
	c1.394-0.479,1.999-1.911,2.312-2.8c0.256-0.728,0.671-1.89,0.886-2.493C97.103,94.705,96.755,94.711,96.398,94.717"/>
<path fill="#E37E4C" d="M85.806,87.843c0.362,0,0.657,0.306,0.657,0.685c0,0.378-0.294,0.685-0.657,0.685
	c-0.363,0-0.657-0.307-0.657-0.685C85.149,88.149,85.443,87.843,85.806,87.843"/>
<path fill="#E37E4C" d="M87.243,90.035c0.147,0,0.267,0.124,0.267,0.278c0,0.153-0.119,0.278-0.267,0.278
	c-0.147,0-0.267-0.125-0.267-0.278C86.977,90.159,87.096,90.035,87.243,90.035"/>
<path fill="#E37E4C" d="M81.864,85.425c0.147,0,0.267,0.125,0.267,0.278c0,0.154-0.12,0.278-0.267,0.278s-0.267-0.124-0.267-0.278
	C81.597,85.549,81.716,85.425,81.864,85.425"/>
<path fill="#E37E4C" d="M86.572,85.703c0.291,0,0.527,0.246,0.527,0.55c0,0.304-0.236,0.55-0.527,0.55
	c-0.292,0-0.528-0.246-0.528-0.55C86.044,85.949,86.28,85.703,86.572,85.703"/>
<path fill="#E37E4C" d="M83.079,86.252c0.225,0,0.408,0.19,0.408,0.425c0,0.235-0.183,0.425-0.408,0.425
	c-0.226,0-0.408-0.19-0.408-0.425C82.671,86.442,82.854,86.252,83.079,86.252"/>
<path fill="#E37E4C" d="M81.864,89.413c0.225,0,0.408,0.19,0.408,0.425c0,0.234-0.183,0.425-0.408,0.425
	c-0.225,0-0.407-0.19-0.407-0.425C81.457,89.603,81.639,89.413,81.864,89.413"/>
<path fill="#E37E4C" d="M83.91,92.718c0.363,0,0.657,0.307,0.657,0.685c0,0.378-0.294,0.685-0.657,0.685
	c-0.363,0-0.657-0.306-0.657-0.685C83.253,93.025,83.547,92.718,83.91,92.718"/>
<path fill="#E37E4C" d="M81.591,92.011c0.225,0,0.408,0.19,0.408,0.425s-0.183,0.425-0.408,0.425c-0.226,0-0.408-0.19-0.408-0.425
	S81.366,92.011,81.591,92.011"/>
<path fill="#E37E4C" d="M86.044,92.978c0.225,0,0.408,0.19,0.408,0.425c0,0.235-0.183,0.425-0.408,0.425
	c-0.226,0-0.408-0.19-0.408-0.425C85.636,93.168,85.819,92.978,86.044,92.978"/>
<path fill="#E37E4C" d="M106.288,37.446l0.449,4.938h0.589l0.483-4.914c1.531-0.157,2.884-0.855,3.827-1.882l1.452,5.45h0.56
	l-0.981-7.083c-1.637,0.859-6.359,1.209-6.359,1.209s-3.433-0.451-4.674-1.192l-0.982,7.081h0.56l1.455-5.463
	C103.566,36.57,104.842,37.25,106.288,37.446L106.288,37.446z"/>
<path fill="#E37E4C" d="M101.792,33.737c1.591,0.637,3.227,0.962,4.881,1.003c1.908,0.048,3.844-0.283,5.77-0.95l-0.078-0.621
	c-0.273,0.04-0.634,0.168-0.893,0.192c0.44-1.442-0.154-3.237-0.978-4.448c-1.093-1.606-2.558-3.187-2.367-6.544
	c-0.626,0.424-1.109,1.013-1.455,1.697c-0.915,1.81-0.875,4.297,0,6.245c0.114,0.257,0.243,0.503,0.386,0.738
	c-0.121-0.13-0.252-0.272-0.386-0.428c-0.759-0.873-1.676-2.162-2.082-4.027c-0.798,1.785-0.937,2.769-0.662,3.961
	c-0.462-0.617-0.792-1.307-0.979-2.077c-1.285,1.517-1.281,3.167-0.036,4.814c-0.353-0.065-0.732-0.198-1.085-0.246L101.792,33.737
	L101.792,33.737L101.792,33.737z M102.875,30.466c0.403,0.816,1.187,1.382,2.001,1.73c-0.556-1.168-0.467-2.869-0.26-3.548
	c0.301,1.052,1.198,1.972,2.057,2.661c0.508,0.408,1.003,0.735,1.354,0.959c-1.042-2.396-1.771-4.562-0.62-7.86
	c-0.118,3.889,2.745,4.733,3.034,7.016c0.237,1.868-1,2.379-2.531,2.534c-0.351,0.036-0.783,0.056-1.236,0.044
	c-0.853-0.022-1.778-0.157-2.373-0.508C103.329,32.92,102.899,31.805,102.875,30.466L102.875,30.466L102.875,30.466z"/>
<path fill="#E37E4C" d="M147.476,41.315c-0.713,0-1.293-0.58-1.293-1.293s0.58-1.294,1.293-1.294s1.293,0.581,1.293,1.294
	S148.188,41.315,147.476,41.315L147.476,41.315L147.476,41.315z M147.476,39.467c-0.306,0-0.554,0.249-0.554,0.555
	c0,0.305,0.249,0.554,0.554,0.554c0.305,0,0.554-0.249,0.554-0.554C148.029,39.716,147.781,39.467,147.476,39.467L147.476,39.467
	L147.476,39.467z"/>
<path fill="#E37E4C" d="M150.801,37.25c-0.281,0-0.558-0.127-0.74-0.37c-0.403-0.537-1.446-1.108-2.586-1.108
	s-2.184,0.571-2.586,1.108c-0.306,0.409-0.885,0.491-1.293,0.185c-0.408-0.306-0.491-0.886-0.185-1.293
	c0.69-0.92,2.214-1.848,4.064-1.848s3.375,0.928,4.064,1.848c0.306,0.408,0.223,0.987-0.185,1.293
	C151.189,37.19,150.994,37.25,150.801,37.25"/>
<path fill="#E37E4C" d="M154.126,33.924c-0.279,0-0.554-0.125-0.735-0.364c-1.255-1.648-3.412-2.593-5.916-2.593
	s-4.661,0.945-5.916,2.593c-0.309,0.406-0.889,0.483-1.294,0.175c-0.406-0.31-0.484-0.889-0.175-1.295
	c1.607-2.11,4.299-3.32,7.385-3.32c3.085,0,5.777,1.21,7.384,3.32c0.31,0.406,0.231,0.985-0.174,1.295
	C154.518,33.862,154.321,33.924,154.126,33.924"/>
<path fill="#E37E4C" d="M138.238,30.228c-0.214,0-0.43-0.074-0.604-0.226c-0.385-0.334-0.427-0.917-0.092-1.303
	c2.245-2.589,5.772-4.015,9.934-4.015s7.69,1.425,9.934,4.013c0.334,0.386,0.292,0.969-0.093,1.304
	c-0.385,0.334-0.969,0.292-1.303-0.092c-1.887-2.177-4.92-3.376-8.538-3.376s-6.65,1.2-8.539,3.377
	C138.754,30.12,138.497,30.228,138.238,30.228"/>
<path fill="#E37E4C" d="M86.278,38.069c-0.488-1.151-0.228-1.811,0.147-2.432c0.411-0.681,0.517-1.355,0.517-1.355
	s0.323,0.477,0.193,1.221c0.571-0.72,0.679-1.867,0.593-2.306c1.291,1.022,1.843,3.233,1.099,4.872
	c3.954-2.533,0.983-6.323,0.466-6.75c0.172,0.427,0.205,1.15-0.144,1.501c-0.59-2.531-2.047-3.05-2.047-3.05
	c0.172,1.306-0.625,2.733-1.394,3.799c-0.027-0.521-0.056-0.88-0.297-1.377c-0.054,0.945-0.692,1.716-0.865,2.664
	C84.313,36.136,84.723,37.076,86.278,38.069"/>
<polyline fill="#E37E4C" points="96.938,42.415 78.18,42.415 77.263,39.553 97.854,39.553 96.938,42.415 "/>
<path fill="#E37E4C" d="M88.321,23.217H78.158v1.251l0.947,1.073V38.36h2.423v-8.943c0-1.133,0.158-2.027,1.791-2.027h3.933h1.069
	h3.628c1.632,0,1.791,0.894,1.791,2.027v8.943h2.423V25.542l0.947-1.073v-1.252H88.321"/>
<path fill="none" d="M211.668,24.5c-1.586,0-3.062,0.722-4.168,2.036c-1.105-1.313-2.578-2.034-4.162-2.034
	c-2.346,0-4.838,1.718-4.838,4.904c0,3.276,2.979,5.562,5.152,7.233c0.822,0.634,1.427,1.083,1.918,1.449
	c0.777,0.577,1.166,0.866,1.587,1.273c0.091,0.09,0.213,0.139,0.343,0.139c0.129,0,0.251-0.049,0.343-0.138
	c0.556-0.539,1.06-0.912,2.411-1.912l1.087-0.806c1.804-1.337,5.159-3.826,5.159-7.271C216.5,26.208,214.012,24.5,211.668,24.5
	L211.668,24.5L211.668,24.5z"/>
<path fill="#E7E6E4" d="M211.668,26.5c1.139,0,2.832,0.765,2.832,2.874c0,2.438-2.83,4.537-4.352,5.664l-1.084,0.805
	c-0.689,0.51-1.178,0.871-1.576,1.184c-0.209-0.161-0.445-0.336-0.725-0.543c-0.484-0.36-1.08-0.803-1.895-1.43
	c-1.947-1.495-4.37-3.354-4.37-5.646c0-2.131,1.696-2.904,2.838-2.904c0.993,0,1.903,0.458,2.634,1.323l1.529,1.816l1.529-1.817
	C209.759,26.958,210.672,26.5,211.668,26.5 M211.668,24.5c-1.586,0-3.062,0.722-4.168,2.036c-1.105-1.313-2.578-2.034-4.162-2.034
	c-2.346,0-4.838,1.718-4.838,4.904c0,3.276,2.979,5.562,5.152,7.233c0.822,0.634,1.427,1.083,1.918,1.449
	c0.777,0.577,1.166,0.866,1.587,1.273c0.091,0.09,0.213,0.139,0.343,0.139c0.129,0,0.251-0.049,0.343-0.138
	c0.556-0.539,1.06-0.912,2.411-1.912l1.087-0.806c1.804-1.337,5.159-3.826,5.159-7.271C216.5,26.208,214.012,24.5,211.668,24.5
	L211.668,24.5z"/>
<path fill="none" stroke="#E7E6E4" stroke-width="4" stroke-miterlimit="10" d="M211.668,24.5"/>
<path fill="#E7E6E4" d="M215.314,59.628l-4.196-5.488h-0.304l-0.306,0.299l-0.446-0.607c0.994-0.991,1.609-2.349,1.609-3.848
	c0-3.023-2.506-5.484-5.587-5.484c-3.08,0-5.586,2.46-5.586,5.484s2.506,5.485,5.586,5.485c0.913,0,1.772-0.221,2.535-0.603
	l0.56,0.625l-0.337,0.331v0.157c0,0,4.134,5.095,4.39,5.346s0.832,0.157,0.832,0.157s0.834-0.472,1.25-0.88
	C215.73,60.193,215.314,59.628,215.314,59.628L215.314,59.628L215.314,59.628z M202.475,49.984c0-1.955,1.619-3.547,3.611-3.547
	c1.993,0,3.613,1.592,3.613,3.547c0,1.957-1.62,3.548-3.613,3.548C204.094,53.532,202.475,51.94,202.475,49.984L202.475,49.984
	L202.475,49.984z"/>
<path fill="#212121" d="M188.332,64.5c-4.87,0-8.832,3.962-8.832,8.833s3.962,8.833,8.832,8.833c4.871,0,8.833-3.963,8.833-8.833
	S193.203,64.5,188.332,64.5L188.332,64.5L188.332,64.5z M188.577,67.123c1.075,0,1.952,0.876,1.952,1.953
	c0,1.077-0.877,1.952-1.952,1.952c-1.076,0-1.953-0.875-1.953-1.952C186.624,67.999,187.501,67.123,188.577,67.123L188.577,67.123
	L188.577,67.123z M191.249,78.81c-0.153,0.164-0.319,0.199-0.431,0.199h-4.483c-0.112,0-0.276-0.035-0.433-0.199
	c-0.118-0.128-0.18-0.295-0.18-0.496c0-0.204,0.06-0.375,0.176-0.507c0.154-0.175,0.322-0.212,0.437-0.212h0.509v-3.736h-0.509
	c-0.112,0-0.276-0.035-0.433-0.199c-0.118-0.128-0.18-0.295-0.18-0.496c0-0.204,0.06-0.374,0.176-0.506
	c0.154-0.176,0.322-0.212,0.437-0.212h3.755c0.121,0,0.221,0.098,0.221,0.219v4.931h0.508c0.113,0,0.281,0.037,0.436,0.212
	c0.117,0.132,0.176,0.303,0.176,0.507C191.43,78.516,191.368,78.682,191.249,78.81L191.249,78.81L191.249,78.81z"/>
<polyline fill="#E7E6E4" points="187.107,102.5 189.714,109.995 196.715,109.995 191.003,114.397 193.045,122.124 187.107,117.492 
	181.17,122.124 183.211,114.397 177.5,109.995 184.5,109.995 187.107,102.5 "/>
<polyline fill="#E7E6E4" points="187.107,122.5 189.714,129.995 196.715,129.995 191.003,134.396 193.045,142.124 187.107,137.492 
	181.17,142.124 183.211,134.396 177.5,129.995 184.5,129.995 187.107,122.5 "/>
<polyline fill="#F7B535" points="187.107,82.5 189.714,89.995 196.715,89.995 191.003,94.397 193.045,102.124 187.107,97.492 
	181.17,102.124 183.211,94.397 177.5,89.995 184.5,89.995 187.107,82.5 "/>
<path fill="#F7B535" d="M187.107,117.492l-5.938,4.632l2.041-7.727l-5.71-4.402h7l2.607-7.495V117.492L187.107,117.492z"/>
<path fill="#80C720" d="M185.285,59.946c-0.508,0-0.986-0.225-1.295-0.61l-4.161-5.207c-0.541-0.677-0.399-1.641,0.313-2.154
	c0.717-0.513,1.732-0.379,2.274,0.297l2.737,3.425l6.884-10.471c0.476-0.722,1.476-0.942,2.237-0.493
	c0.761,0.448,0.992,1.397,0.52,2.118l-8.132,12.369c-0.283,0.43-0.771,0.701-1.306,0.724
	C185.334,59.945,185.311,59.946,185.285,59.946"/>
<path fill="#F84B35" d="M193.268,36.441l-3.892-4.129l3.892-4.129c0.66-0.615,0.66-1.609,0-2.224
	c-0.662-0.613-1.734-0.613-2.396,0.001l-3.74,3.97l-3.741-3.97c-0.66-0.614-1.732-0.614-2.396-0.001c-0.66,0.614-0.66,1.609,0,2.224
	l3.892,4.129l-3.892,4.129c-0.66,0.614-0.66,1.608,0,2.224c0.661,0.613,1.733,0.613,2.396,0l3.741-3.971l3.74,3.971
	c0.662,0.613,1.733,0.613,2.396,0C193.928,38.049,193.928,37.056,193.268,36.441"/>
<polyline fill="#E7E6E4" points="89.5,116.33 89.5,108.5 83.646,112.416 89.5,116.33 "/>
<polyline fill="#E7E6E4" points="104.5,108.67 104.5,116.5 110.354,112.584 104.5,108.67 "/>
<polyline fill="#212121" points="129.5,116.33 129.5,108.5 123.646,112.416 129.5,116.33 "/>
<polyline fill="#212121" points="145,108.67 145,116.5 150.854,112.584 145,108.67 "/>
<path fill="#777777" d="M73.5,28.653c0-3.398-2.688-6.153-6-6.153c-3.313,0-6,2.755-6,6.153c0,1.122,0.299,2.171,0.808,3.077h-0.004
	l5.194,10.77l5.197-10.77h-0.006C73.202,30.824,73.5,29.775,73.5,28.653L73.5,28.653L73.5,28.653z M67.5,30.48
	c-1.391,0-2.52-1.157-2.52-2.584c0-1.428,1.129-2.586,2.52-2.586c1.393,0,2.521,1.158,2.521,2.586
	C70.021,29.323,68.893,30.48,67.5,30.48L67.5,30.48L67.5,30.48z"/>
<path fill="#80C720" d="M173.5,28.653c0-3.398-2.688-6.153-6-6.153s-6,2.755-6,6.153c0,1.122,0.299,2.171,0.809,3.077h-0.004
	l5.193,10.77l5.197-10.77h-0.006C173.202,30.824,173.5,29.775,173.5,28.653L173.5,28.653L173.5,28.653z M167.5,30.48
	c-1.393,0-2.521-1.157-2.521-2.584c0-1.428,1.129-2.586,2.521-2.586s2.521,1.158,2.521,2.586
	C170.021,29.323,168.893,30.48,167.5,30.48L167.5,30.48L167.5,30.48z"/>
<path fill="#80C720" d="M162.227,58.37c0.365,0.238,1.104,0.514,1.975,0.514c1.949,0,2.84-1.224,2.84-2.362
	c0-0.788-0.428-1.457-1.111-1.816c0.543-0.381,0.844-0.933,0.844-1.583c0-0.966-0.709-1.939-2.295-1.939
	c-0.867,0-1.623,0.314-2.004,0.584c-0.113,0.08-0.158,0.225-0.109,0.354l0.257,0.675c0.032,0.088,0.106,0.156,0.198,0.183
	c0.091,0.028,0.189,0.012,0.268-0.043c0.26-0.183,0.732-0.397,1.21-0.397c0.589,0,0.911,0.26,0.911,0.731
	c0,0.63-0.742,0.858-1.242,0.858h-0.523c-0.168,0-0.307,0.136-0.307,0.304v0.697c0,0.167,0.139,0.303,0.307,0.303h0.523
	c0.247,0,1.477,0.052,1.488,1.074c0.005,0.262-0.094,0.513-0.268,0.689c-0.221,0.221-0.556,0.333-0.996,0.333
	c-0.586,0-1.145-0.238-1.381-0.379c-0.078-0.046-0.176-0.057-0.262-0.025c-0.087,0.03-0.154,0.098-0.188,0.184l-0.256,0.707
	C162.059,58.146,162.107,58.292,162.227,58.37"/>
<path fill="#80C720" d="M168.156,53.187c0.021,0.09,0.087,0.165,0.174,0.203s0.186,0.033,0.27-0.011l0.775-0.414v5.5
	c0,0.167,0.139,0.303,0.307,0.303h0.908c0.17,0,0.309-0.136,0.309-0.303v-6.862c0-0.167-0.139-0.304-0.309-0.304h-0.801
	c-0.051,0-0.102,0.012-0.146,0.036l-1.517,0.802c-0.124,0.066-0.188,0.207-0.151,0.342L168.156,53.187"/>
<path fill="#80C720" d="M173.5,43.72h-1.543v1.393c0,0.529-0.436,0.961-0.973,0.961c-0.534,0-0.971-0.432-0.971-0.961V43.72h-5.994
	v1.393c0,0.529-0.437,0.961-0.973,0.961c-0.535,0-0.972-0.432-0.972-0.961V43.72h-1.543c-1.04,0-1.888,0.837-1.888,1.865v15.047
	c0,1.028,0.848,1.865,1.888,1.865H173.5c1.04,0,1.887-0.837,1.887-1.865V45.585C175.387,44.557,174.54,43.72,173.5,43.72
	L173.5,43.72L173.5,43.72z M174.158,60.632c0,0.359-0.295,0.651-0.658,0.651h-12.967c-0.363,0-0.658-0.292-0.658-0.651v-12.27
	h14.283V60.632L174.158,60.632L174.158,60.632z"/>
<path fill="#80C720" d="M163.048,45.467c0.198,0,0.356-0.158,0.356-0.354V42.9c0-0.195-0.158-0.354-0.356-0.354
	c-0.196,0-0.356,0.158-0.356,0.354v2.213C162.689,45.309,162.852,45.467,163.048,45.467"/>
<path fill="#80C720" d="M170.984,45.467c0.197,0,0.357-0.158,0.357-0.354V42.9c0-0.195-0.16-0.354-0.357-0.354
	s-0.356,0.158-0.356,0.354v2.213C170.628,45.309,170.787,45.467,170.984,45.467"/>
<path fill="#212121" d="M176.016,107.448l-4.158-2.854c-0.185-0.126-0.414-0.126-0.6,0l-3.857,2.648l-3.858-2.648
	c-0.187-0.126-0.416-0.126-0.601,0l-4.158,2.854c-0.176,0.12-0.282,0.337-0.282,0.571v11.414c0,0.24,0.113,0.461,0.296,0.58
	c0.182,0.117,0.406,0.115,0.586-0.009l3.858-2.648l3.858,2.648c0.186,0.126,0.414,0.126,0.6,0l3.859-2.648l3.857,2.648
	c0.092,0.063,0.195,0.095,0.299,0.095c0.1,0,0.198-0.029,0.288-0.086c0.183-0.119,0.295-0.34,0.295-0.58V108.02
	C176.298,107.785,176.189,107.568,176.016,107.448L176.016,107.448L176.016,107.448z M162.658,116.203l-2.994,2.054v-9.861
	l2.994-2.054V116.203L162.658,116.203L162.658,116.203z M166.816,118.257l-2.994-2.054v-9.861l2.994,2.055V118.257L166.816,118.257
	L166.816,118.257z M170.977,116.203l-2.994,2.054v-9.861l2.994-2.055V116.203L170.977,116.203L170.977,116.203z M175.134,118.257
	l-2.993-2.054v-9.861l2.993,2.054V118.257L175.134,118.257L175.134,118.257z"/>
<path fill="#212121" d="M99.667,193.938v-28.172h1.833v28.129h-1.833V193.938L99.667,193.938L99.667,193.938z M87.477,165.766
	h11.167v28.131h-13.98c0.042-0.045,0.085-0.088,0.128-0.088c0.085-0.086,0.17-0.129,0.255-0.216c0.043-0.043,0.085-0.087,0.128-0.13
	c0.128-0.086,0.213-0.216,0.341-0.303c0.042-0.043,0.085-0.086,0.127-0.129c0.085-0.088,0.171-0.217,0.256-0.303
	c0.042-0.043,0.085-0.131,0.128-0.174c0.085-0.087,0.128-0.173,0.213-0.26c0.042-0.043,0.085-0.129,0.127-0.173
	c0.085-0.129,0.171-0.259,0.213-0.39c0.042-0.043,0.085-0.129,0.085-0.172c0.043-0.086,0.085-0.217,0.171-0.347
	c0.042-0.086,0.085-0.173,0.085-0.259c0.042-0.087,0.085-0.217,0.128-0.303s0.042-0.131,0.085-0.217
	c0.042-0.129,0.085-0.303,0.128-0.433c0-0.086,0.042-0.173,0.042-0.216c0-0.13,0.042-0.217,0.042-0.346
	c0-0.086,0.042-0.217,0.042-0.303v-0.217v-23.16h0.089V165.766L87.477,165.766z M81.211,193.938c-2.855,0-5.2-2.377-5.2-5.271
	c0-2.896,2.345-5.271,5.2-5.271c2.856,0,5.2,2.375,5.2,5.271C86.412,191.562,84.11,193.938,81.211,193.938L81.211,193.938
	L81.211,193.938z M81.211,184.604c-2.216,0-4.006,1.815-4.006,4.062c0,2.246,1.79,4.062,4.006,4.062s4.006-1.815,4.006-4.062
	C85.261,186.42,83.471,184.604,81.211,184.604L81.211,184.604L81.211,184.604z M81.211,191.562c-1.577,0-2.855-1.297-2.855-2.896
	s1.278-2.896,2.855-2.896s2.856,1.297,2.856,2.896S82.789,191.562,81.211,191.562L81.211,191.562L81.211,191.562z M81.211,186.938
	c-0.938,0-1.705,0.777-1.705,1.729c0,0.95,0.768,1.729,1.705,1.729s1.705-0.778,1.705-1.729
	C82.917,187.716,82.149,186.938,81.211,186.938L81.211,186.938L81.211,186.938z M81.211,182.357c-2.174,0-4.092,1.123-5.2,2.81
	v-21.476h0.085c0.469-2.42,2.558-4.191,5.072-4.191s4.603,1.814,5.072,4.191h0.085v21.519
	C85.303,183.48,83.385,182.357,81.211,182.357L81.211,182.357L81.211,182.357z"/>
<path fill="#E37E4C" d="M115.923,53.76l-3.708,1.052l-3.456-2.053l3.457-2.053l3.708,1.053c0.266,0.075,0.542-0.079,0.618-0.345
	s-0.079-0.542-0.345-0.617l-2.797-0.794l2.43-1.443c0.238-0.141,0.316-0.448,0.175-0.686c-0.141-0.237-0.448-0.315-0.685-0.174
	l-2.393,1.421l0.738-2.905c0.068-0.268-0.094-0.54-0.361-0.608c-0.267-0.068-0.54,0.094-0.608,0.361l-0.984,3.874l-3.431,2.038
	v-4.104l2.739-2.818c0.192-0.198,0.188-0.515-0.01-0.707c-0.198-0.192-0.514-0.188-0.707,0.01l-2.021,2.08V43.5
	c0-0.276-0.224-0.5-0.5-0.5c-0.276,0-0.5,0.224-0.5,0.5v2.842l-2.021-2.08c-0.192-0.198-0.509-0.203-0.707-0.01
	c-0.198,0.192-0.202,0.509-0.01,0.707l2.738,2.817v4.104l-3.431-2.038l-0.984-3.874c-0.068-0.268-0.34-0.429-0.608-0.361
	c-0.268,0.068-0.43,0.34-0.361,0.608l0.738,2.905l-2.393-1.421c-0.237-0.141-0.544-0.063-0.685,0.174
	c-0.141,0.238-0.063,0.544,0.174,0.686l2.43,1.443l-2.797,0.794c-0.266,0.075-0.42,0.352-0.344,0.617
	c0.075,0.266,0.352,0.42,0.618,0.345l3.708-1.053l3.456,2.053l-3.456,2.053l-3.708-1.052c-0.266-0.075-0.542,0.079-0.618,0.344
	c-0.076,0.266,0.079,0.542,0.344,0.618l2.797,0.794l-2.43,1.443c-0.237,0.141-0.315,0.448-0.174,0.685
	c0.141,0.238,0.448,0.316,0.685,0.175l2.393-1.421l-0.738,2.905c-0.068,0.268,0.094,0.54,0.361,0.608
	c0.268,0.068,0.54-0.094,0.608-0.362l0.984-3.873l3.431-2.038v4.104l-2.738,2.818c-0.192,0.198-0.188,0.514,0.01,0.707
	c0.198,0.192,0.515,0.188,0.707-0.01l2.021-2.08v2.842c0,0.276,0.224,0.5,0.5,0.5c0.276,0,0.5-0.224,0.5-0.5v-2.842l2.021,2.08
	c0.193,0.198,0.509,0.203,0.707,0.01c0.198-0.193,0.203-0.509,0.01-0.707l-2.739-2.818v-4.103l3.431,2.038l0.984,3.873
	c0.068,0.268,0.34,0.43,0.608,0.362c0.268-0.068,0.429-0.34,0.361-0.608l-0.738-2.905l2.393,1.421
	c0.237,0.141,0.544,0.063,0.685-0.175c0.141-0.237,0.063-0.544-0.175-0.685l-2.43-1.443l2.797-0.794
	c0.266-0.075,0.42-0.352,0.345-0.618C116.466,53.838,116.189,53.685,115.923,53.76z"/>
<path fill="#212121" d="M159.631,192.566c-0.02,0.418,0.307,0.761,0.727,0.761h10.219c0.419,0,0.74-0.343,0.718-0.761
	c0,0-0.272-4.725,0.679-10.571c0.951-5.849,1.178-10.698-4.262-10.835c-5.439-0.135-5.068,7.097-5.486,7.3
	c-0.416,0.201-1.224-4.625-3.354-3.81c-1.874,0.72,0.064,4.471,0.499,9.021C159.822,188.434,159.631,192.566,159.631,192.566
	L159.631,192.566L159.631,192.566z"/>
<path fill="#212121" d="M126.143,174.839c0-0.378-0.307-0.685-0.684-0.685h-0.383v-12.953c0.833-0.04,1.499-0.723,1.499-1.565
	l-0.18-9.038l-1.592,8.363h-0.525l-1.559-8.363l-0.18,9.038c0,0.843,0.666,1.525,1.499,1.565v12.953h-0.383
	c-0.377,0-0.683,0.307-0.683,0.685l-0.472,17.737c0,0.488,0.397,0.887,0.887,0.887h2.34c0.49,0,0.887-0.396,0.887-0.887
	L126.143,174.839L126.143,174.839L126.143,174.839z M124.557,174.788c0.178,0,0.323,0.146,0.323,0.323s-0.145,0.322-0.323,0.322
	c-0.179,0-0.323-0.145-0.323-0.322S124.378,174.788,124.557,174.788L124.557,174.788L124.557,174.788z M124.511,192.602
	c-0.376,0-0.679-0.304-0.679-0.68c0-0.375,0.303-0.68,0.679-0.68c0.375,0,0.679,0.305,0.679,0.68
	C125.19,192.298,124.887,192.602,124.511,192.602L124.511,192.602L124.511,192.602z"/>
<path fill="#212121" d="M137.572,150.536h-7.346c-0.546,0-0.99,0.442-0.99,0.989l0.671,10.021c0,0.547,0.379,0.989,0.847,0.989
	h2.625v11.617h-0.383c-0.377,0-0.684,0.307-0.684,0.685l-0.472,17.738c0,0.489,0.397,0.887,0.887,0.887h2.34
	c0.49,0,0.887-0.397,0.887-0.887l-0.472-17.738c0-0.378-0.306-0.685-0.684-0.685h-0.383v-11.616h2.625
	c0.468,0,0.847-0.443,0.847-0.989l0.671-10.021C138.562,150.979,138.118,150.536,137.572,150.536L137.572,150.536L137.572,150.536z
	 M132.591,159.761c0,0.239-0.194,0.435-0.435,0.435c-0.239,0-0.434-0.194-0.434-0.435v-6.29c0-0.24,0.194-0.436,0.434-0.436
	c0.24,0,0.435,0.195,0.435,0.436V159.761L132.591,159.761L132.591,159.761z M133.464,153.471c0-0.24,0.195-0.436,0.434-0.436
	c0.24,0,0.434,0.195,0.434,0.436v6.29c0,0.239-0.194,0.435-0.434,0.435c-0.239,0-0.434-0.194-0.434-0.435V153.471L133.464,153.471
	L133.464,153.471z M134.222,175.111c0,0.179-0.145,0.322-0.323,0.322c-0.178,0-0.323-0.145-0.323-0.322s0.145-0.323,0.323-0.323
	C134.077,174.788,134.222,174.934,134.222,175.111L134.222,175.111L134.222,175.111z M134.577,191.922
	c0,0.376-0.304,0.68-0.679,0.68s-0.679-0.304-0.679-0.68c0-0.375,0.304-0.68,0.679-0.68S134.577,191.547,134.577,191.922
	L134.577,191.922L134.577,191.922z M136.074,159.761c0,0.239-0.195,0.435-0.434,0.435c-0.24,0-0.434-0.194-0.434-0.435v-6.29
	c0-0.24,0.194-0.436,0.434-0.436c0.24,0,0.434,0.195,0.434,0.436V159.761L136.074,159.761L136.074,159.761z"/>
<path fill="#212121" d="M145.559,174.839c0-0.368-0.294-0.666-0.66-0.679v-1.891v-21.597c0,0-2.197-0.375-2.197,14.815v6.779h0.51
	v1.887h-0.14c-0.377,0-0.684,0.306-0.684,0.685l-0.472,17.737c0,0.49,0.397,0.888,0.888,0.888h2.34c0.49,0,0.887-0.397,0.887-0.888
	L145.559,174.839L145.559,174.839L145.559,174.839z M143.973,174.788c0.178,0,0.323,0.146,0.323,0.323s-0.145,0.322-0.323,0.322
	c-0.179,0-0.323-0.145-0.323-0.322S143.794,174.788,143.973,174.788L143.973,174.788L143.973,174.788z M143.972,192.602
	c-0.375,0-0.679-0.304-0.679-0.68c0-0.375,0.304-0.68,0.679-0.68s0.679,0.305,0.679,0.68
	C144.651,192.298,144.347,192.602,143.972,192.602L143.972,192.602L143.972,192.602z"/>
<path fill="none" d="M155.661,151.404l-0.506,0.43l-0.447-0.488l-0.505,0.428l-0.233-0.256v0.02v9.531h-0.498v12.75
	c0.39,0.175,0.665,0.564,0.665,1.021l0.274,10.286l0.381-10.15c0.023-0.369-0.254-0.688-0.62-0.721l0.867-13.499l0.497,0.031
	l0.572-8.892L155.661,151.404L155.661,151.404L155.661,151.404z"/>
<path fill="#212121" d="M153.037,174.158v-13.527h0.498v-8.91l-0.477-0.461l-0.477,0.461l-0.477-0.461l-0.477,0.461l-0.477-0.461
	l-0.477,0.461l0.002,8.909h0.498v13.532c-0.357,0.023-0.642,0.312-0.642,0.677l-0.471,17.737c0,0.49,0.397,0.888,0.886,0.888h2.341
	c0.489,0,0.886-0.397,0.886-0.888l-0.471-17.737C153.701,174.468,153.405,174.169,153.037,174.158L153.037,174.158L153.037,174.158z
	 M152.116,174.788c0.178,0,0.323,0.146,0.323,0.323s-0.145,0.322-0.323,0.322c-0.178,0-0.323-0.145-0.323-0.322
	S151.938,174.788,152.116,174.788L152.116,174.788L152.116,174.788z M152.114,192.602c-0.375,0-0.678-0.304-0.678-0.68
	c0-0.375,0.303-0.68,0.678-0.68c0.376,0,0.68,0.305,0.68,0.68C152.794,192.298,152.49,192.602,152.114,192.602L152.114,192.602
	L152.114,192.602z"/>
<path fill="#212121" d="M227.242,166.656c-0.02,0-0.037,0.003-0.057,0.003l0,0c-0.002,0-0.006,0-0.01,0.001
	c-0.109,0.002-0.217,0.013-0.322,0.029c-0.303,0.031-0.734,0.074-1.267,0.127c-2.948,0.295-9.854,0.986-10.944,0.931
	c-0.004,0-0.006-0.001-0.009-0.001c0.019-0.355,0.403-1.209,0.644-1.736c0.174-0.386,0.354-0.783,0.49-1.154
	c0.303-0.815-0.035-1.586-0.879-2.008c-0.964-0.481-2.771-0.547-3.293,0.351c-0.379,0.647-2.656,3.43-4.308,4.845
	c-0.681,0.584-4.714,1.221-8.272,1.78c-4.557,0.718-9.721,1.53-12.924,2.758l-0.062,0.026c-2.211,1.138-3.627,3.957-3.524,7.019
	c0.063,1.894,0.854,6.575,6.812,9.129l0.183,0.079l0.194-0.043c10.221-2.244,28.904-2.242,36.881-2.236h0.669
	c2.671,0,4.763-4.369,4.763-9.949C232.005,171.025,229.912,166.656,227.242,166.656L227.242,166.656L227.242,166.656z
	 M227.242,167.963c1.65,0,3.492,3.549,3.492,8.643c0,2.543-0.459,4.699-1.125,6.224l-0.305-0.655
	c0.563-1.344,0.971-3.238,0.971-5.568c0-4.782-1.797-7.836-3.033-7.836c-0.742,0-1.655,1.023-2.284,2.846l-0.313-0.662
	C225.332,169.077,226.316,167.963,227.242,167.963L227.242,167.963L227.242,167.963z M214.189,184.499
	c-5.334,0.551-12.078,1.248-17.5,1.692c-2.588,0.132-5.125,0.252-7.51,0.356c5.506-0.653,20.711-1.909,33.204-2.876
	C220.48,183.854,217.846,184.122,214.189,184.499L214.189,184.499L214.189,184.499z M213.368,167.875
	c-0.136,0.009-0.29,0.02-0.474,0.032c0.157-0.026,0.314-0.052,0.473-0.077C213.368,167.846,213.368,167.859,213.368,167.875
	L213.368,167.875L213.368,167.875z M222.85,169.977c0.278-0.012,0.555-0.022,0.828-0.035c-0.027,0.063-0.055,0.129-0.08,0.194
	c-0.438,0.04-0.904,0.081-1.404,0.126c-2.614,0.213-6.027,0.42-9.575,0.616c1.127-0.123,2.243-0.242,3.33-0.354
	C218.525,170.311,220.932,170.117,222.85,169.977L222.85,169.977L222.85,169.977z M219.58,171.298
	c1.382-0.081,2.615-0.139,3.663-0.167c-0.044,0.143-0.087,0.285-0.127,0.434c-3.013,0.379-8.328,0.854-17.687,1.388
	c-2.854,0.162-5.701,0.308-8.324,0.434c2.729-0.194,6.187-0.479,10.562-0.891C211.912,172.096,216.143,171.662,219.58,171.298
	L219.58,171.298L219.58,171.298z M222.561,178.464c0.004,0.041,0.006,0.081,0.01,0.122c-3.102,0.249-6.745,0.539-10.543,0.837
	c0.031-0.004,0.061-0.007,0.09-0.011L222.561,178.464L222.561,178.464L222.561,178.464z M216.658,173.605
	c-2.242,0.168-4.658,0.347-7.051,0.521c-1.25,0.091-2.506,0.184-3.76,0.275c1.467-0.158,2.932-0.314,4.369-0.463
	c0.633-0.041,1.239-0.082,1.824-0.125c0.12-0.004,0.238-0.01,0.357-0.016C213.973,173.73,215.387,173.666,216.658,173.605
	L216.658,173.605L216.658,173.605z M192.468,175.174c-2.698,0.26-4.991,0.43-6.462,0.438c0.391-0.067,0.859-0.139,1.421-0.213
	C188.588,175.379,190.206,175.312,192.468,175.174L192.468,175.174L192.468,175.174z M209.652,174.779
	c4.568-0.336,8.892-0.652,12.105-0.91c-0.195,0.021-0.396,0.045-0.605,0.068c-4.004,0.457-9.396,1.071-14.866,1.633l-15.033,1.08
	c-2.79,0.127-5.062,0.22-6.435,0.273c-0.151-0.017-0.281-0.033-0.394-0.052C187.6,176.398,200.188,175.475,209.652,174.779
	L209.652,174.779L209.652,174.779z M192.809,178.312l-8.564,0.678C185.73,178.729,188.964,178.508,192.809,178.312L192.809,178.312
	L192.809,178.312z M184.384,180.158c1.935,0.029,5.979-0.284,13.236-0.967c0.662-0.028,1.328-0.055,1.991-0.082
	c-7.082,0.731-13.896,1.365-15.734,1.174C184.016,180.24,184.184,180.199,184.384,180.158L184.384,180.158L184.384,180.158z
	 M190.252,180.743l-2.492,0.226c-0.549,0.021-1.025,0.031-1.443,0.035C187.398,180.934,188.734,180.846,190.252,180.743
	L190.252,180.743L190.252,180.743z M190.514,183.979c0.672-0.031,1.387-0.066,2.137-0.104c-2.891,0.245-5.268,0.405-6.588,0.411
	C187.014,184.243,188.43,184.146,190.514,183.979L190.514,183.979L190.514,183.979z M210.577,183.12
	c-1.731,0.159-3.574,0.331-5.44,0.501c-2.998,0.214-6.096,0.42-9.139,0.611c2.912-0.27,6.482-0.618,10.827-1.051
	c0.724-0.072,1.456-0.146,2.19-0.219c6.101-0.388,10.156-0.719,12.861-0.998c0.467-0.029,0.898-0.062,1.303-0.093
	c0.012,0.041,0.025,0.081,0.037,0.122C220.752,182.189,216.832,182.541,210.577,183.12L210.577,183.12L210.577,183.12z
	 M224.372,171.792l0.374,0.502c-0.055,0.196-0.104,0.401-0.152,0.612l-0.4-0.42C224.249,172.248,224.309,172.016,224.372,171.792
	L224.372,171.792L224.372,171.792z M227.975,179.552c-0.236,0.505-0.51,0.787-0.731,0.787c-0.513,0-1.288-1.489-1.288-3.733
	s0.773-3.733,1.288-3.733c0.513,0,1.286,1.487,1.286,3.733c0,1.192-0.219,2.17-0.502,2.828l-0.133-0.287L227.975,179.552
	L227.975,179.552L227.975,179.552z M228.741,176.604c0-2.328-0.79-3.951-1.499-3.951c-0.404,0-0.834,0.527-1.129,1.408l-0.245-0.52
	c0.381-1.236,0.942-1.966,1.374-1.966c0.716,0,1.799,2.006,1.799,5.028c0,1.512-0.271,2.769-0.632,3.646l-0.261-0.559
	C228.492,178.994,228.741,177.909,228.741,176.604L228.741,176.604L228.741,176.604z M226.1,174.107
	c-0.216,0.662-0.356,1.517-0.356,2.496c0,2.33,0.79,3.953,1.499,3.953c0.271,0,0.555-0.24,0.801-0.666l0.161,0.801
	c-0.315,0.603-0.67,0.94-0.962,0.94c-0.717,0-1.799-2.006-1.799-5.028c0-1.114,0.147-2.09,0.369-2.879L226.1,174.107L226.1,174.107
	L226.1,174.107z M225.23,176.604c0,3.004,1.062,5.246,2.012,5.246c0.346,0,0.709-0.3,1.027-0.826l0.162,0.81
	c-0.396,0.703-0.828,1.095-1.189,1.095c-0.92,0-2.311-2.521-2.311-6.322c0-1.088,0.112-2.069,0.297-2.918l0.125,0.013l-0.104-0.106
	c0.036-0.16,0.074-0.316,0.115-0.468l0.285,0.383C225.395,174.364,225.23,175.425,225.23,176.604L225.23,176.604L225.23,176.604z
	 M225.066,173.4l-0.285-0.299c0.043-0.197,0.089-0.391,0.139-0.574l0.278,0.371C225.15,173.061,225.107,173.229,225.066,173.4
	L225.066,173.4L225.066,173.4z M225.009,173.662c-0.18,0.854-0.288,1.84-0.288,2.941c0,4.054,1.469,6.541,2.521,6.541
	c0.393,0,0.843-0.347,1.254-0.99l0.162,0.812c-0.473,0.81-0.985,1.257-1.416,1.257c-1.124,0-2.821-3.039-2.821-7.619
	c0-1.086,0.095-2.084,0.257-2.978L225.009,173.662L225.009,173.662L225.009,173.662z M228.532,180.518
	c0.422-0.944,0.72-2.322,0.72-3.914c0-3.002-1.062-5.246-2.011-5.246c-0.538,0-1.112,0.724-1.509,1.896l-0.25-0.527
	c0.488-1.541,1.207-2.444,1.759-2.444c0.919,0,2.311,2.521,2.311,6.321c0,1.834-0.323,3.367-0.762,4.465L228.532,180.518
	L228.532,180.518L228.532,180.518z M229.766,176.604c0-4.053-1.471-6.541-2.522-6.541c-0.616,0-1.374,0.854-1.897,2.371
	l-0.244-0.521c0.598-1.845,1.472-2.929,2.143-2.929c1.123,0,2.82,3.039,2.82,7.619c0,2.152-0.375,3.967-0.891,5.283l-0.253-0.545
	C229.406,180.218,229.766,178.604,229.766,176.604L229.766,176.604L229.766,176.604z M207.673,169.323
	c0.938-0.112,1.933-0.222,2.769-0.312c0.994-0.108,1.932-0.212,2.609-0.298c0.236-0.029,0.434-0.054,0.6-0.078
	c0.064,0.076,0.146,0.152,0.25,0.219c-0.758,0.069-1.521,0.142-2.284,0.213c-1.479,0.138-2.859,0.267-4.138,0.388
	c-0.033,0.002-0.064,0.003-0.098,0.005C207.486,169.413,207.583,169.368,207.673,169.323L207.673,169.323L207.673,169.323z
	 M227.242,185.246c-1.652,0-3.493-3.549-3.493-8.643c0-1.096,0.085-2.119,0.235-3.052l0.471,0.052c-0.154,0.896-0.247,1.898-0.247,3
	c0,4.855,1.767,7.838,3.034,7.838c0.464,0,0.994-0.401,1.48-1.147l0.168,0.83C228.37,184.846,227.795,185.246,227.242,185.246
	L227.242,185.246L227.242,185.246z"/>
<path fill="#E7E6E4" d="M208.936,77.356l-0.158,0.794c2.135,0.229,3.435,0.907,3.435,1.402c0,0.605-1.933,1.484-4.958,1.484
	c-3.023,0-4.955-0.878-4.955-1.484c0-0.576,1.754-1.397,4.534-1.474l0.095,1.571l0.654,0.001l0.52-8.663
	c1.933-0.397,3.387-2.125,3.387-4.201c0-2.367-1.896-4.287-4.232-4.287c-2.338,0-4.232,1.92-4.232,4.287
	c0,2.076,1.455,3.804,3.387,4.201l0.377,6.283c-2.698,0.081-5.284,0.861-5.284,2.282c0,1.504,2.896,2.291,5.753,2.291
	c2.86,0,5.756-0.787,5.756-2.291C213.008,78.348,211.146,77.604,208.936,77.356L208.936,77.356L208.936,77.356z M205.984,66.787
	c-0.702,0-1.271-0.576-1.271-1.286c0-0.709,0.568-1.287,1.271-1.287c0.699,0,1.269,0.577,1.269,1.287S206.686,66.787,205.984,66.787
	L205.984,66.787L205.984,66.787z"/>
<path fill="#E37E4C" d="M197.497,99.268V86.865c0-0.767,0.551-1.391,1.228-1.391h17.125c0.676,0,1.227,0.624,1.227,1.391v12.402
	c0,0.767-0.551,1.391-1.227,1.391h-17.125C198.048,100.659,197.497,100.035,197.497,99.268L197.497,99.268L197.497,99.268z
	 M216.005,86.865c0-0.098-0.069-0.179-0.155-0.179h-17.125c-0.086,0-0.156,0.081-0.156,0.179v12.402c0,0.099,0.07,0.179,0.156,0.179
	h17.125c0.086,0,0.155-0.08,0.155-0.179V86.865L216.005,86.865L216.005,86.865z"/>
<path fill="#E37E4C" d="M207.182,95.438c-0.13,0-0.26-0.049-0.367-0.146l-7.221-6.525c-0.253-0.23-0.295-0.649-0.093-0.938
	c0.203-0.288,0.573-0.335,0.827-0.105l6.859,6.198l7.022-6.181c0.257-0.227,0.626-0.173,0.825,0.118s0.152,0.709-0.104,0.935
	l-7.391,6.503C207.438,95.392,207.309,95.438,207.182,95.438"/>
<g>
	<path fill="none" stroke="#FFFFFF" stroke-width="1.2" d="M-20.98,99.562c0.186,0.494,0.478,0.927,0.875,1.302
		c0.344,0.828-0.287,2.263-0.054,3.251c-0.143,0.437-1.363,1.632-1.341,1.717l0,0c1.203,0.01,1.112,0.604,1.378,1.405
		c0.127,0.387,0.32,0.457,0.645,0.653c0.354,0.211,0.954-0.058,1.178,0.167c0.239,0.369,0.437,0.759,0.592,1.17
		c0.245,0.091,0.49,0.184,0.735,0.273c0.362-0.382,0.67-1.116,0.967-1.58c0.553-0.865,3.949-0.162,3.949-1.991
		c-0.912,0-1.756-1.208-2.525-1.398c0.457-0.335,6.509-4.789,6.739-4.977c1.519-1.238,4.213-1.637,6.063-1.991l-0.292-0.957
		c-0.117,0.028-0.816-0.027-0.586-0.235c0.512-0.464-0.061-0.706-0.172-1.331c-0.117-0.65-2.289-2.667-2.189-3.274
		c0.299-0.255,0.436-0.58,0.413-0.977l-0.344-0.46c-1.871,0.058-2.707,1.769-3.98,2.079c-0.48,0.118-1.16-0.669-0.944,0.152
		c-0.069,0.716-0.428,1.269-1.08,1.655c-0.184,0.268-4.179,1.225-4.678,1.196c-0.387-0.366-0.8-0.423-1.245-0.174
		c-0.204,0.584-0.455-0.022-0.637-0.303c-0.564-0.87-0.643,0.33-0.682,0.765l-0.539-0.003l0,0c0.04,0.316-0.011,0.784-0.046,0.934
		c-0.101,0.431-0.699,0.282-0.816,0.672c-0.085,0.278,0.062,0.631-0.166,0.862c-0.369,0.077-0.626,0.282-0.772,0.613
		C-21.111,98.793-21.261,99.054-20.98,99.562L-20.98,99.562L-20.98,99.562z"/>
	<path fill="none" stroke="#FFFFFF" stroke-width="1.2" d="M-19.319,93.686c-0.215,0.438,0.586,2.009,0.586,2.009l0.539,0.003
		c0.039-0.435,0.118-1.635,0.682-0.765c0.182,0.281,0.432,0.887,0.637,0.303c0.198-0.565,0.284-0.43,0.563-0.152
		c0.167,0.169,0.442,0.312,0.682,0.326c0.5,0.029,4.495-0.929,4.677-1.196c0.653-0.386,1.012-0.938,1.08-1.655
		c-0.216-0.821,0.464-0.034,0.945-0.152c0.098-0.023,3.964-2.059,3.98-2.079c-0.095-0.198-0.473-0.246-0.486-0.507
		c-0.016-0.237,1.192-0.241,0.718-0.69c-0.409-0.382-0.498-2.356,0.24-2.48c0.468-0.078,0.705,0.771,1.357,0.553
		c0.354-0.12,0.888-0.873,0.988-1.226c0.121-0.42-0.657-0.732-0.405-1.014c0.207-0.229,0.486-0.28,0.675-0.566
		c0.115-0.171-0.269-1.123,0.233-1.052c0.13,0.02,0.318,0.235,0.398,0.022c0.204-0.555,0.208-1.893,0.074-2.306
		c-0.089-0.268,0.709-0.778,0.546-1.255c-0.064-0.19-0.32-0.302-0.427-0.47c-0.132-0.209-0.171-0.714-0.171-0.96
		c0.099-0.556,1.597-0.737,2.001-0.779c0-0.326-0.056-1.97-0.586-2.208c-0.299-0.136-0.747,0.091-0.839-0.333
		c0,0-0.08-0.925-0.148-0.946c-0.749,0.327-2.301,1.271-3.113,1.157c-0.531-0.074-0.498-0.371-0.748-0.733
		c-0.236-0.343-0.101-0.226,0.12-0.363c0.958-0.595-1.069-1.055,0.014-1.332c0-0.414-0.373-0.104-0.044-0.574l0,0
		c-0.394-0.532-0.574-1.88-1.29-2.156c-0.29-0.111-2.451,0.191-2.541-0.022c-0.335-0.467-0.314-0.827-0.937-1.111
		c-1.318-0.603-1.263-0.086-2.128-0.152c-0.838-0.062-1.989-1.387-2.902-1.324c-0.565,0.041-0.78,1.513-0.6,1.559
		c0.003,0.012,0.005,0.019,0.015,0.023c0,0.147,0.026,0.62,0.061,0.749c0.101,0.388,0.31,1.5,0.509,1.868
		c0.097,0.276,0.402,0.318,0.674,0.318c0.163,0.482-0.314,1.362-0.171,1.944c0.052,0.209-0.339,0.252-0.472,0.301
		c-0.06,0.022,0.277,2.245,0.307,2.285c0.078,0.105,0.57,0.037,0.435,0.228c-1.134,1.584-0.226,5.023-1.528,6.443
		c-0.377,0.271-0.687,0.601-0.931,0.991c0.967,1.698-1.376,2.581-2.346,3.343c0.026-0.02,0.029-0.015,0.007-0.015
		c-0.145,0.594-1.505,1.23-0.899,1.798c0.345,0.326,0.121,0.439,0.217,0.833c0.117,0.473,0.696,0.143,0.998,0.143
		c0.145,0.446,0.182,1.789-0.435,1.99c-0.258,0.084-1.084,0.006-0.661,0.536C-18.962,93.096-19.051,93.516-19.319,93.686
		L-19.319,93.686L-19.319,93.686z"/>
	<path fill="#FFFFFF" stroke="#FFFFFF" stroke-width="1.2" stroke-miterlimit="10" d="M13.252,89.375
		c-0.083-0.437-0.121-0.879-0.114-1.323c-1.188-0.297-1.469-0.146-2.692,0.128c-0.789,0.177-1.101-1.211-1.67-1.467
		c-0.327-0.146-0.752-0.062-1.013-0.206c-0.248-0.164-0.405-0.488-0.509-0.764c0.425-0.586,1.031-0.905,1.814-0.951
		c0.341-0.4-0.187-0.531-0.429-0.817c-0.125-0.151,0.476-0.327,0.593-0.417c0.283-0.218,0.365-0.904,0.27-1.232
		c-0.518-1.812-4.457-0.746-5.307-1.717c-0.133-0.154-0.336,0.07-0.509,0.075c-0.464,0.016-1.438-0.583-0.367-0.748
		c0.128-0.021,0.564-0.203,0.426-0.393c-0.175-0.246-0.819-0.444-0.463-0.879c1.221-1.495-0.927-1.182-1.86-1.081l-0.629,0.015l0,0
		c0-0.326-0.057-1.97-0.586-2.208c-0.299-0.136-0.747,0.091-0.84-0.333l0.061-0.882l0,0c0.328,0.112,0.667,0.148,1.02,0.11
		c-0.103-0.025,1.44-0.282,1.67,0.878c0.199,0.509,0.302,1.267,0.922,1.414c0.716-0.262,1.362-0.638,1.935-1.127
		c0.673,0.098,1.345,0.077,2.017-0.06c0.471,0.193,2.41,1.833,2.899,1.663c0.237-0.081,0.205-0.319,0.398-0.371
		c0.31-0.08,0.419,0.114,0.705,0.114c0.664,0.07,1.342-1.696,1.812-1.354c0.208,0.151,0.397,0.32,0.683,0.052
		c0.043-0.04,1.777-1.177,2.077-0.937c0.582,0.465,2.154,0.64,2.842,0.727c-0.043,0.712-0.155,1.833,0.645,1.525
		c0.187-0.073,1.347,0.413,1.445,0.461v0.03c-0.292,0.369-0.505,0.781-0.636,1.233c-0.604,0.205-1.222,0.284-1.852,0.235
		c-0.35,0.609-0.459,1.539,0.007,2.087c0.324,0.38,0.633,0.321,0.901,0.862c0.992,2.007-0.267,3.222-1.433,4.402
		C16.163,87.458,14.752,88.25,13.252,89.375L13.252,89.375L13.252,89.375z"/>
	<path fill="none" stroke="#FFFFFF" stroke-width="1.2" stroke-miterlimit="10" d="M13.252,89.375
		c-0.083-0.437-0.121-0.879-0.114-1.323c-1.188-0.297-1.469-0.146-2.692,0.128c-0.789,0.177-1.101-1.211-1.67-1.467
		c-0.327-0.146-0.752-0.062-1.013-0.206c-0.248-0.164-0.405-0.488-0.509-0.764c0.425-0.586,1.031-0.905,1.814-0.951
		c0.341-0.4-0.187-0.531-0.429-0.817c-0.125-0.151,0.476-0.327,0.593-0.417c0.283-0.218,0.365-0.904,0.27-1.232
		c-0.518-1.812-4.457-0.746-5.307-1.717c-0.133-0.154-0.336,0.07-0.509,0.075c-0.464,0.016-1.438-0.583-0.367-0.748
		c0.128-0.021,0.564-0.203,0.426-0.393c-0.175-0.246-0.819-0.444-0.463-0.879c1.221-1.495-0.927-1.182-1.86-1.081l-0.629,0.015
		c-0.404,0.042-1.902,0.223-2.001,0.779c0,0.247,0.039,0.751,0.171,0.96c0.107,0.167,0.362,0.28,0.427,0.47
		c0.163,0.477-0.636,0.987-0.546,1.255c0.135,0.413,0.13,1.751-0.074,2.306c-0.08,0.213-0.268-0.003-0.398-0.022
		c-0.502-0.071-0.119,0.881-0.233,1.052c-0.189,0.287-0.469,0.337-0.675,0.566c-0.251,0.281,0.525,0.593,0.405,1.014
		c-0.101,0.353-0.635,1.105-0.989,1.226c-0.652,0.218-0.889-0.631-1.358-0.553c-0.737,0.124-0.648,2.098-0.239,2.48
		c0.473,0.449-0.734,0.453-0.719,0.69c0.014,0.261,0.392,0.309,0.486,0.507l0,0l0.344,0.46c0.023,0.397-0.114,0.722-0.413,0.977
		c-0.098,0.608,2.073,2.623,2.189,3.274c0.112,0.625,0.684,0.867,0.172,1.331c-0.229,0.208,0.47,0.263,0.586,0.235l0.292,0.957l0,0
		c1.39-0.264,5.97-0.98,6.663-2.183C6.976,91.757,10.12,91.739,13.252,89.375L13.252,89.375z"/>
</g>
<g>
	<path fill="none" stroke="#FFFFFF" stroke-width="1.2" d="M23.02,99.562c0.186,0.494,0.478,0.927,0.875,1.302
		c0.344,0.828-0.287,2.263-0.054,3.251c-0.143,0.437-1.363,1.631-1.34,1.717l0,0c1.203,0.01,1.112,0.604,1.378,1.405
		c0.127,0.387,0.32,0.457,0.645,0.653c0.354,0.211,0.954-0.058,1.178,0.167c0.239,0.369,0.437,0.759,0.592,1.17
		c0.245,0.091,0.49,0.184,0.735,0.273c0.362-0.382,0.67-1.116,0.967-1.58c0.553-0.865,3.949-0.162,3.949-1.991
		c-0.912,0-1.756-1.208-2.525-1.398c0.457-0.335,6.509-4.789,6.739-4.977c1.519-1.238,4.213-1.637,6.063-1.991l-0.292-0.957
		c-0.117,0.028-0.816-0.027-0.586-0.235c0.512-0.464-0.061-0.706-0.172-1.331c-0.117-0.65-2.289-2.667-2.189-3.274
		c0.299-0.255,0.436-0.58,0.413-0.977l-0.344-0.46c-1.871,0.058-2.707,1.769-3.98,2.079c-0.48,0.118-1.16-0.669-0.944,0.152
		c-0.069,0.716-0.428,1.269-1.08,1.655c-0.184,0.268-4.179,1.225-4.678,1.196c-0.387-0.366-0.8-0.423-1.245-0.174
		c-0.204,0.584-0.455-0.022-0.637-0.303c-0.564-0.87-0.643,0.33-0.682,0.765l-0.539-0.003l0,0c0.04,0.316-0.011,0.784-0.046,0.934
		c-0.101,0.431-0.699,0.282-0.816,0.672c-0.085,0.278,0.062,0.631-0.166,0.862c-0.369,0.077-0.626,0.282-0.772,0.613
		C22.889,98.793,22.739,99.054,23.02,99.562L23.02,99.562L23.02,99.562z"/>
	<path fill="none" stroke="#FFFFFF" stroke-width="1.2" d="M24.681,93.686c-0.215,0.438,0.586,2.009,0.586,2.009l0.539,0.003
		c0.039-0.435,0.118-1.635,0.682-0.765c0.182,0.281,0.432,0.887,0.637,0.303c0.198-0.565,0.284-0.43,0.563-0.152
		c0.167,0.169,0.442,0.312,0.682,0.326c0.5,0.029,4.495-0.929,4.677-1.196c0.653-0.386,1.012-0.938,1.08-1.655
		c-0.216-0.821,0.464-0.034,0.945-0.152c0.098-0.023,3.964-2.059,3.98-2.079c-0.095-0.198-0.473-0.246-0.486-0.507
		c-0.016-0.237,1.192-0.241,0.718-0.69c-0.409-0.382-0.498-2.356,0.24-2.48c0.468-0.078,0.705,0.771,1.357,0.553
		c0.354-0.12,0.888-0.873,0.988-1.226c0.121-0.42-0.657-0.732-0.405-1.014c0.207-0.229,0.486-0.28,0.675-0.566
		c0.115-0.171-0.269-1.123,0.233-1.052c0.13,0.02,0.318,0.235,0.398,0.022c0.204-0.555,0.208-1.893,0.074-2.306
		c-0.089-0.268,0.709-0.778,0.546-1.255c-0.064-0.19-0.32-0.302-0.427-0.47c-0.132-0.209-0.171-0.714-0.171-0.96
		c0.099-0.556,1.597-0.737,2.001-0.779c0-0.326-0.056-1.97-0.586-2.208c-0.299-0.136-0.747,0.091-0.839-0.333
		c0,0-0.08-0.925-0.148-0.946c-0.749,0.327-2.301,1.271-3.113,1.157c-0.531-0.074-0.498-0.371-0.748-0.733
		c-0.236-0.343-0.101-0.226,0.12-0.363c0.958-0.595-1.069-1.055,0.014-1.332c0-0.414-0.373-0.104-0.044-0.574l0,0
		c-0.394-0.532-0.574-1.88-1.29-2.156c-0.29-0.111-2.451,0.191-2.541-0.022c-0.335-0.467-0.314-0.827-0.937-1.111
		c-1.318-0.603-1.263-0.086-2.128-0.152c-0.838-0.062-1.989-1.387-2.902-1.324c-0.565,0.041-0.78,1.513-0.6,1.559
		c0.003,0.012,0.005,0.019,0.015,0.023c0,0.147,0.026,0.62,0.061,0.749c0.101,0.388,0.31,1.5,0.509,1.868
		c0.097,0.276,0.402,0.318,0.674,0.318c0.161,0.482-0.316,1.363-0.173,1.944c0.052,0.209-0.339,0.252-0.472,0.301
		c-0.06,0.022,0.277,2.245,0.307,2.285c0.078,0.105,0.57,0.037,0.435,0.228c-1.134,1.584-0.226,5.023-1.528,6.443
		c-0.377,0.271-0.687,0.601-0.931,0.991c0.967,1.698-1.376,2.581-2.346,3.343c0.026-0.02,0.029-0.015,0.007-0.015
		c-0.145,0.594-1.505,1.23-0.899,1.798c0.345,0.326,0.121,0.439,0.217,0.833c0.117,0.473,0.696,0.143,0.998,0.143
		c0.145,0.446,0.182,1.789-0.435,1.99c-0.258,0.084-1.084,0.006-0.661,0.536C25.038,93.096,24.949,93.516,24.681,93.686
		L24.681,93.686L24.681,93.686z"/>
	<path fill="none" stroke="#FFFFFF" stroke-width="1.2" stroke-miterlimit="10" d="M57.252,89.375
		c-0.083-0.437-0.121-0.879-0.114-1.323c-1.188-0.297-1.469-0.146-2.692,0.128c-0.789,0.177-1.101-1.211-1.67-1.467
		c-0.327-0.146-0.752-0.062-1.013-0.206c-0.248-0.164-0.405-0.488-0.509-0.764c0.425-0.586,1.031-0.905,1.814-0.951
		c0.341-0.4-0.187-0.531-0.429-0.817c-0.125-0.151,0.476-0.327,0.593-0.417c0.283-0.218,0.365-0.904,0.27-1.232
		c-0.518-1.812-4.457-0.746-5.307-1.717c-0.133-0.154-0.336,0.07-0.509,0.075c-0.464,0.016-1.438-0.583-0.367-0.748
		c0.128-0.021,0.564-0.203,0.426-0.393c-0.175-0.246-0.819-0.444-0.463-0.879c1.221-1.495-0.927-1.182-1.86-1.081l-0.629,0.015l0,0
		c0-0.326-0.057-1.97-0.586-2.208c-0.299-0.136-0.747,0.091-0.84-0.333l0.061-0.882l0,0c0.328,0.112,0.667,0.148,1.02,0.11
		c-0.103-0.025,1.44-0.282,1.67,0.878c0.199,0.509,0.302,1.267,0.922,1.414c0.716-0.262,1.362-0.638,1.935-1.127
		c0.673,0.098,1.345,0.077,2.017-0.06c0.471,0.193,2.41,1.833,2.899,1.663c0.237-0.081,0.205-0.319,0.398-0.371
		c0.31-0.08,0.419,0.114,0.705,0.114c0.664,0.07,1.342-1.696,1.812-1.354c0.208,0.151,0.397,0.32,0.683,0.052
		c0.043-0.04,1.777-1.177,2.077-0.937c0.582,0.465,2.154,0.64,2.842,0.727c-0.043,0.712-0.155,1.833,0.645,1.525
		c0.187-0.073,1.347,0.413,1.445,0.461v0.03c-0.292,0.369-0.505,0.781-0.636,1.233c-0.604,0.205-1.222,0.284-1.852,0.235
		c-0.35,0.609-0.459,1.539,0.007,2.087c0.324,0.38,0.633,0.321,0.901,0.862c0.992,2.007-0.267,3.222-1.433,4.402
		C60.163,87.458,58.752,88.25,57.252,89.375L57.252,89.375L57.252,89.375z"/>
	<path fill="#FFFFFF" stroke="#FFFFFF" stroke-width="1.2" stroke-miterlimit="10" d="M57.252,89.375
		c-0.083-0.437-0.121-0.879-0.114-1.323c-1.188-0.297-1.469-0.146-2.692,0.128c-0.789,0.177-1.101-1.211-1.67-1.467
		c-0.327-0.146-0.752-0.062-1.013-0.206c-0.248-0.164-0.405-0.488-0.509-0.764c0.425-0.586,1.031-0.905,1.814-0.951
		c0.341-0.4-0.187-0.531-0.429-0.817c-0.125-0.151,0.476-0.327,0.593-0.417c0.283-0.218,0.365-0.904,0.27-1.232
		c-0.518-1.812-4.457-0.746-5.307-1.717c-0.133-0.154-0.336,0.07-0.509,0.075c-0.464,0.016-1.438-0.583-0.367-0.748
		c0.128-0.021,0.564-0.203,0.426-0.393c-0.175-0.246-0.819-0.444-0.463-0.879c1.221-1.495-0.927-1.182-1.86-1.081l-0.629,0.015
		c-0.404,0.042-1.902,0.223-2.001,0.779c0,0.247,0.039,0.751,0.171,0.96c0.107,0.167,0.362,0.28,0.427,0.47
		c0.163,0.477-0.636,0.987-0.546,1.255c0.135,0.413,0.13,1.751-0.074,2.306c-0.08,0.213-0.268-0.003-0.398-0.022
		c-0.502-0.071-0.119,0.881-0.233,1.052c-0.189,0.287-0.469,0.337-0.675,0.566c-0.251,0.281,0.525,0.593,0.405,1.014
		c-0.101,0.353-0.635,1.105-0.989,1.226c-0.652,0.218-0.889-0.631-1.358-0.553c-0.737,0.124-0.648,2.098-0.239,2.48
		c0.473,0.449-0.734,0.453-0.719,0.69c0.014,0.261,0.392,0.309,0.486,0.507l0,0l0.344,0.46c0.023,0.397-0.114,0.722-0.413,0.977
		c-0.098,0.608,2.073,2.623,2.189,3.274c0.112,0.625,0.684,0.867,0.172,1.331c-0.229,0.208,0.47,0.263,0.586,0.235l0.292,0.957l0,0
		c1.39-0.264,5.97-0.98,6.663-2.183C50.976,91.757,54.12,91.739,57.252,89.375L57.252,89.375z"/>
</g>
<g>
	<path fill="none" stroke="#FFFFFF" stroke-width="1.2" d="M-20.98,143.562c0.186,0.494,0.478,0.927,0.875,1.302
		c0.344,0.827-0.287,2.263-0.054,3.251c-0.143,0.438-1.363,1.631-1.34,1.717l0,0c1.203,0.01,1.112,0.604,1.378,1.404
		c0.127,0.387,0.32,0.457,0.645,0.652c0.354,0.213,0.954-0.058,1.178,0.168c0.239,0.368,0.437,0.76,0.592,1.17
		c0.245,0.092,0.49,0.184,0.735,0.272c0.362-0.382,0.67-1.115,0.967-1.58c0.553-0.864,3.949-0.162,3.949-1.991
		c-0.912,0-1.756-1.207-2.525-1.398c0.457-0.334,6.509-4.787,6.739-4.977c1.519-1.238,4.213-1.638,6.063-1.99l-0.292-0.957
		c-0.117,0.027-0.816-0.027-0.586-0.234c0.512-0.465-0.061-0.707-0.172-1.332c-0.117-0.648-2.289-2.666-2.189-3.273
		c0.299-0.254,0.436-0.58,0.413-0.977l-0.344-0.461c-1.871,0.059-2.707,1.77-3.98,2.079c-0.48,0.118-1.16-0.669-0.944,0.151
		c-0.069,0.717-0.428,1.27-1.08,1.655c-0.184,0.269-4.179,1.226-4.678,1.195c-0.387-0.366-0.8-0.425-1.245-0.175
		c-0.204,0.584-0.455-0.021-0.637-0.303c-0.564-0.869-0.643,0.33-0.682,0.766l-0.539-0.004l0,0c0.04,0.316-0.011,0.783-0.046,0.935
		c-0.101,0.431-0.699,0.282-0.816,0.672c-0.085,0.278,0.062,0.632-0.166,0.862c-0.369,0.077-0.626,0.281-0.772,0.611
		C-21.111,142.793-21.261,143.055-20.98,143.562L-20.98,143.562L-20.98,143.562z"/>
	<path fill="#FFFFFF" stroke="#FFFFFF" stroke-width="1.2" d="M-19.319,137.686c-0.215,0.438,0.586,2.01,0.586,2.01l0.539,0.004
		c0.039-0.436,0.118-1.635,0.682-0.766c0.182,0.281,0.432,0.887,0.637,0.303c0.198-0.564,0.284-0.43,0.563-0.151
		c0.167,0.17,0.442,0.312,0.682,0.326c0.5,0.028,4.495-0.929,4.677-1.195c0.653-0.387,1.012-0.938,1.08-1.655
		c-0.216-0.82,0.464-0.033,0.945-0.151c0.098-0.023,3.964-2.06,3.98-2.079c-0.095-0.197-0.473-0.245-0.486-0.506
		c-0.016-0.237,1.192-0.242,0.718-0.69c-0.409-0.382-0.498-2.356,0.24-2.479c0.468-0.077,0.705,0.771,1.357,0.554
		c0.354-0.121,0.888-0.874,0.988-1.227c0.121-0.42-0.657-0.732-0.405-1.014c0.207-0.229,0.486-0.279,0.675-0.566
		c0.115-0.17-0.269-1.123,0.233-1.052c0.13,0.02,0.318,0.235,0.398,0.022c0.204-0.555,0.208-1.893,0.074-2.307
		c-0.089-0.268,0.709-0.777,0.546-1.254c-0.064-0.19-0.32-0.303-0.427-0.471c-0.132-0.209-0.171-0.713-0.171-0.96
		c0.099-0.556,1.597-0.737,2.001-0.778c0-0.326-0.056-1.971-0.586-2.208c-0.299-0.136-0.747,0.091-0.839-0.333
		c0,0-0.08-0.926-0.148-0.946c-0.749,0.327-2.301,1.271-3.113,1.157c-0.531-0.074-0.498-0.371-0.748-0.732
		c-0.236-0.344-0.101-0.227,0.12-0.363c0.958-0.596-1.069-1.055,0.014-1.332c0-0.414-0.373-0.104-0.044-0.574l0,0
		c-0.394-0.532-0.574-1.881-1.29-2.156c-0.29-0.111-2.451,0.191-2.541-0.022c-0.335-0.467-0.314-0.827-0.937-1.111
		c-1.318-0.603-1.263-0.087-2.128-0.151c-0.838-0.062-1.989-1.387-2.902-1.324c-0.565,0.041-0.78,1.514-0.6,1.559
		c0.003,0.012,0.005,0.02,0.015,0.023c0,0.146,0.026,0.619,0.061,0.748c0.101,0.389,0.31,1.5,0.509,1.867
		c0.097,0.277,0.402,0.318,0.674,0.318c0.163,0.479-0.314,1.36-0.171,1.941c0.052,0.209-0.339,0.253-0.472,0.302
		c-0.06,0.021,0.277,2.244,0.307,2.285c0.078,0.105,0.57,0.037,0.435,0.227c-1.134,1.585-0.226,5.023-1.528,6.443
		c-0.377,0.271-0.687,0.602-0.931,0.99c0.967,1.699-1.376,2.581-2.346,3.344c0.026-0.021,0.029-0.016,0.007-0.016
		c-0.145,0.595-1.505,1.23-0.899,1.799c0.345,0.326,0.121,0.439,0.217,0.833c0.117,0.474,0.696,0.144,0.998,0.144
		c0.145,0.445,0.182,1.789-0.435,1.99c-0.258,0.084-1.084,0.006-0.661,0.535C-18.962,137.096-19.051,137.516-19.319,137.686
		L-19.319,137.686L-19.319,137.686z"/>
	<path fill="none" stroke="#FFFFFF" stroke-width="1.2" stroke-miterlimit="10" d="M13.252,133.375
		c-0.083-0.438-0.121-0.879-0.114-1.323c-1.188-0.297-1.469-0.146-2.692,0.128c-0.789,0.178-1.101-1.211-1.67-1.467
		c-0.327-0.146-0.752-0.062-1.013-0.205c-0.248-0.165-0.405-0.488-0.509-0.764c0.425-0.587,1.031-0.905,1.814-0.951
		c0.341-0.4-0.187-0.531-0.429-0.817c-0.125-0.151,0.476-0.327,0.593-0.417c0.283-0.217,0.365-0.904,0.27-1.232
		c-0.518-1.812-4.457-0.745-5.307-1.717c-0.133-0.154-0.336,0.07-0.509,0.075c-0.464,0.016-1.438-0.583-0.367-0.748
		c0.128-0.021,0.564-0.202,0.426-0.394c-0.175-0.245-0.819-0.443-0.463-0.879c1.221-1.494-0.927-1.182-1.86-1.08L0.793,121.6l0,0
		c0-0.326-0.057-1.971-0.586-2.208c-0.299-0.136-0.747,0.091-0.84-0.333l0.061-0.883l0,0c0.328,0.112,0.667,0.148,1.02,0.11
		c-0.103-0.024,1.44-0.282,1.67,0.878c0.199,0.509,0.302,1.268,0.922,1.414c0.716-0.262,1.362-0.638,1.935-1.127
		c0.673,0.098,1.345,0.077,2.017-0.06c0.471,0.193,2.41,1.833,2.899,1.663c0.237-0.081,0.205-0.319,0.398-0.371
		c0.31-0.08,0.419,0.113,0.705,0.113c0.664,0.07,1.342-1.695,1.812-1.354c0.208,0.151,0.397,0.32,0.683,0.053
		c0.043-0.039,1.777-1.177,2.077-0.937c0.582,0.465,2.154,0.64,2.842,0.727c-0.043,0.712-0.155,1.833,0.645,1.525
		c0.187-0.073,1.347,0.413,1.445,0.461v0.03c-0.292,0.369-0.505,0.781-0.636,1.232c-0.604,0.205-1.222,0.284-1.852,0.235
		c-0.35,0.608-0.459,1.538,0.007,2.087c0.324,0.381,0.633,0.321,0.901,0.862c0.992,2.007-0.267,3.222-1.433,4.402
		C16.163,131.459,14.752,132.25,13.252,133.375L13.252,133.375L13.252,133.375z"/>
	<path fill="none" stroke="#FFFFFF" stroke-width="1.2" stroke-miterlimit="10" d="M13.252,133.375
		c-0.083-0.438-0.121-0.879-0.114-1.323c-1.188-0.297-1.469-0.146-2.692,0.128c-0.789,0.178-1.101-1.211-1.67-1.467
		c-0.327-0.146-0.752-0.062-1.013-0.205c-0.248-0.165-0.405-0.488-0.509-0.764c0.425-0.587,1.031-0.905,1.814-0.951
		c0.341-0.4-0.187-0.531-0.429-0.817c-0.125-0.151,0.476-0.327,0.593-0.417c0.283-0.217,0.365-0.904,0.27-1.232
		c-0.518-1.812-4.457-0.745-5.307-1.717c-0.133-0.154-0.336,0.07-0.509,0.075c-0.464,0.016-1.438-0.583-0.367-0.748
		c0.128-0.021,0.564-0.202,0.426-0.394c-0.175-0.245-0.819-0.443-0.463-0.879c1.221-1.494-0.927-1.182-1.86-1.08L0.793,121.6
		c-0.404,0.041-1.902,0.223-2.001,0.778c0,0.247,0.039,0.751,0.171,0.96c0.107,0.168,0.362,0.28,0.427,0.471
		c0.163,0.477-0.636,0.986-0.546,1.254c0.135,0.414,0.13,1.752-0.074,2.307c-0.08,0.213-0.268-0.003-0.398-0.022
		c-0.502-0.071-0.119,0.882-0.233,1.052c-0.189,0.287-0.469,0.338-0.675,0.566c-0.251,0.281,0.525,0.594,0.405,1.014
		c-0.101,0.353-0.635,1.105-0.989,1.227c-0.652,0.218-0.889-0.631-1.358-0.553c-0.737,0.123-0.648,2.098-0.239,2.479
		c0.473,0.448-0.734,0.453-0.719,0.69c0.014,0.261,0.392,0.309,0.486,0.506l0,0l0.344,0.461c0.023,0.396-0.114,0.722-0.413,0.978
		c-0.098,0.606,2.073,2.623,2.189,3.272c0.112,0.625,0.684,0.867,0.172,1.332c-0.229,0.207,0.47,0.263,0.586,0.233l0.292,0.957l0,0
		c1.39-0.264,5.97-0.979,6.663-2.183C6.976,135.757,10.12,135.738,13.252,133.375L13.252,133.375z"/>
</g>
<g>
	<path fill="#FFFFFF" stroke="#FFFFFF" stroke-width="1.2" d="M23.02,143.562c0.186,0.494,0.478,0.927,0.875,1.302
		c0.344,0.827-0.287,2.263-0.054,3.251c-0.143,0.438-1.363,1.631-1.34,1.717l0,0c1.203,0.01,1.112,0.604,1.378,1.404
		c0.127,0.387,0.32,0.457,0.645,0.652c0.354,0.213,0.954-0.058,1.178,0.168c0.239,0.368,0.437,0.76,0.592,1.17
		c0.245,0.092,0.49,0.184,0.735,0.272c0.362-0.382,0.67-1.115,0.967-1.58c0.553-0.864,3.949-0.162,3.949-1.991
		c-0.912,0-1.756-1.207-2.525-1.398c0.457-0.334,6.509-4.787,6.739-4.977c1.519-1.238,4.213-1.638,6.063-1.99l-0.292-0.957
		c-0.117,0.027-0.816-0.027-0.586-0.234c0.512-0.465-0.061-0.707-0.172-1.332c-0.117-0.648-2.289-2.666-2.189-3.273
		c0.299-0.254,0.436-0.58,0.413-0.977l-0.344-0.461c-1.871,0.059-2.707,1.77-3.98,2.079c-0.48,0.118-1.16-0.669-0.944,0.151
		c-0.069,0.717-0.428,1.27-1.08,1.655c-0.184,0.269-4.179,1.226-4.678,1.195c-0.387-0.366-0.8-0.425-1.245-0.175
		c-0.204,0.584-0.455-0.021-0.637-0.303c-0.564-0.869-0.643,0.33-0.682,0.766l-0.539-0.004l0,0c0.04,0.316-0.011,0.783-0.046,0.935
		c-0.101,0.431-0.699,0.282-0.816,0.672c-0.085,0.278,0.062,0.632-0.166,0.862c-0.369,0.077-0.626,0.281-0.772,0.611
		C22.889,142.793,22.739,143.055,23.02,143.562L23.02,143.562L23.02,143.562z"/>
	<path fill="none" stroke="#FFFFFF" stroke-width="1.2" d="M24.681,137.686c-0.215,0.438,0.586,2.01,0.586,2.01l0.539,0.004
		c0.039-0.436,0.118-1.635,0.682-0.766c0.182,0.281,0.432,0.887,0.637,0.303c0.198-0.564,0.284-0.43,0.563-0.151
		c0.167,0.17,0.442,0.312,0.682,0.326c0.5,0.028,4.495-0.929,4.677-1.195c0.653-0.387,1.012-0.938,1.08-1.655
		c-0.216-0.82,0.464-0.033,0.945-0.151c0.098-0.023,3.964-2.06,3.98-2.079c-0.095-0.197-0.473-0.245-0.486-0.506
		c-0.016-0.237,1.192-0.242,0.718-0.69c-0.409-0.382-0.498-2.356,0.24-2.479c0.468-0.077,0.705,0.771,1.357,0.554
		c0.354-0.121,0.888-0.874,0.988-1.227c0.121-0.42-0.657-0.732-0.405-1.014c0.207-0.229,0.486-0.279,0.675-0.566
		c0.115-0.17-0.269-1.123,0.233-1.052c0.13,0.02,0.318,0.235,0.398,0.022c0.204-0.555,0.208-1.893,0.074-2.307
		c-0.089-0.268,0.709-0.777,0.546-1.254c-0.064-0.19-0.32-0.303-0.427-0.471c-0.132-0.209-0.171-0.713-0.171-0.96
		c0.099-0.556,1.597-0.737,2.001-0.778c0-0.326-0.056-1.971-0.586-2.208c-0.299-0.136-0.747,0.091-0.839-0.333
		c0,0-0.08-0.926-0.148-0.946c-0.749,0.327-2.301,1.271-3.113,1.157c-0.531-0.074-0.498-0.371-0.748-0.732
		c-0.236-0.344-0.101-0.227,0.12-0.363c0.958-0.596-1.069-1.055,0.014-1.332c0-0.414-0.373-0.104-0.044-0.574l0,0
		c-0.394-0.532-0.574-1.881-1.29-2.156c-0.29-0.111-2.451,0.191-2.541-0.022c-0.335-0.467-0.314-0.827-0.937-1.111
		c-1.318-0.603-1.263-0.087-2.128-0.151c-0.838-0.062-1.989-1.387-2.902-1.324c-0.565,0.041-0.78,1.514-0.6,1.559
		c0.003,0.012,0.005,0.02,0.015,0.023c0,0.146,0.026,0.619,0.061,0.748c0.101,0.389,0.31,1.5,0.509,1.867
		c0.097,0.277,0.402,0.318,0.674,0.318c0.161,0.482-0.316,1.363-0.173,1.944c0.052,0.209-0.339,0.253-0.472,0.302
		c-0.06,0.021,0.277,2.244,0.307,2.285c0.078,0.105,0.57,0.037,0.435,0.227c-1.134,1.585-0.226,5.023-1.528,6.443
		c-0.377,0.271-0.687,0.602-0.931,0.99c0.967,1.699-1.376,2.581-2.346,3.345c0.026-0.021,0.029-0.017,0.007-0.017
		c-0.145,0.595-1.505,1.229-0.899,1.799c0.345,0.326,0.121,0.438,0.217,0.833c0.117,0.475,0.696,0.145,0.998,0.145
		c0.145,0.445,0.182,1.789-0.435,1.99c-0.258,0.084-1.084,0.006-0.661,0.534C25.038,137.096,24.949,137.516,24.681,137.686
		L24.681,137.686L24.681,137.686z"/>
	<path fill="none" stroke="#FFFFFF" stroke-width="1.2" stroke-miterlimit="10" d="M57.252,133.375
		c-0.083-0.438-0.121-0.879-0.114-1.323c-1.188-0.297-1.469-0.146-2.692,0.128c-0.789,0.178-1.101-1.211-1.67-1.467
		c-0.327-0.146-0.752-0.062-1.013-0.205c-0.248-0.165-0.405-0.488-0.509-0.764c0.425-0.587,1.031-0.905,1.814-0.951
		c0.341-0.4-0.187-0.531-0.429-0.817c-0.125-0.151,0.476-0.327,0.593-0.417c0.283-0.217,0.365-0.904,0.27-1.232
		c-0.518-1.812-4.457-0.745-5.307-1.717c-0.133-0.154-0.336,0.07-0.509,0.075c-0.464,0.016-1.438-0.583-0.367-0.748
		c0.128-0.021,0.564-0.202,0.426-0.394c-0.175-0.245-0.819-0.443-0.463-0.879c1.221-1.494-0.927-1.182-1.86-1.08l-0.629,0.016l0,0
		c0-0.326-0.057-1.971-0.586-2.208c-0.299-0.136-0.747,0.091-0.84-0.333l0.061-0.883l0,0c0.328,0.112,0.667,0.148,1.02,0.11
		c-0.103-0.024,1.44-0.282,1.67,0.878c0.199,0.509,0.302,1.268,0.922,1.414c0.716-0.262,1.362-0.638,1.935-1.127
		c0.673,0.098,1.345,0.077,2.017-0.06c0.471,0.193,2.41,1.833,2.899,1.663c0.237-0.081,0.205-0.319,0.398-0.371
		c0.31-0.08,0.419,0.113,0.705,0.113c0.664,0.07,1.342-1.695,1.812-1.354c0.208,0.151,0.397,0.32,0.683,0.053
		c0.043-0.039,1.777-1.177,2.077-0.937c0.582,0.465,2.154,0.64,2.842,0.727c-0.043,0.712-0.155,1.833,0.645,1.525
		c0.187-0.073,1.347,0.413,1.445,0.461v0.03c-0.292,0.369-0.505,0.781-0.636,1.232c-0.604,0.205-1.222,0.284-1.852,0.235
		c-0.35,0.608-0.459,1.538,0.007,2.087c0.324,0.381,0.633,0.321,0.901,0.862c0.992,2.007-0.267,3.222-1.433,4.402
		C60.163,131.459,58.752,132.25,57.252,133.375L57.252,133.375L57.252,133.375z"/>
	<path fill="none" stroke="#FFFFFF" stroke-width="1.2" stroke-miterlimit="10" d="M57.252,133.375
		c-0.083-0.438-0.121-0.879-0.114-1.323c-1.188-0.297-1.469-0.146-2.692,0.128c-0.789,0.178-1.101-1.211-1.67-1.467
		c-0.327-0.146-0.752-0.062-1.013-0.205c-0.248-0.165-0.405-0.488-0.509-0.764c0.425-0.587,1.031-0.905,1.814-0.951
		c0.341-0.4-0.187-0.531-0.429-0.817c-0.125-0.151,0.476-0.327,0.593-0.417c0.283-0.217,0.365-0.904,0.27-1.232
		c-0.518-1.812-4.457-0.745-5.307-1.717c-0.133-0.154-0.336,0.07-0.509,0.075c-0.464,0.016-1.438-0.583-0.367-0.748
		c0.128-0.021,0.564-0.202,0.426-0.394c-0.175-0.245-0.819-0.443-0.463-0.879c1.221-1.494-0.927-1.182-1.86-1.08l-0.629,0.016
		c-0.404,0.041-1.902,0.223-2.001,0.778c0,0.247,0.039,0.751,0.171,0.96c0.107,0.168,0.362,0.28,0.427,0.471
		c0.163,0.477-0.636,0.986-0.546,1.254c0.135,0.414,0.13,1.752-0.074,2.307c-0.08,0.213-0.268-0.003-0.398-0.022
		c-0.502-0.071-0.119,0.882-0.233,1.052c-0.189,0.287-0.469,0.338-0.675,0.566c-0.251,0.281,0.525,0.594,0.405,1.014
		c-0.101,0.353-0.635,1.105-0.989,1.227c-0.652,0.218-0.889-0.631-1.358-0.553c-0.737,0.123-0.648,2.098-0.239,2.479
		c0.473,0.448-0.734,0.453-0.719,0.69c0.014,0.261,0.392,0.309,0.486,0.506l0,0l0.344,0.461c0.023,0.396-0.114,0.722-0.413,0.978
		c-0.098,0.606,2.073,2.623,2.189,3.272c0.112,0.625,0.684,0.867,0.172,1.332c-0.229,0.207,0.47,0.263,0.586,0.233l0.292,0.957l0,0
		c1.39-0.264,5.97-0.979,6.663-2.183C50.976,135.757,54.12,135.738,57.252,133.375L57.252,133.375z"/>
</g>
<g>
	<rect x="79.5" y="127.499" fill="#FFD128" width="16" height="12"/>
	<rect x="79.5" y="127.5" fill="#CF3F4F" width="16" height="3"/>
	<rect x="79.5" y="136.5" fill="#CF3F4F" width="16" height="3"/>
</g>
<g>
	<path fill="#212121" d="M174.368,137.893h-9.208c-0.348,0-0.631,0.291-0.631,0.649c0,0.36,0.283,0.65,0.631,0.65h9.208
		c0.35,0,0.632-0.29,0.632-0.65C175,138.184,174.717,137.893,174.368,137.893z"/>
	<path fill="#212121" d="M174.368,132.849h-9.208c-0.348,0-0.631,0.292-0.631,0.651c0,0.357,0.283,0.648,0.631,0.648h9.208
		c0.35,0,0.632-0.291,0.632-0.648C175,133.141,174.717,132.849,174.368,132.849z"/>
	<path fill="#212121" d="M165.16,129.105h9.208c0.35,0,0.632-0.29,0.632-0.649c0-0.359-0.283-0.65-0.632-0.65h-9.208
		c-0.348,0-0.631,0.291-0.631,0.65C164.529,128.815,164.812,129.105,165.16,129.105z"/>
	<path fill="#212121" d="M162.198,127h-1.566c-0.35,0-0.632,0.291-0.632,0.65v1.612c0,0.358,0.283,0.649,0.632,0.649h1.566
		c0.349,0,0.633-0.291,0.633-0.649v-1.612C162.831,127.291,162.547,127,162.198,127z"/>
	<path fill="#212121" d="M162.198,132.045h-1.566c-0.35,0-0.632,0.29-0.632,0.649v1.611c0,0.358,0.283,0.648,0.632,0.648h1.566
		c0.349,0,0.633-0.29,0.633-0.648v-1.611C162.831,132.335,162.547,132.045,162.198,132.045z"/>
	<path fill="#212121" d="M162.198,137.087h-1.566c-0.35,0-0.632,0.29-0.632,0.65v1.611c0,0.359,0.283,0.651,0.632,0.651h1.566
		c0.349,0,0.633-0.292,0.633-0.651v-1.611C162.831,137.377,162.547,137.087,162.198,137.087z"/>
</g>
<rect x="139.5" y="127.5" fill="#FFFFFF" width="16" height="12"/>
<rect x="139.5" y="127.499" fill="#1A50D8" width="5" height="12"/>
<rect x="150.5" y="127.499" fill="#D80303" width="5" height="12.001"/>
<g>
	<rect x="99.5" y="127.499" fill="#FFD128" width="16" height="12"/>
	<rect x="99.5" y="129.25" fill="#CF3F4F" width="16" height="1.5"/>
	<rect x="99.5" y="136.25" fill="#CF3F4F" width="16" height="1.5"/>
	<rect x="99.5" y="132.75" fill="#CF3F4F" width="16" height="1.5"/>
</g>
<g>
	<rect x="119.5" y="127.5" fill="#FFFFFF" width="16" height="12"/>
	<polyline fill="#CF0F14" points="135.5,132.3 128.3,132.3 128.3,127.5 126.7,127.5 126.7,132.3 119.5,132.3 119.5,134.7 
		126.7,134.7 126.7,139.5 128.3,139.5 128.3,134.7 135.5,134.7 	"/>
	<path fill="#CF0F14" d="M130.167,135.5h1.193l4.141,3.105v0.895 M124.833,131.5h-1.193l-4.141-3.105V127.5L124.833,131.5z
		 M124.833,135.5h1.192l-5.333,4H119.5L124.833,135.5z M130.167,131.5h-1.192l5.333-4h1.192L130.167,131.5z"/>
	<path fill="#00305B" d="M119.5,135.5v2.658l3.544-2.658 M135.5,135.5v2.658l-3.544-2.658H135.5z M119.5,131.5v-2.658l3.544,2.658
		H119.5z M135.5,131.5v-2.658l-3.544,2.658H135.5z M126.167,139.5v-3.658l-4.877,3.658H126.167z M128.833,139.5v-3.658l4.877,3.658
		H128.833z M126.167,127.5v3.658l-4.877-3.658H126.167z M128.833,127.5v3.658l4.877-3.658H128.833z"/>
</g>
</svg>
